%TF.GenerationSoftware,KiCad,Pcbnew,(6.0.4)*%
%TF.CreationDate,2022-05-08T20:42:15-04:00*%
%TF.ProjectId,STM32_Altimeter_R2,53544d33-325f-4416-9c74-696d65746572,0.1*%
%TF.SameCoordinates,Original*%
%TF.FileFunction,Legend,Bot*%
%TF.FilePolarity,Positive*%
%FSLAX46Y46*%
G04 Gerber Fmt 4.6, Leading zero omitted, Abs format (unit mm)*
G04 Created by KiCad (PCBNEW (6.0.4)) date 2022-05-08 20:42:15*
%MOMM*%
%LPD*%
G01*
G04 APERTURE LIST*
%ADD10C,0.150000*%
%ADD11C,0.100000*%
%ADD12C,0.120000*%
%ADD13C,0.059168*%
%ADD14C,0.200000*%
%ADD15C,0.127000*%
G04 APERTURE END LIST*
D10*
X59563948Y-50000000D02*
G75*
G03*
X59563948Y-50000000I-63948J0D01*
G01*
X57749937Y-59058975D02*
G75*
G03*
X57749937Y-59058975I-100000J0D01*
G01*
X57925442Y-73731583D02*
G75*
G03*
X57925442Y-73731583I-141421J0D01*
G01*
X51371346Y-67395859D02*
G75*
G03*
X51371346Y-67395859I-1J0D01*
G01*
X45469452Y-76138775D02*
X46550000Y-76257500D01*
X51512766Y-67395859D02*
G75*
G03*
X51512766Y-67395859I-141421J0D01*
G01*
X59541421Y-75200000D02*
G75*
G03*
X59541421Y-75200000I-141421J0D01*
G01*
X49600837Y-46038198D02*
G75*
G03*
X49600837Y-46038198I-100000J0D01*
G01*
X37441421Y-68200000D02*
G75*
G03*
X37441421Y-68200000I-141421J0D01*
G01*
X59400001Y-75200000D02*
G75*
G03*
X59400001Y-75200000I-1J0D01*
G01*
X49500838Y-46038198D02*
G75*
G03*
X49500838Y-46038198I-1J0D01*
G01*
X37300001Y-68200000D02*
G75*
G03*
X37300001Y-68200000I-1J0D01*
G01*
X57784022Y-73731583D02*
G75*
G03*
X57784022Y-73731583I-1J0D01*
G01*
X37500000Y-68200000D02*
G75*
G03*
X37500000Y-68200000I-200000J0D01*
G01*
D11*
X36521404Y-76472630D02*
X35911881Y-76472630D01*
X36216643Y-76777392D02*
X36216643Y-76167868D01*
D10*
X61927242Y-65063933D02*
X61927242Y-65873457D01*
X61879623Y-65968695D01*
X61832004Y-66016314D01*
X61736766Y-66063933D01*
X61546290Y-66063933D01*
X61451052Y-66016314D01*
X61403433Y-65968695D01*
X61355814Y-65873457D01*
X61355814Y-65063933D01*
X60927242Y-66016314D02*
X60784385Y-66063933D01*
X60546290Y-66063933D01*
X60451052Y-66016314D01*
X60403433Y-65968695D01*
X60355814Y-65873457D01*
X60355814Y-65778219D01*
X60403433Y-65682981D01*
X60451052Y-65635362D01*
X60546290Y-65587743D01*
X60736766Y-65540124D01*
X60832004Y-65492505D01*
X60879623Y-65444886D01*
X60927242Y-65349648D01*
X60927242Y-65254410D01*
X60879623Y-65159172D01*
X60832004Y-65111553D01*
X60736766Y-65063933D01*
X60498671Y-65063933D01*
X60355814Y-65111553D01*
X59593909Y-65540124D02*
X59451052Y-65587743D01*
X59403433Y-65635362D01*
X59355814Y-65730600D01*
X59355814Y-65873457D01*
X59403433Y-65968695D01*
X59451052Y-66016314D01*
X59546290Y-66063933D01*
X59927242Y-66063933D01*
X59927242Y-65063933D01*
X59593909Y-65063933D01*
X59498671Y-65111553D01*
X59451052Y-65159172D01*
X59403433Y-65254410D01*
X59403433Y-65349648D01*
X59451052Y-65444886D01*
X59498671Y-65492505D01*
X59593909Y-65540124D01*
X59927242Y-65540124D01*
D11*
X36404761Y-70957142D02*
X35795238Y-70957142D01*
X36100000Y-71261904D02*
X36100000Y-70652380D01*
X46663053Y-78023135D02*
X46053530Y-78023135D01*
X46358292Y-78327897D02*
X46358292Y-77718373D01*
D10*
X44955112Y-61679481D02*
X44955112Y-62179481D01*
X44921779Y-62279481D01*
X44855112Y-62346148D01*
X44755112Y-62379481D01*
X44688446Y-62379481D01*
X45621779Y-62379481D02*
X45288446Y-62379481D01*
X45288446Y-61679481D01*
X46255112Y-62312815D02*
X46221779Y-62346148D01*
X46121779Y-62379481D01*
X46055112Y-62379481D01*
X45955112Y-62346148D01*
X45888446Y-62279481D01*
X45855112Y-62212815D01*
X45821779Y-62079481D01*
X45821779Y-61979481D01*
X45855112Y-61846148D01*
X45888446Y-61779481D01*
X45955112Y-61712815D01*
X46055112Y-61679481D01*
X46121779Y-61679481D01*
X46221779Y-61712815D01*
X46255112Y-61746148D01*
X46755112Y-61679481D02*
X46755112Y-62179481D01*
X46721779Y-62279481D01*
X46655112Y-62346148D01*
X46555112Y-62379481D01*
X46488446Y-62379481D01*
X47421779Y-62379481D02*
X47088446Y-62379481D01*
X47088446Y-61679481D01*
X48055112Y-62312815D02*
X48021779Y-62346148D01*
X47921779Y-62379481D01*
X47855112Y-62379481D01*
X47755112Y-62346148D01*
X47688446Y-62279481D01*
X47655112Y-62212815D01*
X47621779Y-62079481D01*
X47621779Y-61979481D01*
X47655112Y-61846148D01*
X47688446Y-61779481D01*
X47755112Y-61712815D01*
X47855112Y-61679481D01*
X47921779Y-61679481D01*
X48021779Y-61712815D01*
X48055112Y-61746148D01*
X48555112Y-61679481D02*
X48555112Y-62179481D01*
X48521779Y-62279481D01*
X48455112Y-62346148D01*
X48355112Y-62379481D01*
X48288446Y-62379481D01*
X49221779Y-62379481D02*
X48888446Y-62379481D01*
X48888446Y-61679481D01*
X49855112Y-62312815D02*
X49821779Y-62346148D01*
X49721779Y-62379481D01*
X49655112Y-62379481D01*
X49555112Y-62346148D01*
X49488446Y-62279481D01*
X49455112Y-62212815D01*
X49421779Y-62079481D01*
X49421779Y-61979481D01*
X49455112Y-61846148D01*
X49488446Y-61779481D01*
X49555112Y-61712815D01*
X49655112Y-61679481D01*
X49721779Y-61679481D01*
X49821779Y-61712815D01*
X49855112Y-61746148D01*
X50355112Y-61679481D02*
X50355112Y-62179481D01*
X50321779Y-62279481D01*
X50255112Y-62346148D01*
X50155112Y-62379481D01*
X50088446Y-62379481D01*
X51021779Y-62379481D02*
X50688446Y-62379481D01*
X50688446Y-61679481D01*
X51655112Y-62312815D02*
X51621779Y-62346148D01*
X51521779Y-62379481D01*
X51455112Y-62379481D01*
X51355112Y-62346148D01*
X51288446Y-62279481D01*
X51255112Y-62212815D01*
X51221779Y-62079481D01*
X51221779Y-61979481D01*
X51255112Y-61846148D01*
X51288446Y-61779481D01*
X51355112Y-61712815D01*
X51455112Y-61679481D01*
X51521779Y-61679481D01*
X51621779Y-61712815D01*
X51655112Y-61746148D01*
X45414242Y-75535378D02*
X44795194Y-75535378D01*
X45128527Y-75916331D01*
X44985670Y-75916331D01*
X44890432Y-75963950D01*
X44842813Y-76011569D01*
X44795194Y-76106807D01*
X44795194Y-76344902D01*
X44842813Y-76440140D01*
X44890432Y-76487759D01*
X44985670Y-76535378D01*
X45271385Y-76535378D01*
X45366623Y-76487759D01*
X45414242Y-76440140D01*
X44461861Y-75868712D02*
X44223766Y-76535378D01*
X43985670Y-75868712D01*
X43699956Y-75535378D02*
X43080908Y-75535378D01*
X43414242Y-75916331D01*
X43271385Y-75916331D01*
X43176146Y-75963950D01*
X43128527Y-76011569D01*
X43080908Y-76106807D01*
X43080908Y-76344902D01*
X43128527Y-76440140D01*
X43176146Y-76487759D01*
X43271385Y-76535378D01*
X43557099Y-76535378D01*
X43652337Y-76487759D01*
X43699956Y-76440140D01*
%TO.C,R16*%
X45746333Y-92457099D02*
X46079666Y-91980909D01*
X46317761Y-92457099D02*
X46317761Y-91457099D01*
X45936809Y-91457099D01*
X45841571Y-91504719D01*
X45793952Y-91552338D01*
X45746333Y-91647576D01*
X45746333Y-91790433D01*
X45793952Y-91885671D01*
X45841571Y-91933290D01*
X45936809Y-91980909D01*
X46317761Y-91980909D01*
X44793952Y-92457099D02*
X45365380Y-92457099D01*
X45079666Y-92457099D02*
X45079666Y-91457099D01*
X45174904Y-91599957D01*
X45270142Y-91695195D01*
X45365380Y-91742814D01*
X43936809Y-91457099D02*
X44127285Y-91457099D01*
X44222523Y-91504719D01*
X44270142Y-91552338D01*
X44365380Y-91695195D01*
X44412999Y-91885671D01*
X44412999Y-92266623D01*
X44365380Y-92361861D01*
X44317761Y-92409480D01*
X44222523Y-92457099D01*
X44032047Y-92457099D01*
X43936809Y-92409480D01*
X43889190Y-92361861D01*
X43841571Y-92266623D01*
X43841571Y-92028528D01*
X43889190Y-91933290D01*
X43936809Y-91885671D01*
X44032047Y-91838052D01*
X44222523Y-91838052D01*
X44317761Y-91885671D01*
X44365380Y-91933290D01*
X44412999Y-92028528D01*
%TO.C,L1*%
X49837982Y-71962342D02*
X50314173Y-71962342D01*
X50314173Y-70962342D01*
X48980839Y-71962342D02*
X49552268Y-71962342D01*
X49266554Y-71962342D02*
X49266554Y-70962342D01*
X49361792Y-71105200D01*
X49457030Y-71200438D01*
X49552268Y-71248057D01*
%TO.C,D3*%
X47948394Y-75519404D02*
X46948394Y-75519404D01*
X46948394Y-75757500D01*
X46996014Y-75900357D01*
X47091252Y-75995595D01*
X47186490Y-76043214D01*
X47376966Y-76090833D01*
X47519823Y-76090833D01*
X47710299Y-76043214D01*
X47805537Y-75995595D01*
X47900775Y-75900357D01*
X47948394Y-75757500D01*
X47948394Y-75519404D01*
X46948394Y-76424166D02*
X46948394Y-77043214D01*
X47329347Y-76709880D01*
X47329347Y-76852738D01*
X47376966Y-76947976D01*
X47424585Y-76995595D01*
X47519823Y-77043214D01*
X47757918Y-77043214D01*
X47853156Y-76995595D01*
X47900775Y-76947976D01*
X47948394Y-76852738D01*
X47948394Y-76567023D01*
X47900775Y-76471785D01*
X47853156Y-76424166D01*
%TO.C,R1*%
X47119796Y-102516643D02*
X47453130Y-102040453D01*
X47691225Y-102516643D02*
X47691225Y-101516643D01*
X47310272Y-101516643D01*
X47215034Y-101564263D01*
X47167415Y-101611882D01*
X47119796Y-101707120D01*
X47119796Y-101849977D01*
X47167415Y-101945215D01*
X47215034Y-101992834D01*
X47310272Y-102040453D01*
X47691225Y-102040453D01*
X46167415Y-102516643D02*
X46738844Y-102516643D01*
X46453130Y-102516643D02*
X46453130Y-101516643D01*
X46548368Y-101659501D01*
X46643606Y-101754739D01*
X46738844Y-101802358D01*
%TO.C,D2*%
X38014979Y-72593791D02*
X38014979Y-71593791D01*
X37776884Y-71593791D01*
X37634026Y-71641411D01*
X37538788Y-71736649D01*
X37491169Y-71831887D01*
X37443550Y-72022363D01*
X37443550Y-72165220D01*
X37491169Y-72355696D01*
X37538788Y-72450934D01*
X37634026Y-72546172D01*
X37776884Y-72593791D01*
X38014979Y-72593791D01*
X37062598Y-71689030D02*
X37014979Y-71641411D01*
X36919741Y-71593791D01*
X36681645Y-71593791D01*
X36586407Y-71641411D01*
X36538788Y-71689030D01*
X36491169Y-71784268D01*
X36491169Y-71879506D01*
X36538788Y-72022363D01*
X37110217Y-72593791D01*
X36491169Y-72593791D01*
%TO.C,R17*%
X50852380Y-91357142D02*
X50376190Y-91023809D01*
X50852380Y-90785714D02*
X49852380Y-90785714D01*
X49852380Y-91166666D01*
X49900000Y-91261904D01*
X49947619Y-91309523D01*
X50042857Y-91357142D01*
X50185714Y-91357142D01*
X50280952Y-91309523D01*
X50328571Y-91261904D01*
X50376190Y-91166666D01*
X50376190Y-90785714D01*
X50852380Y-92309523D02*
X50852380Y-91738095D01*
X50852380Y-92023809D02*
X49852380Y-92023809D01*
X49995238Y-91928571D01*
X50090476Y-91833333D01*
X50138095Y-91738095D01*
X49852380Y-92642857D02*
X49852380Y-93309523D01*
X50852380Y-92880952D01*
%TO.C,Q2*%
X49284234Y-92712229D02*
X49344226Y-92682233D01*
X49404219Y-92622241D01*
X49494208Y-92532252D01*
X49554200Y-92502256D01*
X49614193Y-92502256D01*
X49584196Y-92652237D02*
X49644189Y-92622241D01*
X49704181Y-92562248D01*
X49734178Y-92442263D01*
X49734178Y-92232289D01*
X49704181Y-92112304D01*
X49644189Y-92052312D01*
X49584196Y-92022316D01*
X49464211Y-92022316D01*
X49404219Y-92052312D01*
X49344226Y-92112304D01*
X49314230Y-92232289D01*
X49314230Y-92442263D01*
X49344226Y-92562248D01*
X49404219Y-92622241D01*
X49464211Y-92652237D01*
X49584196Y-92652237D01*
X49074260Y-92082308D02*
X49044264Y-92052312D01*
X48984272Y-92022316D01*
X48834290Y-92022316D01*
X48774298Y-92052312D01*
X48744302Y-92082308D01*
X48714305Y-92142301D01*
X48714305Y-92202293D01*
X48744302Y-92292282D01*
X49104257Y-92652237D01*
X48714305Y-92652237D01*
%TO.C,U1*%
X53512380Y-61298095D02*
X54321904Y-61298095D01*
X54417142Y-61345714D01*
X54464761Y-61393333D01*
X54512380Y-61488571D01*
X54512380Y-61679047D01*
X54464761Y-61774285D01*
X54417142Y-61821904D01*
X54321904Y-61869523D01*
X53512380Y-61869523D01*
X54512380Y-62869523D02*
X54512380Y-62298095D01*
X54512380Y-62583809D02*
X53512380Y-62583809D01*
X53655238Y-62488571D01*
X53750476Y-62393333D01*
X53798095Y-62298095D01*
%TO.C,H4*%
X60726146Y-41075072D02*
X60726146Y-40075072D01*
X60726146Y-40551263D02*
X60154718Y-40551263D01*
X60154718Y-41075072D02*
X60154718Y-40075072D01*
X59249956Y-40408406D02*
X59249956Y-41075072D01*
X59488051Y-40027453D02*
X59726146Y-40741739D01*
X59107099Y-40741739D01*
%TO.C,C11*%
X47626787Y-44312361D02*
X47674406Y-44359980D01*
X47817263Y-44407599D01*
X47912501Y-44407599D01*
X48055358Y-44359980D01*
X48150596Y-44264742D01*
X48198215Y-44169504D01*
X48245834Y-43979028D01*
X48245834Y-43836171D01*
X48198215Y-43645695D01*
X48150596Y-43550457D01*
X48055358Y-43455219D01*
X47912501Y-43407599D01*
X47817263Y-43407599D01*
X47674406Y-43455219D01*
X47626787Y-43502838D01*
X46674406Y-44407599D02*
X47245834Y-44407599D01*
X46960120Y-44407599D02*
X46960120Y-43407599D01*
X47055358Y-43550457D01*
X47150596Y-43645695D01*
X47245834Y-43693314D01*
X45722025Y-44407599D02*
X46293453Y-44407599D01*
X46007739Y-44407599D02*
X46007739Y-43407599D01*
X46102977Y-43550457D01*
X46198215Y-43645695D01*
X46293453Y-43693314D01*
%TO.C,R12*%
X48222380Y-87157142D02*
X47746190Y-86823809D01*
X48222380Y-86585714D02*
X47222380Y-86585714D01*
X47222380Y-86966666D01*
X47270000Y-87061904D01*
X47317619Y-87109523D01*
X47412857Y-87157142D01*
X47555714Y-87157142D01*
X47650952Y-87109523D01*
X47698571Y-87061904D01*
X47746190Y-86966666D01*
X47746190Y-86585714D01*
X48222380Y-88109523D02*
X48222380Y-87538095D01*
X48222380Y-87823809D02*
X47222380Y-87823809D01*
X47365238Y-87728571D01*
X47460476Y-87633333D01*
X47508095Y-87538095D01*
X47317619Y-88490476D02*
X47270000Y-88538095D01*
X47222380Y-88633333D01*
X47222380Y-88871428D01*
X47270000Y-88966666D01*
X47317619Y-89014285D01*
X47412857Y-89061904D01*
X47508095Y-89061904D01*
X47650952Y-89014285D01*
X48222380Y-88442857D01*
X48222380Y-89061904D01*
%TO.C,Y1*%
X61426726Y-49476190D02*
X61426726Y-49952380D01*
X61760059Y-48952380D02*
X61426726Y-49476190D01*
X61093393Y-48952380D01*
X60236250Y-49952380D02*
X60807678Y-49952380D01*
X60521964Y-49952380D02*
X60521964Y-48952380D01*
X60617202Y-49095238D01*
X60712440Y-49190476D01*
X60807678Y-49238095D01*
%TO.C,C10*%
X60710626Y-55693796D02*
X60758245Y-55741415D01*
X60901102Y-55789034D01*
X60996340Y-55789034D01*
X61139197Y-55741415D01*
X61234435Y-55646177D01*
X61282054Y-55550939D01*
X61329673Y-55360463D01*
X61329673Y-55217606D01*
X61282054Y-55027130D01*
X61234435Y-54931892D01*
X61139197Y-54836654D01*
X60996340Y-54789034D01*
X60901102Y-54789034D01*
X60758245Y-54836654D01*
X60710626Y-54884273D01*
X59758245Y-55789034D02*
X60329673Y-55789034D01*
X60043959Y-55789034D02*
X60043959Y-54789034D01*
X60139197Y-54931892D01*
X60234435Y-55027130D01*
X60329673Y-55074749D01*
X59139197Y-54789034D02*
X59043959Y-54789034D01*
X58948721Y-54836654D01*
X58901102Y-54884273D01*
X58853483Y-54979511D01*
X58805864Y-55169987D01*
X58805864Y-55408082D01*
X58853483Y-55598558D01*
X58901102Y-55693796D01*
X58948721Y-55741415D01*
X59043959Y-55789034D01*
X59139197Y-55789034D01*
X59234435Y-55741415D01*
X59282054Y-55693796D01*
X59329673Y-55598558D01*
X59377292Y-55408082D01*
X59377292Y-55169987D01*
X59329673Y-54979511D01*
X59282054Y-54884273D01*
X59234435Y-54836654D01*
X59139197Y-54789034D01*
%TO.C,R7*%
X49956365Y-76473333D02*
X49480175Y-76140000D01*
X49956365Y-75901904D02*
X48956365Y-75901904D01*
X48956365Y-76282857D01*
X49003985Y-76378095D01*
X49051604Y-76425714D01*
X49146842Y-76473333D01*
X49289699Y-76473333D01*
X49384937Y-76425714D01*
X49432556Y-76378095D01*
X49480175Y-76282857D01*
X49480175Y-75901904D01*
X48956365Y-76806666D02*
X48956365Y-77473333D01*
X49956365Y-77044761D01*
%TO.C,R11*%
X45351719Y-89732854D02*
X45685052Y-89256664D01*
X45923147Y-89732854D02*
X45923147Y-88732854D01*
X45542195Y-88732854D01*
X45446957Y-88780474D01*
X45399338Y-88828093D01*
X45351719Y-88923331D01*
X45351719Y-89066188D01*
X45399338Y-89161426D01*
X45446957Y-89209045D01*
X45542195Y-89256664D01*
X45923147Y-89256664D01*
X44399338Y-89732854D02*
X44970766Y-89732854D01*
X44685052Y-89732854D02*
X44685052Y-88732854D01*
X44780290Y-88875712D01*
X44875528Y-88970950D01*
X44970766Y-89018569D01*
X43446957Y-89732854D02*
X44018385Y-89732854D01*
X43732671Y-89732854D02*
X43732671Y-88732854D01*
X43827909Y-88875712D01*
X43923147Y-88970950D01*
X44018385Y-89018569D01*
%TO.C,R4*%
X45392226Y-71234193D02*
X44916036Y-70900860D01*
X45392226Y-70662764D02*
X44392226Y-70662764D01*
X44392226Y-71043717D01*
X44439846Y-71138955D01*
X44487465Y-71186574D01*
X44582703Y-71234193D01*
X44725560Y-71234193D01*
X44820798Y-71186574D01*
X44868417Y-71138955D01*
X44916036Y-71043717D01*
X44916036Y-70662764D01*
X44725560Y-72091336D02*
X45392226Y-72091336D01*
X44344607Y-71853240D02*
X45058893Y-71615145D01*
X45058893Y-72234193D01*
%TO.C,U2*%
X56836856Y-70710182D02*
X57646380Y-70710182D01*
X57741618Y-70757801D01*
X57789237Y-70805420D01*
X57836856Y-70900658D01*
X57836856Y-71091134D01*
X57789237Y-71186372D01*
X57741618Y-71233991D01*
X57646380Y-71281610D01*
X56836856Y-71281610D01*
X56932095Y-71710182D02*
X56884476Y-71757801D01*
X56836856Y-71853039D01*
X56836856Y-72091134D01*
X56884476Y-72186372D01*
X56932095Y-72233991D01*
X57027333Y-72281610D01*
X57122571Y-72281610D01*
X57265428Y-72233991D01*
X57836856Y-71662563D01*
X57836856Y-72281610D01*
%TO.C,R3*%
X37220442Y-74378653D02*
X37553776Y-73902463D01*
X37791871Y-74378653D02*
X37791871Y-73378653D01*
X37410918Y-73378653D01*
X37315680Y-73426273D01*
X37268061Y-73473892D01*
X37220442Y-73569130D01*
X37220442Y-73711987D01*
X37268061Y-73807225D01*
X37315680Y-73854844D01*
X37410918Y-73902463D01*
X37791871Y-73902463D01*
X36887109Y-73378653D02*
X36268061Y-73378653D01*
X36601395Y-73759606D01*
X36458537Y-73759606D01*
X36363299Y-73807225D01*
X36315680Y-73854844D01*
X36268061Y-73950082D01*
X36268061Y-74188177D01*
X36315680Y-74283415D01*
X36363299Y-74331034D01*
X36458537Y-74378653D01*
X36744252Y-74378653D01*
X36839490Y-74331034D01*
X36887109Y-74283415D01*
%TO.C,C1*%
X55544694Y-64429135D02*
X55592313Y-64381516D01*
X55639932Y-64238659D01*
X55639932Y-64143421D01*
X55592313Y-64000563D01*
X55497075Y-63905325D01*
X55401837Y-63857706D01*
X55211361Y-63810087D01*
X55068504Y-63810087D01*
X54878028Y-63857706D01*
X54782790Y-63905325D01*
X54687552Y-64000563D01*
X54639932Y-64143421D01*
X54639932Y-64238659D01*
X54687552Y-64381516D01*
X54735171Y-64429135D01*
X55639932Y-65381516D02*
X55639932Y-64810087D01*
X55639932Y-65095802D02*
X54639932Y-65095802D01*
X54782790Y-65000563D01*
X54878028Y-64905325D01*
X54925647Y-64810087D01*
%TO.C,C3*%
X41677142Y-59073333D02*
X41724761Y-59025714D01*
X41772380Y-58882857D01*
X41772380Y-58787619D01*
X41724761Y-58644761D01*
X41629523Y-58549523D01*
X41534285Y-58501904D01*
X41343809Y-58454285D01*
X41200952Y-58454285D01*
X41010476Y-58501904D01*
X40915238Y-58549523D01*
X40820000Y-58644761D01*
X40772380Y-58787619D01*
X40772380Y-58882857D01*
X40820000Y-59025714D01*
X40867619Y-59073333D01*
X40772380Y-59406666D02*
X40772380Y-60025714D01*
X41153333Y-59692380D01*
X41153333Y-59835238D01*
X41200952Y-59930476D01*
X41248571Y-59978095D01*
X41343809Y-60025714D01*
X41581904Y-60025714D01*
X41677142Y-59978095D01*
X41724761Y-59930476D01*
X41772380Y-59835238D01*
X41772380Y-59549523D01*
X41724761Y-59454285D01*
X41677142Y-59406666D01*
%TO.C,C9*%
X59157142Y-52033333D02*
X59204761Y-51985714D01*
X59252380Y-51842857D01*
X59252380Y-51747619D01*
X59204761Y-51604761D01*
X59109523Y-51509523D01*
X59014285Y-51461904D01*
X58823809Y-51414285D01*
X58680952Y-51414285D01*
X58490476Y-51461904D01*
X58395238Y-51509523D01*
X58300000Y-51604761D01*
X58252380Y-51747619D01*
X58252380Y-51842857D01*
X58300000Y-51985714D01*
X58347619Y-52033333D01*
X59252380Y-52509523D02*
X59252380Y-52700000D01*
X59204761Y-52795238D01*
X59157142Y-52842857D01*
X59014285Y-52938095D01*
X58823809Y-52985714D01*
X58442857Y-52985714D01*
X58347619Y-52938095D01*
X58300000Y-52890476D01*
X58252380Y-52795238D01*
X58252380Y-52604761D01*
X58300000Y-52509523D01*
X58347619Y-52461904D01*
X58442857Y-52414285D01*
X58680952Y-52414285D01*
X58776190Y-52461904D01*
X58823809Y-52509523D01*
X58871428Y-52604761D01*
X58871428Y-52795238D01*
X58823809Y-52890476D01*
X58776190Y-52938095D01*
X58680952Y-52985714D01*
%TO.C,D4*%
X58217316Y-66630432D02*
X57217316Y-66630432D01*
X57217316Y-66868528D01*
X57264936Y-67011385D01*
X57360174Y-67106623D01*
X57455412Y-67154242D01*
X57645888Y-67201861D01*
X57788745Y-67201861D01*
X57979221Y-67154242D01*
X58074459Y-67106623D01*
X58169697Y-67011385D01*
X58217316Y-66868528D01*
X58217316Y-66630432D01*
X57550650Y-68059004D02*
X58217316Y-68059004D01*
X57169697Y-67820908D02*
X57883983Y-67582813D01*
X57883983Y-68201861D01*
%TO.C,R9*%
X44025415Y-78985829D02*
X43549225Y-78652496D01*
X44025415Y-78414400D02*
X43025415Y-78414400D01*
X43025415Y-78795353D01*
X43073035Y-78890591D01*
X43120654Y-78938210D01*
X43215892Y-78985829D01*
X43358749Y-78985829D01*
X43453987Y-78938210D01*
X43501606Y-78890591D01*
X43549225Y-78795353D01*
X43549225Y-78414400D01*
X44025415Y-79462019D02*
X44025415Y-79652496D01*
X43977796Y-79747734D01*
X43930177Y-79795353D01*
X43787320Y-79890591D01*
X43596844Y-79938210D01*
X43215892Y-79938210D01*
X43120654Y-79890591D01*
X43073035Y-79842972D01*
X43025415Y-79747734D01*
X43025415Y-79557257D01*
X43073035Y-79462019D01*
X43120654Y-79414400D01*
X43215892Y-79366781D01*
X43453987Y-79366781D01*
X43549225Y-79414400D01*
X43596844Y-79462019D01*
X43644463Y-79557257D01*
X43644463Y-79747734D01*
X43596844Y-79842972D01*
X43549225Y-79890591D01*
X43453987Y-79938210D01*
%TO.C,H3*%
X60893391Y-99764727D02*
X60893391Y-98764727D01*
X60893391Y-99240918D02*
X60321963Y-99240918D01*
X60321963Y-99764727D02*
X60321963Y-98764727D01*
X59941010Y-98764727D02*
X59321963Y-98764727D01*
X59655296Y-99145680D01*
X59512439Y-99145680D01*
X59417201Y-99193299D01*
X59369582Y-99240918D01*
X59321963Y-99336156D01*
X59321963Y-99574251D01*
X59369582Y-99669489D01*
X59417201Y-99717108D01*
X59512439Y-99764727D01*
X59798153Y-99764727D01*
X59893391Y-99717108D01*
X59941010Y-99669489D01*
%TO.C,C13*%
X39035280Y-47845138D02*
X39082899Y-47892757D01*
X39225756Y-47940376D01*
X39320994Y-47940376D01*
X39463851Y-47892757D01*
X39559089Y-47797519D01*
X39606708Y-47702281D01*
X39654327Y-47511805D01*
X39654327Y-47368948D01*
X39606708Y-47178472D01*
X39559089Y-47083234D01*
X39463851Y-46987996D01*
X39320994Y-46940376D01*
X39225756Y-46940376D01*
X39082899Y-46987996D01*
X39035280Y-47035615D01*
X38082899Y-47940376D02*
X38654327Y-47940376D01*
X38368613Y-47940376D02*
X38368613Y-46940376D01*
X38463851Y-47083234D01*
X38559089Y-47178472D01*
X38654327Y-47226091D01*
X37749565Y-46940376D02*
X37130518Y-46940376D01*
X37463851Y-47321329D01*
X37320994Y-47321329D01*
X37225756Y-47368948D01*
X37178137Y-47416567D01*
X37130518Y-47511805D01*
X37130518Y-47749900D01*
X37178137Y-47845138D01*
X37225756Y-47892757D01*
X37320994Y-47940376D01*
X37606708Y-47940376D01*
X37701946Y-47892757D01*
X37749565Y-47845138D01*
%TO.C,C14*%
X38895837Y-49462670D02*
X38943456Y-49510289D01*
X39086313Y-49557908D01*
X39181551Y-49557908D01*
X39324408Y-49510289D01*
X39419646Y-49415051D01*
X39467265Y-49319813D01*
X39514884Y-49129337D01*
X39514884Y-48986480D01*
X39467265Y-48796004D01*
X39419646Y-48700766D01*
X39324408Y-48605528D01*
X39181551Y-48557908D01*
X39086313Y-48557908D01*
X38943456Y-48605528D01*
X38895837Y-48653147D01*
X37943456Y-49557908D02*
X38514884Y-49557908D01*
X38229170Y-49557908D02*
X38229170Y-48557908D01*
X38324408Y-48700766D01*
X38419646Y-48796004D01*
X38514884Y-48843623D01*
X37086313Y-48891242D02*
X37086313Y-49557908D01*
X37324408Y-48510289D02*
X37562503Y-49224575D01*
X36943456Y-49224575D01*
%TO.C,U4*%
X38030227Y-62521389D02*
X38839751Y-62521389D01*
X38934989Y-62569008D01*
X38982608Y-62616627D01*
X39030227Y-62711865D01*
X39030227Y-62902341D01*
X38982608Y-62997579D01*
X38934989Y-63045198D01*
X38839751Y-63092817D01*
X38030227Y-63092817D01*
X38363561Y-63997579D02*
X39030227Y-63997579D01*
X37982608Y-63759484D02*
X38696894Y-63521389D01*
X38696894Y-64140436D01*
%TO.C,C8*%
X54283447Y-68121864D02*
X54331066Y-68074245D01*
X54378685Y-67931388D01*
X54378685Y-67836150D01*
X54331066Y-67693292D01*
X54235828Y-67598054D01*
X54140590Y-67550435D01*
X53950114Y-67502816D01*
X53807257Y-67502816D01*
X53616781Y-67550435D01*
X53521543Y-67598054D01*
X53426305Y-67693292D01*
X53378685Y-67836150D01*
X53378685Y-67931388D01*
X53426305Y-68074245D01*
X53473924Y-68121864D01*
X53807257Y-68693292D02*
X53759638Y-68598054D01*
X53712019Y-68550435D01*
X53616781Y-68502816D01*
X53569162Y-68502816D01*
X53473924Y-68550435D01*
X53426305Y-68598054D01*
X53378685Y-68693292D01*
X53378685Y-68883769D01*
X53426305Y-68979007D01*
X53473924Y-69026626D01*
X53569162Y-69074245D01*
X53616781Y-69074245D01*
X53712019Y-69026626D01*
X53759638Y-68979007D01*
X53807257Y-68883769D01*
X53807257Y-68693292D01*
X53854876Y-68598054D01*
X53902495Y-68550435D01*
X53997733Y-68502816D01*
X54188209Y-68502816D01*
X54283447Y-68550435D01*
X54331066Y-68598054D01*
X54378685Y-68693292D01*
X54378685Y-68883769D01*
X54331066Y-68979007D01*
X54283447Y-69026626D01*
X54188209Y-69074245D01*
X53997733Y-69074245D01*
X53902495Y-69026626D01*
X53854876Y-68979007D01*
X53807257Y-68883769D01*
%TO.C,C4*%
X51973447Y-68928828D02*
X52021066Y-68976447D01*
X52163923Y-69024066D01*
X52259161Y-69024066D01*
X52402019Y-68976447D01*
X52497257Y-68881209D01*
X52544876Y-68785971D01*
X52592495Y-68595495D01*
X52592495Y-68452638D01*
X52544876Y-68262162D01*
X52497257Y-68166924D01*
X52402019Y-68071686D01*
X52259161Y-68024066D01*
X52163923Y-68024066D01*
X52021066Y-68071686D01*
X51973447Y-68119305D01*
X51116304Y-68357400D02*
X51116304Y-69024066D01*
X51354400Y-67976447D02*
X51592495Y-68690733D01*
X50973447Y-68690733D01*
%TO.C,R2*%
X37359884Y-76163516D02*
X37693218Y-75687326D01*
X37931313Y-76163516D02*
X37931313Y-75163516D01*
X37550360Y-75163516D01*
X37455122Y-75211136D01*
X37407503Y-75258755D01*
X37359884Y-75353993D01*
X37359884Y-75496850D01*
X37407503Y-75592088D01*
X37455122Y-75639707D01*
X37550360Y-75687326D01*
X37931313Y-75687326D01*
X36978932Y-75258755D02*
X36931313Y-75211136D01*
X36836075Y-75163516D01*
X36597979Y-75163516D01*
X36502741Y-75211136D01*
X36455122Y-75258755D01*
X36407503Y-75353993D01*
X36407503Y-75449231D01*
X36455122Y-75592088D01*
X37026551Y-76163516D01*
X36407503Y-76163516D01*
%TO.C,H1*%
X35806456Y-99792140D02*
X35806456Y-98792140D01*
X35806456Y-99268331D02*
X35235028Y-99268331D01*
X35235028Y-99792140D02*
X35235028Y-98792140D01*
X34235028Y-99792140D02*
X34806456Y-99792140D01*
X34520742Y-99792140D02*
X34520742Y-98792140D01*
X34615980Y-98934998D01*
X34711218Y-99030236D01*
X34806456Y-99077855D01*
D12*
%TO.C,IC2*%
X36005071Y-56621942D02*
X36005071Y-56141942D01*
X35502214Y-56576228D02*
X35525071Y-56599085D01*
X35593642Y-56621942D01*
X35639357Y-56621942D01*
X35707928Y-56599085D01*
X35753642Y-56553371D01*
X35776500Y-56507657D01*
X35799357Y-56416228D01*
X35799357Y-56347657D01*
X35776500Y-56256228D01*
X35753642Y-56210514D01*
X35707928Y-56164800D01*
X35639357Y-56141942D01*
X35593642Y-56141942D01*
X35525071Y-56164800D01*
X35502214Y-56187657D01*
X35319357Y-56187657D02*
X35296500Y-56164800D01*
X35250785Y-56141942D01*
X35136500Y-56141942D01*
X35090785Y-56164800D01*
X35067928Y-56187657D01*
X35045071Y-56233371D01*
X35045071Y-56279085D01*
X35067928Y-56347657D01*
X35342214Y-56621942D01*
X35045071Y-56621942D01*
D10*
%TO.C,C17*%
X55133657Y-51568186D02*
X55181276Y-51520567D01*
X55228895Y-51377710D01*
X55228895Y-51282472D01*
X55181276Y-51139615D01*
X55086038Y-51044377D01*
X54990800Y-50996758D01*
X54800324Y-50949139D01*
X54657467Y-50949139D01*
X54466991Y-50996758D01*
X54371753Y-51044377D01*
X54276515Y-51139615D01*
X54228895Y-51282472D01*
X54228895Y-51377710D01*
X54276515Y-51520567D01*
X54324134Y-51568186D01*
X55228895Y-52520567D02*
X55228895Y-51949139D01*
X55228895Y-52234853D02*
X54228895Y-52234853D01*
X54371753Y-52139615D01*
X54466991Y-52044377D01*
X54514610Y-51949139D01*
X54228895Y-52853901D02*
X54228895Y-53520567D01*
X55228895Y-53091996D01*
%TO.C,R6*%
X57045149Y-55751849D02*
X57378483Y-55275659D01*
X57616578Y-55751849D02*
X57616578Y-54751849D01*
X57235625Y-54751849D01*
X57140387Y-54799469D01*
X57092768Y-54847088D01*
X57045149Y-54942326D01*
X57045149Y-55085183D01*
X57092768Y-55180421D01*
X57140387Y-55228040D01*
X57235625Y-55275659D01*
X57616578Y-55275659D01*
X56188006Y-54751849D02*
X56378483Y-54751849D01*
X56473721Y-54799469D01*
X56521340Y-54847088D01*
X56616578Y-54989945D01*
X56664197Y-55180421D01*
X56664197Y-55561373D01*
X56616578Y-55656611D01*
X56568959Y-55704230D01*
X56473721Y-55751849D01*
X56283244Y-55751849D01*
X56188006Y-55704230D01*
X56140387Y-55656611D01*
X56092768Y-55561373D01*
X56092768Y-55323278D01*
X56140387Y-55228040D01*
X56188006Y-55180421D01*
X56283244Y-55132802D01*
X56473721Y-55132802D01*
X56568959Y-55180421D01*
X56616578Y-55228040D01*
X56664197Y-55323278D01*
%TO.C,R15*%
X45861759Y-97156182D02*
X46195092Y-96679992D01*
X46433187Y-97156182D02*
X46433187Y-96156182D01*
X46052235Y-96156182D01*
X45956997Y-96203802D01*
X45909378Y-96251421D01*
X45861759Y-96346659D01*
X45861759Y-96489516D01*
X45909378Y-96584754D01*
X45956997Y-96632373D01*
X46052235Y-96679992D01*
X46433187Y-96679992D01*
X44909378Y-97156182D02*
X45480806Y-97156182D01*
X45195092Y-97156182D02*
X45195092Y-96156182D01*
X45290330Y-96299040D01*
X45385568Y-96394278D01*
X45480806Y-96441897D01*
X44004616Y-96156182D02*
X44480806Y-96156182D01*
X44528425Y-96632373D01*
X44480806Y-96584754D01*
X44385568Y-96537135D01*
X44147473Y-96537135D01*
X44052235Y-96584754D01*
X44004616Y-96632373D01*
X43956997Y-96727611D01*
X43956997Y-96965706D01*
X44004616Y-97060944D01*
X44052235Y-97108563D01*
X44147473Y-97156182D01*
X44385568Y-97156182D01*
X44480806Y-97108563D01*
X44528425Y-97060944D01*
%TO.C,C12*%
X47326603Y-50205027D02*
X47374222Y-50157408D01*
X47421841Y-50014551D01*
X47421841Y-49919313D01*
X47374222Y-49776456D01*
X47278984Y-49681218D01*
X47183746Y-49633599D01*
X46993270Y-49585980D01*
X46850413Y-49585980D01*
X46659937Y-49633599D01*
X46564699Y-49681218D01*
X46469461Y-49776456D01*
X46421841Y-49919313D01*
X46421841Y-50014551D01*
X46469461Y-50157408D01*
X46517080Y-50205027D01*
X47421841Y-51157408D02*
X47421841Y-50585980D01*
X47421841Y-50871694D02*
X46421841Y-50871694D01*
X46564699Y-50776456D01*
X46659937Y-50681218D01*
X46707556Y-50585980D01*
X46517080Y-51538361D02*
X46469461Y-51585980D01*
X46421841Y-51681218D01*
X46421841Y-51919313D01*
X46469461Y-52014551D01*
X46517080Y-52062170D01*
X46612318Y-52109789D01*
X46707556Y-52109789D01*
X46850413Y-52062170D01*
X47421841Y-51490742D01*
X47421841Y-52109789D01*
%TO.C,D1*%
X38154421Y-78087821D02*
X38154421Y-77087821D01*
X37916326Y-77087821D01*
X37773468Y-77135441D01*
X37678230Y-77230679D01*
X37630611Y-77325917D01*
X37582992Y-77516393D01*
X37582992Y-77659250D01*
X37630611Y-77849726D01*
X37678230Y-77944964D01*
X37773468Y-78040202D01*
X37916326Y-78087821D01*
X38154421Y-78087821D01*
X36630611Y-78087821D02*
X37202040Y-78087821D01*
X36916326Y-78087821D02*
X36916326Y-77087821D01*
X37011564Y-77230679D01*
X37106802Y-77325917D01*
X37202040Y-77373536D01*
%TO.C,C2*%
X51172735Y-55397142D02*
X51220354Y-55444761D01*
X51363211Y-55492380D01*
X51458449Y-55492380D01*
X51601307Y-55444761D01*
X51696545Y-55349523D01*
X51744164Y-55254285D01*
X51791783Y-55063809D01*
X51791783Y-54920952D01*
X51744164Y-54730476D01*
X51696545Y-54635238D01*
X51601307Y-54540000D01*
X51458449Y-54492380D01*
X51363211Y-54492380D01*
X51220354Y-54540000D01*
X51172735Y-54587619D01*
X50791783Y-54587619D02*
X50744164Y-54540000D01*
X50648926Y-54492380D01*
X50410830Y-54492380D01*
X50315592Y-54540000D01*
X50267973Y-54587619D01*
X50220354Y-54682857D01*
X50220354Y-54778095D01*
X50267973Y-54920952D01*
X50839402Y-55492380D01*
X50220354Y-55492380D01*
%TO.C,C7*%
X54311335Y-74094268D02*
X54358954Y-74046649D01*
X54406573Y-73903792D01*
X54406573Y-73808554D01*
X54358954Y-73665696D01*
X54263716Y-73570458D01*
X54168478Y-73522839D01*
X53978002Y-73475220D01*
X53835145Y-73475220D01*
X53644669Y-73522839D01*
X53549431Y-73570458D01*
X53454193Y-73665696D01*
X53406573Y-73808554D01*
X53406573Y-73903792D01*
X53454193Y-74046649D01*
X53501812Y-74094268D01*
X53406573Y-74427601D02*
X53406573Y-75094268D01*
X54406573Y-74665696D01*
%TO.C,C5*%
X46026556Y-72015843D02*
X46074175Y-72063462D01*
X46217032Y-72111081D01*
X46312270Y-72111081D01*
X46455128Y-72063462D01*
X46550366Y-71968224D01*
X46597985Y-71872986D01*
X46645604Y-71682510D01*
X46645604Y-71539653D01*
X46597985Y-71349177D01*
X46550366Y-71253939D01*
X46455128Y-71158701D01*
X46312270Y-71111081D01*
X46217032Y-71111081D01*
X46074175Y-71158701D01*
X46026556Y-71206320D01*
X45121794Y-71111081D02*
X45597985Y-71111081D01*
X45645604Y-71587272D01*
X45597985Y-71539653D01*
X45502747Y-71492034D01*
X45264651Y-71492034D01*
X45169413Y-71539653D01*
X45121794Y-71587272D01*
X45074175Y-71682510D01*
X45074175Y-71920605D01*
X45121794Y-72015843D01*
X45169413Y-72063462D01*
X45264651Y-72111081D01*
X45502747Y-72111081D01*
X45597985Y-72063462D01*
X45645604Y-72015843D01*
D13*
%TO.C,IC1*%
X50787388Y-48559006D02*
X50550716Y-48559006D01*
X50764848Y-48806948D02*
X50776118Y-48795678D01*
X50787388Y-48761867D01*
X50787388Y-48739327D01*
X50776118Y-48705517D01*
X50753578Y-48682977D01*
X50731038Y-48671707D01*
X50685958Y-48660436D01*
X50652147Y-48660436D01*
X50607067Y-48671707D01*
X50584527Y-48682977D01*
X50561987Y-48705517D01*
X50550716Y-48739327D01*
X50550716Y-48761867D01*
X50561987Y-48795678D01*
X50573257Y-48806948D01*
X50787388Y-49032350D02*
X50787388Y-48897108D01*
X50787388Y-48964729D02*
X50550716Y-48964729D01*
X50584527Y-48942189D01*
X50607067Y-48919649D01*
X50618337Y-48897108D01*
D10*
%TO.C,R10*%
X45242857Y-86027865D02*
X45576190Y-85551675D01*
X45814285Y-86027865D02*
X45814285Y-85027865D01*
X45433333Y-85027865D01*
X45338095Y-85075485D01*
X45290476Y-85123104D01*
X45242857Y-85218342D01*
X45242857Y-85361199D01*
X45290476Y-85456437D01*
X45338095Y-85504056D01*
X45433333Y-85551675D01*
X45814285Y-85551675D01*
X44290476Y-86027865D02*
X44861904Y-86027865D01*
X44576190Y-86027865D02*
X44576190Y-85027865D01*
X44671428Y-85170723D01*
X44766666Y-85265961D01*
X44861904Y-85313580D01*
X43671428Y-85027865D02*
X43576190Y-85027865D01*
X43480952Y-85075485D01*
X43433333Y-85123104D01*
X43385714Y-85218342D01*
X43338095Y-85408818D01*
X43338095Y-85646913D01*
X43385714Y-85837389D01*
X43433333Y-85932627D01*
X43480952Y-85980246D01*
X43576190Y-86027865D01*
X43671428Y-86027865D01*
X43766666Y-85980246D01*
X43814285Y-85932627D01*
X43861904Y-85837389D01*
X43909523Y-85646913D01*
X43909523Y-85408818D01*
X43861904Y-85218342D01*
X43814285Y-85123104D01*
X43766666Y-85075485D01*
X43671428Y-85027865D01*
%TO.C,R14*%
X45610205Y-91479364D02*
X45943538Y-91003174D01*
X46181633Y-91479364D02*
X46181633Y-90479364D01*
X45800681Y-90479364D01*
X45705443Y-90526984D01*
X45657824Y-90574603D01*
X45610205Y-90669841D01*
X45610205Y-90812698D01*
X45657824Y-90907936D01*
X45705443Y-90955555D01*
X45800681Y-91003174D01*
X46181633Y-91003174D01*
X44657824Y-91479364D02*
X45229252Y-91479364D01*
X44943538Y-91479364D02*
X44943538Y-90479364D01*
X45038776Y-90622222D01*
X45134014Y-90717460D01*
X45229252Y-90765079D01*
X43800681Y-90812698D02*
X43800681Y-91479364D01*
X44038776Y-90431745D02*
X44276871Y-91146031D01*
X43657824Y-91146031D01*
%TO.C,C6*%
X47997342Y-71904289D02*
X48044961Y-71951908D01*
X48187818Y-71999527D01*
X48283056Y-71999527D01*
X48425914Y-71951908D01*
X48521152Y-71856670D01*
X48568771Y-71761432D01*
X48616390Y-71570956D01*
X48616390Y-71428099D01*
X48568771Y-71237623D01*
X48521152Y-71142385D01*
X48425914Y-71047147D01*
X48283056Y-70999527D01*
X48187818Y-70999527D01*
X48044961Y-71047147D01*
X47997342Y-71094766D01*
X47140199Y-70999527D02*
X47330676Y-70999527D01*
X47425914Y-71047147D01*
X47473533Y-71094766D01*
X47568771Y-71237623D01*
X47616390Y-71428099D01*
X47616390Y-71809051D01*
X47568771Y-71904289D01*
X47521152Y-71951908D01*
X47425914Y-71999527D01*
X47235437Y-71999527D01*
X47140199Y-71951908D01*
X47092580Y-71904289D01*
X47044961Y-71809051D01*
X47044961Y-71570956D01*
X47092580Y-71475718D01*
X47140199Y-71428099D01*
X47235437Y-71380480D01*
X47425914Y-71380480D01*
X47521152Y-71428099D01*
X47568771Y-71475718D01*
X47616390Y-71570956D01*
%TO.C,C15*%
X62065177Y-75000577D02*
X62112796Y-75048196D01*
X62255653Y-75095815D01*
X62350891Y-75095815D01*
X62493748Y-75048196D01*
X62588986Y-74952958D01*
X62636605Y-74857720D01*
X62684224Y-74667244D01*
X62684224Y-74524387D01*
X62636605Y-74333911D01*
X62588986Y-74238673D01*
X62493748Y-74143435D01*
X62350891Y-74095815D01*
X62255653Y-74095815D01*
X62112796Y-74143435D01*
X62065177Y-74191054D01*
X61112796Y-75095815D02*
X61684224Y-75095815D01*
X61398510Y-75095815D02*
X61398510Y-74095815D01*
X61493748Y-74238673D01*
X61588986Y-74333911D01*
X61684224Y-74381530D01*
X60208034Y-74095815D02*
X60684224Y-74095815D01*
X60731843Y-74572006D01*
X60684224Y-74524387D01*
X60588986Y-74476768D01*
X60350891Y-74476768D01*
X60255653Y-74524387D01*
X60208034Y-74572006D01*
X60160415Y-74667244D01*
X60160415Y-74905339D01*
X60208034Y-75000577D01*
X60255653Y-75048196D01*
X60350891Y-75095815D01*
X60588986Y-75095815D01*
X60684224Y-75048196D01*
X60731843Y-75000577D01*
%TO.C,J4*%
X56669880Y-60126666D02*
X57384166Y-60126666D01*
X57527023Y-60079047D01*
X57622261Y-59983809D01*
X57669880Y-59840952D01*
X57669880Y-59745714D01*
X57003214Y-61031428D02*
X57669880Y-61031428D01*
X56622261Y-60793333D02*
X57336547Y-60555238D01*
X57336547Y-61174285D01*
%TO.C,R13*%
X49531539Y-87557142D02*
X49055349Y-87223809D01*
X49531539Y-86985714D02*
X48531539Y-86985714D01*
X48531539Y-87366666D01*
X48579159Y-87461904D01*
X48626778Y-87509523D01*
X48722016Y-87557142D01*
X48864873Y-87557142D01*
X48960111Y-87509523D01*
X49007730Y-87461904D01*
X49055349Y-87366666D01*
X49055349Y-86985714D01*
X49531539Y-88509523D02*
X49531539Y-87938095D01*
X49531539Y-88223809D02*
X48531539Y-88223809D01*
X48674397Y-88128571D01*
X48769635Y-88033333D01*
X48817254Y-87938095D01*
X48531539Y-88842857D02*
X48531539Y-89461904D01*
X48912492Y-89128571D01*
X48912492Y-89271428D01*
X48960111Y-89366666D01*
X49007730Y-89414285D01*
X49102968Y-89461904D01*
X49341063Y-89461904D01*
X49436301Y-89414285D01*
X49483920Y-89366666D01*
X49531539Y-89271428D01*
X49531539Y-88985714D01*
X49483920Y-88890476D01*
X49436301Y-88842857D01*
%TO.C,R8*%
X45452380Y-78913333D02*
X44976190Y-78580000D01*
X45452380Y-78341904D02*
X44452380Y-78341904D01*
X44452380Y-78722857D01*
X44500000Y-78818095D01*
X44547619Y-78865714D01*
X44642857Y-78913333D01*
X44785714Y-78913333D01*
X44880952Y-78865714D01*
X44928571Y-78818095D01*
X44976190Y-78722857D01*
X44976190Y-78341904D01*
X44880952Y-79484761D02*
X44833333Y-79389523D01*
X44785714Y-79341904D01*
X44690476Y-79294285D01*
X44642857Y-79294285D01*
X44547619Y-79341904D01*
X44500000Y-79389523D01*
X44452380Y-79484761D01*
X44452380Y-79675238D01*
X44500000Y-79770476D01*
X44547619Y-79818095D01*
X44642857Y-79865714D01*
X44690476Y-79865714D01*
X44785714Y-79818095D01*
X44833333Y-79770476D01*
X44880952Y-79675238D01*
X44880952Y-79484761D01*
X44928571Y-79389523D01*
X44976190Y-79341904D01*
X45071428Y-79294285D01*
X45261904Y-79294285D01*
X45357142Y-79341904D01*
X45404761Y-79389523D01*
X45452380Y-79484761D01*
X45452380Y-79675238D01*
X45404761Y-79770476D01*
X45357142Y-79818095D01*
X45261904Y-79865714D01*
X45071428Y-79865714D01*
X44976190Y-79818095D01*
X44928571Y-79770476D01*
X44880952Y-79675238D01*
%TO.C,Q1*%
X60595238Y-80547619D02*
X60690476Y-80500000D01*
X60785714Y-80404761D01*
X60928571Y-80261904D01*
X61023809Y-80214285D01*
X61119047Y-80214285D01*
X61071428Y-80452380D02*
X61166666Y-80404761D01*
X61261904Y-80309523D01*
X61309523Y-80119047D01*
X61309523Y-79785714D01*
X61261904Y-79595238D01*
X61166666Y-79500000D01*
X61071428Y-79452380D01*
X60880952Y-79452380D01*
X60785714Y-79500000D01*
X60690476Y-79595238D01*
X60642857Y-79785714D01*
X60642857Y-80119047D01*
X60690476Y-80309523D01*
X60785714Y-80404761D01*
X60880952Y-80452380D01*
X61071428Y-80452380D01*
X59690476Y-80452380D02*
X60261904Y-80452380D01*
X59976190Y-80452380D02*
X59976190Y-79452380D01*
X60071428Y-79595238D01*
X60166666Y-79690476D01*
X60261904Y-79738095D01*
%TO.C,C16*%
X51212857Y-45077142D02*
X51260476Y-45124761D01*
X51403333Y-45172380D01*
X51498571Y-45172380D01*
X51641428Y-45124761D01*
X51736666Y-45029523D01*
X51784285Y-44934285D01*
X51831904Y-44743809D01*
X51831904Y-44600952D01*
X51784285Y-44410476D01*
X51736666Y-44315238D01*
X51641428Y-44220000D01*
X51498571Y-44172380D01*
X51403333Y-44172380D01*
X51260476Y-44220000D01*
X51212857Y-44267619D01*
X50260476Y-45172380D02*
X50831904Y-45172380D01*
X50546190Y-45172380D02*
X50546190Y-44172380D01*
X50641428Y-44315238D01*
X50736666Y-44410476D01*
X50831904Y-44458095D01*
X49403333Y-44172380D02*
X49593809Y-44172380D01*
X49689047Y-44220000D01*
X49736666Y-44267619D01*
X49831904Y-44410476D01*
X49879523Y-44600952D01*
X49879523Y-44981904D01*
X49831904Y-45077142D01*
X49784285Y-45124761D01*
X49689047Y-45172380D01*
X49498571Y-45172380D01*
X49403333Y-45124761D01*
X49355714Y-45077142D01*
X49308095Y-44981904D01*
X49308095Y-44743809D01*
X49355714Y-44648571D01*
X49403333Y-44600952D01*
X49498571Y-44553333D01*
X49689047Y-44553333D01*
X49784285Y-44600952D01*
X49831904Y-44648571D01*
X49879523Y-44743809D01*
%TO.C,H2*%
X35608573Y-40939899D02*
X35608573Y-39939899D01*
X35608573Y-40416090D02*
X35037145Y-40416090D01*
X35037145Y-40939899D02*
X35037145Y-39939899D01*
X34608573Y-40035138D02*
X34560954Y-39987519D01*
X34465716Y-39939899D01*
X34227621Y-39939899D01*
X34132383Y-39987519D01*
X34084764Y-40035138D01*
X34037145Y-40130376D01*
X34037145Y-40225614D01*
X34084764Y-40368471D01*
X34656192Y-40939899D01*
X34037145Y-40939899D01*
D12*
%TO.C,R16*%
X45281250Y-90330775D02*
X44973968Y-90330775D01*
X45281250Y-91090775D02*
X44973968Y-91090775D01*
%TO.C,D3*%
X46550000Y-77600000D02*
X46550000Y-74915000D01*
X46550000Y-74915000D02*
X48470000Y-74915000D01*
X48470000Y-74915000D02*
X48470000Y-77600000D01*
%TO.C,R1*%
X46799489Y-101274263D02*
X47106771Y-101274263D01*
X46799489Y-100514263D02*
X47106771Y-100514263D01*
%TO.C,D2*%
X35300000Y-73070000D02*
X32615000Y-73070000D01*
X32615000Y-71150000D02*
X35300000Y-71150000D01*
X32615000Y-73070000D02*
X32615000Y-71150000D01*
%TO.C,R17*%
X49892392Y-91767236D02*
X49892392Y-92074518D01*
X50652392Y-91767236D02*
X50652392Y-92074518D01*
D14*
%TO.C,Q2*%
X47024242Y-91077273D02*
G75*
G03*
X47024242Y-91077273I-100000J0D01*
G01*
D12*
%TO.C,U1*%
X51820000Y-65670000D02*
X51370000Y-65670000D01*
X44600000Y-65670000D02*
X45050000Y-65670000D01*
X44600000Y-58450000D02*
X45050000Y-58450000D01*
X51820000Y-58900000D02*
X51820000Y-58450000D01*
X51820000Y-65220000D02*
X51820000Y-65670000D01*
X44600000Y-65220000D02*
X44600000Y-65670000D01*
X51370000Y-65670000D02*
X51370000Y-66960000D01*
X51820000Y-58450000D02*
X51370000Y-58450000D01*
X44600000Y-58900000D02*
X44600000Y-58450000D01*
%TO.C,C11*%
X47091766Y-44755219D02*
X46876094Y-44755219D01*
X47091766Y-45475219D02*
X46876094Y-45475219D01*
%TO.C,R12*%
X46980000Y-87953641D02*
X46980000Y-87646359D01*
X46220000Y-87953641D02*
X46220000Y-87646359D01*
%TO.C,Y1*%
X58950536Y-50224328D02*
X62950536Y-50224328D01*
X58950536Y-53524328D02*
X58950536Y-50224328D01*
%TO.C,C10*%
X60067769Y-53889769D02*
X59852097Y-53889769D01*
X60067769Y-54609769D02*
X59852097Y-54609769D01*
%TO.C,R7*%
X50062500Y-76877258D02*
X50062500Y-76402742D01*
X49017500Y-76877258D02*
X49017500Y-76402742D01*
%TO.C,R11*%
X44708862Y-89768403D02*
X44234346Y-89768403D01*
X44708862Y-88723403D02*
X44234346Y-88723403D01*
%TO.C,R4*%
X43389846Y-71554501D02*
X43389846Y-71247219D01*
X44149846Y-71554501D02*
X44149846Y-71247219D01*
%TO.C,U2*%
X62224503Y-69204412D02*
X59504503Y-69204412D01*
X58364503Y-73694412D02*
X59504503Y-73694412D01*
X59504503Y-73924412D02*
X59504503Y-73694412D01*
X62224503Y-70514412D02*
X62224503Y-69204412D01*
X59504503Y-73924412D02*
X62224503Y-73924412D01*
X62224503Y-73924412D02*
X62224503Y-72614412D01*
X59504503Y-69204412D02*
X59504503Y-69434412D01*
%TO.C,R3*%
X34052742Y-73517500D02*
X34527258Y-73517500D01*
X34052742Y-74562500D02*
X34527258Y-74562500D01*
%TO.C,C1*%
X53667552Y-64703638D02*
X53667552Y-64487966D01*
X54387552Y-64703638D02*
X54387552Y-64487966D01*
%TO.C,C3*%
X42840000Y-59132164D02*
X42840000Y-59347836D01*
X42120000Y-59132164D02*
X42120000Y-59347836D01*
%TO.C,C9*%
X57860000Y-51642164D02*
X57860000Y-51857836D01*
X58580000Y-51642164D02*
X58580000Y-51857836D01*
%TO.C,D4*%
X62889247Y-66467548D02*
X62889247Y-68467548D01*
X62889247Y-68467548D02*
X58989247Y-68467548D01*
X62889247Y-66467548D02*
X58989247Y-66467548D01*
%TO.C,R9*%
X43014744Y-79389754D02*
X43014744Y-78915238D01*
X44059744Y-79389754D02*
X44059744Y-78915238D01*
%TO.C,C13*%
X35767968Y-47824096D02*
X35552296Y-47824096D01*
X35767968Y-48544096D02*
X35552296Y-48544096D01*
%TO.C,C14*%
X35732761Y-48907990D02*
X35517089Y-48907990D01*
X35732761Y-49627990D02*
X35517089Y-49627990D01*
%TO.C,U4*%
X37482847Y-66008294D02*
X37482847Y-67683294D01*
X37742847Y-60558294D02*
X37482847Y-60558294D01*
X37742847Y-66008294D02*
X37482847Y-66008294D01*
X37742847Y-63283294D02*
X37742847Y-66008294D01*
X32292847Y-63283294D02*
X32292847Y-66008294D01*
X32292847Y-60558294D02*
X32552847Y-60558294D01*
X32292847Y-63283294D02*
X32292847Y-60558294D01*
X32292847Y-66008294D02*
X32552847Y-66008294D01*
X37742847Y-63283294D02*
X37742847Y-60558294D01*
%TO.C,C8*%
X56780000Y-68999783D02*
X56780000Y-67577279D01*
X54960000Y-68999783D02*
X54960000Y-67577279D01*
%TO.C,C4*%
X51710000Y-66782164D02*
X51710000Y-66997836D01*
X52430000Y-66782164D02*
X52430000Y-66997836D01*
%TO.C,R2*%
X34062742Y-76192500D02*
X34537258Y-76192500D01*
X34062742Y-75147500D02*
X34537258Y-75147500D01*
D15*
%TO.C,IC2*%
X36432500Y-55819000D02*
X37312500Y-55819000D01*
X34312500Y-50581000D02*
X35192500Y-50581000D01*
X34312500Y-55819000D02*
X35192500Y-55819000D01*
X36432500Y-50581000D02*
X37312500Y-50581000D01*
D14*
X33912500Y-55300000D02*
G75*
G03*
X33912500Y-55300000I-100000J0D01*
G01*
D12*
%TO.C,C17*%
X55576515Y-52103208D02*
X55576515Y-52318880D01*
X56296515Y-52103208D02*
X56296515Y-52318880D01*
%TO.C,R6*%
X58073641Y-53840000D02*
X57766359Y-53840000D01*
X58073641Y-54600000D02*
X57766359Y-54600000D01*
%TO.C,R15*%
X45437258Y-95622500D02*
X44962742Y-95622500D01*
X45437258Y-94577500D02*
X44962742Y-94577500D01*
%TO.C,C12*%
X48489461Y-50740049D02*
X48489461Y-50955721D01*
X47769461Y-50740049D02*
X47769461Y-50955721D01*
%TO.C,D1*%
X35370000Y-78560000D02*
X32685000Y-78560000D01*
X32685000Y-78560000D02*
X32685000Y-76640000D01*
X32685000Y-76640000D02*
X35370000Y-76640000D01*
%TO.C,C2*%
X51113905Y-56560000D02*
X50898233Y-56560000D01*
X51113905Y-55840000D02*
X50898233Y-55840000D01*
%TO.C,C7*%
X56840000Y-75141252D02*
X56840000Y-73718748D01*
X55020000Y-75141252D02*
X55020000Y-73718748D01*
%TO.C,C5*%
X46940000Y-73112164D02*
X46940000Y-73327836D01*
X46220000Y-73112164D02*
X46220000Y-73327836D01*
%TO.C,R10*%
X44362742Y-86022500D02*
X44837258Y-86022500D01*
X44362742Y-84977500D02*
X44837258Y-84977500D01*
%TO.C,R14*%
X44862742Y-91977500D02*
X45337258Y-91977500D01*
X44862742Y-93022500D02*
X45337258Y-93022500D01*
%TO.C,C6*%
X48120000Y-73162164D02*
X48120000Y-73377836D01*
X47400000Y-73162164D02*
X47400000Y-73377836D01*
%TO.C,C15*%
X58811145Y-74970715D02*
X59026817Y-74970715D01*
X58811145Y-74250715D02*
X59026817Y-74250715D01*
%TO.C,J4*%
X58017500Y-58760000D02*
X58467500Y-58760000D01*
X60417500Y-56560000D02*
X58567500Y-56560000D01*
X58567500Y-64360000D02*
X58567500Y-63910000D01*
X58567500Y-56560000D02*
X58567500Y-57010000D01*
X60417500Y-64360000D02*
X58567500Y-64360000D01*
X62967500Y-56560000D02*
X62717500Y-56560000D01*
X58017500Y-58760000D02*
X58017500Y-59210000D01*
X62967500Y-64360000D02*
X62717500Y-64360000D01*
%TO.C,R13*%
X50629159Y-88046359D02*
X50629159Y-88353641D01*
X49869159Y-88046359D02*
X49869159Y-88353641D01*
%TO.C,R8*%
X45732500Y-78842742D02*
X45732500Y-79317258D01*
X44687500Y-78842742D02*
X44687500Y-79317258D01*
%TO.C,Q1*%
X58872762Y-77133682D02*
X58872762Y-75458682D01*
X61992762Y-77133682D02*
X61992762Y-76483682D01*
X61992762Y-77133682D02*
X61992762Y-77783682D01*
X58872762Y-77133682D02*
X58872762Y-77783682D01*
%TO.C,C16*%
X50462164Y-44720000D02*
X50677836Y-44720000D01*
X50462164Y-44000000D02*
X50677836Y-44000000D01*
%TD*%
M02*
