%TF.GenerationSoftware,KiCad,Pcbnew,(6.0.4)*%
%TF.CreationDate,2022-05-08T20:42:15-04:00*%
%TF.ProjectId,STM32_Altimeter_R2,53544d33-325f-4416-9c74-696d65746572,0.1*%
%TF.SameCoordinates,Original*%
%TF.FileFunction,Legend,Top*%
%TF.FilePolarity,Positive*%
%FSLAX46Y46*%
G04 Gerber Fmt 4.6, Leading zero omitted, Abs format (unit mm)*
G04 Created by KiCad (PCBNEW (6.0.4)) date 2022-05-08 20:42:15*
%MOMM*%
%LPD*%
G01*
G04 APERTURE LIST*
%ADD10C,0.150000*%
%ADD11C,0.125000*%
%ADD12C,0.120000*%
G04 APERTURE END LIST*
D10*
X49700000Y-98900000D02*
G75*
G03*
X49700000Y-98900000I-200000J0D01*
G01*
X52476394Y-42800000D02*
X52923606Y-42800000D01*
X52923606Y-42800000D02*
X52923606Y-42800000D01*
X52923606Y-42800000D02*
X52476394Y-42800000D01*
X52476394Y-42800000D02*
X52476394Y-42800000D01*
X42100001Y-73500000D02*
G75*
G03*
X42100001Y-73500000I-1J0D01*
G01*
X52923607Y-42800000D02*
G75*
G03*
X52923607Y-42800000I-223607J0D01*
G01*
X52700000Y-42576394D02*
X52700000Y-42576394D01*
X52700000Y-42576394D02*
X52700000Y-43023606D01*
X52700000Y-43023606D02*
X52700000Y-43023606D01*
X52700000Y-43023606D02*
X52700000Y-42576394D01*
X52800000Y-42900000D02*
X52600000Y-42900000D01*
X52600000Y-42900000D02*
X52600000Y-42800000D01*
X52600000Y-42800000D02*
X52800000Y-42800000D01*
X52800000Y-42800000D02*
X52800000Y-42900000D01*
X47012614Y-58805740D02*
X47395716Y-57671530D01*
X52476394Y-42700000D02*
X52700000Y-42700000D01*
X52700000Y-42700000D02*
X52700000Y-42700000D01*
X52700000Y-42700000D02*
X52476394Y-42700000D01*
X52476394Y-42700000D02*
X52476394Y-42700000D01*
X61341421Y-97300000D02*
G75*
G03*
X61341421Y-97300000I-141421J0D01*
G01*
X52800000Y-42700000D02*
X52800000Y-42700000D01*
X52800000Y-42700000D02*
X52800000Y-42900000D01*
X52800000Y-42900000D02*
X52800000Y-42900000D01*
X52800000Y-42900000D02*
X52800000Y-42700000D01*
X58200000Y-72100000D02*
G75*
G03*
X58200000Y-72100000I-100000J0D01*
G01*
X33641421Y-81100000D02*
G75*
G03*
X33641421Y-81100000I-141421J0D01*
G01*
X49500000Y-59000000D02*
X49227166Y-57690201D01*
X49600000Y-98900000D02*
G75*
G03*
X49600000Y-98900000I-100000J0D01*
G01*
X36241421Y-68600000D02*
G75*
G03*
X36241421Y-68600000I-141421J0D01*
G01*
X45452380Y-102452380D02*
X45452380Y-101452380D01*
X45690476Y-101452380D01*
X45833333Y-101500000D01*
X45928571Y-101595238D01*
X45976190Y-101690476D01*
X46023809Y-101880952D01*
X46023809Y-102023809D01*
X45976190Y-102214285D01*
X45928571Y-102309523D01*
X45833333Y-102404761D01*
X45690476Y-102452380D01*
X45452380Y-102452380D01*
X46833333Y-102404761D02*
X46738095Y-102452380D01*
X46547619Y-102452380D01*
X46452380Y-102404761D01*
X46404761Y-102309523D01*
X46404761Y-101928571D01*
X46452380Y-101833333D01*
X46547619Y-101785714D01*
X46738095Y-101785714D01*
X46833333Y-101833333D01*
X46880952Y-101928571D01*
X46880952Y-102023809D01*
X46404761Y-102119047D01*
X47309523Y-102452380D02*
X47309523Y-101452380D01*
X47309523Y-101833333D02*
X47404761Y-101785714D01*
X47595238Y-101785714D01*
X47690476Y-101833333D01*
X47738095Y-101880952D01*
X47785714Y-101976190D01*
X47785714Y-102261904D01*
X47738095Y-102357142D01*
X47690476Y-102404761D01*
X47595238Y-102452380D01*
X47404761Y-102452380D01*
X47309523Y-102404761D01*
X48642857Y-101785714D02*
X48642857Y-102452380D01*
X48214285Y-101785714D02*
X48214285Y-102309523D01*
X48261904Y-102404761D01*
X48357142Y-102452380D01*
X48500000Y-102452380D01*
X48595238Y-102404761D01*
X48642857Y-102357142D01*
X49547619Y-101785714D02*
X49547619Y-102595238D01*
X49500000Y-102690476D01*
X49452380Y-102738095D01*
X49357142Y-102785714D01*
X49214285Y-102785714D01*
X49119047Y-102738095D01*
X49547619Y-102404761D02*
X49452380Y-102452380D01*
X49261904Y-102452380D01*
X49166666Y-102404761D01*
X49119047Y-102357142D01*
X49071428Y-102261904D01*
X49071428Y-101976190D01*
X49119047Y-101880952D01*
X49166666Y-101833333D01*
X49261904Y-101785714D01*
X49452380Y-101785714D01*
X49547619Y-101833333D01*
X53403265Y-78653764D02*
X53546122Y-78701383D01*
X53784217Y-78701383D01*
X53879455Y-78653764D01*
X53927074Y-78606145D01*
X53974693Y-78510907D01*
X53974693Y-78415669D01*
X53927074Y-78320431D01*
X53879455Y-78272812D01*
X53784217Y-78225193D01*
X53593741Y-78177574D01*
X53498503Y-78129955D01*
X53450884Y-78082336D01*
X53403265Y-77987098D01*
X53403265Y-77891860D01*
X53450884Y-77796622D01*
X53498503Y-77749003D01*
X53593741Y-77701383D01*
X53831836Y-77701383D01*
X53974693Y-77749003D01*
X54308027Y-78034717D02*
X54498503Y-78701383D01*
X54688979Y-78225193D01*
X54879455Y-78701383D01*
X55069931Y-78034717D01*
X55450884Y-78701383D02*
X55450884Y-78034717D01*
X55450884Y-77701383D02*
X55403265Y-77749003D01*
X55450884Y-77796622D01*
X55498503Y-77749003D01*
X55450884Y-77701383D01*
X55450884Y-77796622D01*
X55784217Y-78034717D02*
X56165170Y-78034717D01*
X55927074Y-77701383D02*
X55927074Y-78558526D01*
X55974693Y-78653764D01*
X56069931Y-78701383D01*
X56165170Y-78701383D01*
X56927074Y-78653764D02*
X56831836Y-78701383D01*
X56641360Y-78701383D01*
X56546122Y-78653764D01*
X56498503Y-78606145D01*
X56450884Y-78510907D01*
X56450884Y-78225193D01*
X56498503Y-78129955D01*
X56546122Y-78082336D01*
X56641360Y-78034717D01*
X56831836Y-78034717D01*
X56927074Y-78082336D01*
X57355646Y-78701383D02*
X57355646Y-77701383D01*
X57784217Y-78701383D02*
X57784217Y-78177574D01*
X57736598Y-78082336D01*
X57641360Y-78034717D01*
X57498503Y-78034717D01*
X57403265Y-78082336D01*
X57355646Y-78129955D01*
X32553454Y-47309695D02*
X32505835Y-47452552D01*
X32505835Y-47690647D01*
X32553454Y-47785885D01*
X32601073Y-47833504D01*
X32696311Y-47881123D01*
X32791549Y-47881123D01*
X32886787Y-47833504D01*
X32934406Y-47785885D01*
X32982025Y-47690647D01*
X33029644Y-47500171D01*
X33077263Y-47404933D01*
X33124882Y-47357314D01*
X33220120Y-47309695D01*
X33315358Y-47309695D01*
X33410596Y-47357314D01*
X33458216Y-47404933D01*
X33505835Y-47500171D01*
X33505835Y-47738266D01*
X33458216Y-47881123D01*
X33172501Y-48309695D02*
X32172501Y-48309695D01*
X33124882Y-48309695D02*
X33172501Y-48404933D01*
X33172501Y-48595409D01*
X33124882Y-48690647D01*
X33077263Y-48738266D01*
X32982025Y-48785885D01*
X32696311Y-48785885D01*
X32601073Y-48738266D01*
X32553454Y-48690647D01*
X32505835Y-48595409D01*
X32505835Y-48404933D01*
X32553454Y-48309695D01*
X32505835Y-49643028D02*
X33029644Y-49643028D01*
X33124882Y-49595409D01*
X33172501Y-49500171D01*
X33172501Y-49309695D01*
X33124882Y-49214457D01*
X32553454Y-49643028D02*
X32505835Y-49547790D01*
X32505835Y-49309695D01*
X32553454Y-49214457D01*
X32648692Y-49166838D01*
X32743930Y-49166838D01*
X32839168Y-49214457D01*
X32886787Y-49309695D01*
X32886787Y-49547790D01*
X32934406Y-49643028D01*
X32553454Y-50547790D02*
X32505835Y-50452552D01*
X32505835Y-50262076D01*
X32553454Y-50166838D01*
X32601073Y-50119219D01*
X32696311Y-50071600D01*
X32982025Y-50071600D01*
X33077263Y-50119219D01*
X33124882Y-50166838D01*
X33172501Y-50262076D01*
X33172501Y-50452552D01*
X33124882Y-50547790D01*
X32553454Y-51357314D02*
X32505835Y-51262076D01*
X32505835Y-51071600D01*
X32553454Y-50976362D01*
X32648692Y-50928742D01*
X33029644Y-50928742D01*
X33124882Y-50976362D01*
X33172501Y-51071600D01*
X33172501Y-51262076D01*
X33124882Y-51357314D01*
X33029644Y-51404933D01*
X32934406Y-51404933D01*
X32839168Y-50928742D01*
X32505835Y-51833504D02*
X33505835Y-51833504D01*
X32505835Y-52404933D01*
X33505835Y-52404933D01*
X32505835Y-53309695D02*
X33029644Y-53309695D01*
X33124882Y-53262076D01*
X33172501Y-53166838D01*
X33172501Y-52976362D01*
X33124882Y-52881123D01*
X32553454Y-53309695D02*
X32505835Y-53214457D01*
X32505835Y-52976362D01*
X32553454Y-52881123D01*
X32648692Y-52833504D01*
X32743930Y-52833504D01*
X32839168Y-52881123D01*
X32886787Y-52976362D01*
X32886787Y-53214457D01*
X32934406Y-53309695D01*
X33172501Y-53690647D02*
X32505835Y-53928742D01*
X33172501Y-54166838D01*
X32505835Y-54547790D02*
X33172501Y-54547790D01*
X33505835Y-54547790D02*
X33458216Y-54500171D01*
X33410596Y-54547790D01*
X33458216Y-54595409D01*
X33505835Y-54547790D01*
X33410596Y-54547790D01*
X33172501Y-55452552D02*
X32362977Y-55452552D01*
X32267739Y-55404933D01*
X32220120Y-55357314D01*
X32172501Y-55262076D01*
X32172501Y-55119219D01*
X32220120Y-55023981D01*
X32553454Y-55452552D02*
X32505835Y-55357314D01*
X32505835Y-55166838D01*
X32553454Y-55071600D01*
X32601073Y-55023981D01*
X32696311Y-54976362D01*
X32982025Y-54976362D01*
X33077263Y-55023981D01*
X33124882Y-55071600D01*
X33172501Y-55166838D01*
X33172501Y-55357314D01*
X33124882Y-55452552D01*
X32505835Y-56357314D02*
X33029644Y-56357314D01*
X33124882Y-56309695D01*
X33172501Y-56214457D01*
X33172501Y-56023981D01*
X33124882Y-55928742D01*
X32553454Y-56357314D02*
X32505835Y-56262076D01*
X32505835Y-56023981D01*
X32553454Y-55928742D01*
X32648692Y-55881123D01*
X32743930Y-55881123D01*
X32839168Y-55928742D01*
X32886787Y-56023981D01*
X32886787Y-56262076D01*
X32934406Y-56357314D01*
X33172501Y-56690647D02*
X33172501Y-57071600D01*
X33505835Y-56833504D02*
X32648692Y-56833504D01*
X32553454Y-56881123D01*
X32505835Y-56976362D01*
X32505835Y-57071600D01*
X32505835Y-57547790D02*
X32553454Y-57452552D01*
X32601073Y-57404933D01*
X32696311Y-57357314D01*
X32982025Y-57357314D01*
X33077263Y-57404933D01*
X33124882Y-57452552D01*
X33172501Y-57547790D01*
X33172501Y-57690647D01*
X33124882Y-57785885D01*
X33077263Y-57833504D01*
X32982025Y-57881123D01*
X32696311Y-57881123D01*
X32601073Y-57833504D01*
X32553454Y-57785885D01*
X32505835Y-57690647D01*
X32505835Y-57547790D01*
X32505835Y-58309695D02*
X33172501Y-58309695D01*
X32982025Y-58309695D02*
X33077263Y-58357314D01*
X33124882Y-58404933D01*
X33172501Y-58500171D01*
X33172501Y-58595409D01*
X32505835Y-60262076D02*
X32982025Y-59928742D01*
X32505835Y-59690647D02*
X33505835Y-59690647D01*
X33505835Y-60071600D01*
X33458216Y-60166838D01*
X33410596Y-60214457D01*
X33315358Y-60262076D01*
X33172501Y-60262076D01*
X33077263Y-60214457D01*
X33029644Y-60166838D01*
X32982025Y-60071600D01*
X32982025Y-59690647D01*
X33505835Y-60881123D02*
X33505835Y-60976362D01*
X33458216Y-61071600D01*
X33410596Y-61119219D01*
X33315358Y-61166838D01*
X33124882Y-61214457D01*
X32886787Y-61214457D01*
X32696311Y-61166838D01*
X32601073Y-61119219D01*
X32553454Y-61071600D01*
X32505835Y-60976362D01*
X32505835Y-60881123D01*
X32553454Y-60785885D01*
X32601073Y-60738266D01*
X32696311Y-60690647D01*
X32886787Y-60643028D01*
X33124882Y-60643028D01*
X33315358Y-60690647D01*
X33410596Y-60738266D01*
X33458216Y-60785885D01*
X33505835Y-60881123D01*
X32601073Y-61643028D02*
X32553454Y-61690647D01*
X32505835Y-61643028D01*
X32553454Y-61595409D01*
X32601073Y-61643028D01*
X32505835Y-61643028D01*
X32505835Y-62643028D02*
X32505835Y-62071600D01*
X32505835Y-62357314D02*
X33505835Y-62357314D01*
X33362977Y-62262076D01*
X33267739Y-62166838D01*
X33220120Y-62071600D01*
X38252052Y-101438883D02*
X38252052Y-100688883D01*
X38430624Y-100688883D01*
X38537767Y-100724598D01*
X38609195Y-100796026D01*
X38644910Y-100867455D01*
X38680624Y-101010312D01*
X38680624Y-101117455D01*
X38644910Y-101260312D01*
X38609195Y-101331740D01*
X38537767Y-101403169D01*
X38430624Y-101438883D01*
X38252052Y-101438883D01*
X39002052Y-101438883D02*
X39002052Y-100938883D01*
X39002052Y-101081740D02*
X39037767Y-101010312D01*
X39073481Y-100974598D01*
X39144910Y-100938883D01*
X39216338Y-100938883D01*
X39573481Y-101438883D02*
X39502052Y-101403169D01*
X39466338Y-101367455D01*
X39430624Y-101296026D01*
X39430624Y-101081740D01*
X39466338Y-101010312D01*
X39502052Y-100974598D01*
X39573481Y-100938883D01*
X39680624Y-100938883D01*
X39752052Y-100974598D01*
X39787767Y-101010312D01*
X39823481Y-101081740D01*
X39823481Y-101296026D01*
X39787767Y-101367455D01*
X39752052Y-101403169D01*
X39680624Y-101438883D01*
X39573481Y-101438883D01*
X40466338Y-100938883D02*
X40466338Y-101546026D01*
X40430624Y-101617455D01*
X40394910Y-101653169D01*
X40323481Y-101688883D01*
X40216338Y-101688883D01*
X40144910Y-101653169D01*
X40466338Y-101403169D02*
X40394910Y-101438883D01*
X40252052Y-101438883D01*
X40180624Y-101403169D01*
X40144910Y-101367455D01*
X40109195Y-101296026D01*
X40109195Y-101081740D01*
X40144910Y-101010312D01*
X40180624Y-100974598D01*
X40252052Y-100938883D01*
X40394910Y-100938883D01*
X40466338Y-100974598D01*
X41144910Y-100938883D02*
X41144910Y-101438883D01*
X40823481Y-100938883D02*
X40823481Y-101331740D01*
X40859195Y-101403169D01*
X40930624Y-101438883D01*
X41037767Y-101438883D01*
X41109195Y-101403169D01*
X41144910Y-101367455D01*
X41787767Y-101403169D02*
X41716338Y-101438883D01*
X41573481Y-101438883D01*
X41502052Y-101403169D01*
X41466338Y-101331740D01*
X41466338Y-101046026D01*
X41502052Y-100974598D01*
X41573481Y-100938883D01*
X41716338Y-100938883D01*
X41787767Y-100974598D01*
X41823481Y-101046026D01*
X41823481Y-101117455D01*
X41466338Y-101188883D01*
D11*
X48278458Y-59285952D02*
X48278458Y-59690714D01*
X48302268Y-59738333D01*
X48326077Y-59762142D01*
X48373696Y-59785952D01*
X48468935Y-59785952D01*
X48516554Y-59762142D01*
X48540363Y-59738333D01*
X48564173Y-59690714D01*
X48564173Y-59285952D01*
X48778458Y-59762142D02*
X48849887Y-59785952D01*
X48968935Y-59785952D01*
X49016554Y-59762142D01*
X49040363Y-59738333D01*
X49064173Y-59690714D01*
X49064173Y-59643095D01*
X49040363Y-59595476D01*
X49016554Y-59571666D01*
X48968935Y-59547857D01*
X48873696Y-59524047D01*
X48826077Y-59500238D01*
X48802268Y-59476428D01*
X48778458Y-59428809D01*
X48778458Y-59381190D01*
X48802268Y-59333571D01*
X48826077Y-59309762D01*
X48873696Y-59285952D01*
X48992744Y-59285952D01*
X49064173Y-59309762D01*
X49254649Y-59643095D02*
X49492744Y-59643095D01*
X49207030Y-59785952D02*
X49373696Y-59285952D01*
X49540363Y-59785952D01*
X49992744Y-59785952D02*
X49826077Y-59547857D01*
X49707030Y-59785952D02*
X49707030Y-59285952D01*
X49897506Y-59285952D01*
X49945125Y-59309762D01*
X49968935Y-59333571D01*
X49992744Y-59381190D01*
X49992744Y-59452619D01*
X49968935Y-59500238D01*
X49945125Y-59524047D01*
X49897506Y-59547857D01*
X49707030Y-59547857D01*
X50135601Y-59285952D02*
X50421316Y-59285952D01*
X50278458Y-59785952D02*
X50278458Y-59285952D01*
X50849887Y-59785952D02*
X50564173Y-59785952D01*
X50707030Y-59785952D02*
X50707030Y-59285952D01*
X50659411Y-59357381D01*
X50611792Y-59405000D01*
X50564173Y-59428809D01*
X50945125Y-59833571D02*
X51326077Y-59833571D01*
X51373696Y-59285952D02*
X51659411Y-59285952D01*
X51516554Y-59785952D02*
X51516554Y-59285952D01*
X51778458Y-59285952D02*
X52111792Y-59785952D01*
X52111792Y-59285952D02*
X51778458Y-59785952D01*
D10*
X46380952Y-94928571D02*
X46523809Y-94976190D01*
X46571428Y-95023809D01*
X46619047Y-95119047D01*
X46619047Y-95261904D01*
X46571428Y-95357142D01*
X46523809Y-95404761D01*
X46428571Y-95452380D01*
X46047619Y-95452380D01*
X46047619Y-94452380D01*
X46380952Y-94452380D01*
X46476190Y-94500000D01*
X46523809Y-94547619D01*
X46571428Y-94642857D01*
X46571428Y-94738095D01*
X46523809Y-94833333D01*
X46476190Y-94880952D01*
X46380952Y-94928571D01*
X46047619Y-94928571D01*
X47190476Y-95452380D02*
X47095238Y-95404761D01*
X47047619Y-95357142D01*
X47000000Y-95261904D01*
X47000000Y-94976190D01*
X47047619Y-94880952D01*
X47095238Y-94833333D01*
X47190476Y-94785714D01*
X47333333Y-94785714D01*
X47428571Y-94833333D01*
X47476190Y-94880952D01*
X47523809Y-94976190D01*
X47523809Y-95261904D01*
X47476190Y-95357142D01*
X47428571Y-95404761D01*
X47333333Y-95452380D01*
X47190476Y-95452380D01*
X48095238Y-95452380D02*
X48000000Y-95404761D01*
X47952380Y-95357142D01*
X47904761Y-95261904D01*
X47904761Y-94976190D01*
X47952380Y-94880952D01*
X48000000Y-94833333D01*
X48095238Y-94785714D01*
X48238095Y-94785714D01*
X48333333Y-94833333D01*
X48380952Y-94880952D01*
X48428571Y-94976190D01*
X48428571Y-95261904D01*
X48380952Y-95357142D01*
X48333333Y-95404761D01*
X48238095Y-95452380D01*
X48095238Y-95452380D01*
X48714285Y-94785714D02*
X49095238Y-94785714D01*
X48857142Y-94452380D02*
X48857142Y-95309523D01*
X48904761Y-95404761D01*
X48999999Y-95452380D01*
X49095238Y-95452380D01*
X53526116Y-100962360D02*
X53633259Y-100998074D01*
X53668973Y-101033789D01*
X53704688Y-101105217D01*
X53704688Y-101212360D01*
X53668973Y-101283789D01*
X53633259Y-101319503D01*
X53561830Y-101355217D01*
X53276116Y-101355217D01*
X53276116Y-100605217D01*
X53526116Y-100605217D01*
X53597545Y-100640932D01*
X53633259Y-100676646D01*
X53668973Y-100748074D01*
X53668973Y-100819503D01*
X53633259Y-100890932D01*
X53597545Y-100926646D01*
X53526116Y-100962360D01*
X53276116Y-100962360D01*
X54347545Y-101355217D02*
X54347545Y-100962360D01*
X54311830Y-100890932D01*
X54240402Y-100855217D01*
X54097545Y-100855217D01*
X54026116Y-100890932D01*
X54347545Y-101319503D02*
X54276116Y-101355217D01*
X54097545Y-101355217D01*
X54026116Y-101319503D01*
X53990402Y-101248074D01*
X53990402Y-101176646D01*
X54026116Y-101105217D01*
X54097545Y-101069503D01*
X54276116Y-101069503D01*
X54347545Y-101033789D01*
X54597545Y-100855217D02*
X54883259Y-100855217D01*
X54704688Y-100605217D02*
X54704688Y-101248074D01*
X54740402Y-101319503D01*
X54811830Y-101355217D01*
X54883259Y-101355217D01*
X55026116Y-100855217D02*
X55311830Y-100855217D01*
X55133259Y-100605217D02*
X55133259Y-101248074D01*
X55168973Y-101319503D01*
X55240402Y-101355217D01*
X55311830Y-101355217D01*
X55847545Y-101319503D02*
X55776116Y-101355217D01*
X55633259Y-101355217D01*
X55561830Y-101319503D01*
X55526116Y-101248074D01*
X55526116Y-100962360D01*
X55561830Y-100890932D01*
X55633259Y-100855217D01*
X55776116Y-100855217D01*
X55847545Y-100890932D01*
X55883259Y-100962360D01*
X55883259Y-101033789D01*
X55526116Y-101105217D01*
X56204688Y-101355217D02*
X56204688Y-100855217D01*
X56204688Y-100998074D02*
X56240402Y-100926646D01*
X56276116Y-100890932D01*
X56347545Y-100855217D01*
X56418973Y-100855217D01*
X56597545Y-100855217D02*
X56776116Y-101355217D01*
X56954688Y-100855217D02*
X56776116Y-101355217D01*
X56704688Y-101533789D01*
X56668973Y-101569503D01*
X56597545Y-101605217D01*
D11*
X43840444Y-59090732D02*
X43840444Y-59495494D01*
X43864253Y-59543113D01*
X43888063Y-59566922D01*
X43935682Y-59590732D01*
X44030920Y-59590732D01*
X44078539Y-59566922D01*
X44102348Y-59543113D01*
X44126158Y-59495494D01*
X44126158Y-59090732D01*
X44340444Y-59566922D02*
X44411872Y-59590732D01*
X44530920Y-59590732D01*
X44578539Y-59566922D01*
X44602348Y-59543113D01*
X44626158Y-59495494D01*
X44626158Y-59447875D01*
X44602348Y-59400256D01*
X44578539Y-59376446D01*
X44530920Y-59352637D01*
X44435682Y-59328827D01*
X44388063Y-59305018D01*
X44364253Y-59281208D01*
X44340444Y-59233589D01*
X44340444Y-59185970D01*
X44364253Y-59138351D01*
X44388063Y-59114542D01*
X44435682Y-59090732D01*
X44554729Y-59090732D01*
X44626158Y-59114542D01*
X44816634Y-59447875D02*
X45054729Y-59447875D01*
X44769015Y-59590732D02*
X44935682Y-59090732D01*
X45102348Y-59590732D01*
X45554729Y-59590732D02*
X45388063Y-59352637D01*
X45269015Y-59590732D02*
X45269015Y-59090732D01*
X45459491Y-59090732D01*
X45507110Y-59114542D01*
X45530920Y-59138351D01*
X45554729Y-59185970D01*
X45554729Y-59257399D01*
X45530920Y-59305018D01*
X45507110Y-59328827D01*
X45459491Y-59352637D01*
X45269015Y-59352637D01*
X45697586Y-59090732D02*
X45983301Y-59090732D01*
X45840444Y-59590732D02*
X45840444Y-59090732D01*
X46411872Y-59590732D02*
X46126158Y-59590732D01*
X46269015Y-59590732D02*
X46269015Y-59090732D01*
X46221396Y-59162161D01*
X46173777Y-59209780D01*
X46126158Y-59233589D01*
X46507110Y-59638351D02*
X46888063Y-59638351D01*
X47292825Y-59590732D02*
X47126158Y-59352637D01*
X47007110Y-59590732D02*
X47007110Y-59090732D01*
X47197586Y-59090732D01*
X47245205Y-59114542D01*
X47269015Y-59138351D01*
X47292825Y-59185970D01*
X47292825Y-59257399D01*
X47269015Y-59305018D01*
X47245205Y-59328827D01*
X47197586Y-59352637D01*
X47007110Y-59352637D01*
X47459491Y-59090732D02*
X47792825Y-59590732D01*
X47792825Y-59090732D02*
X47459491Y-59590732D01*
D10*
X38077597Y-78659550D02*
X38077597Y-77659550D01*
X38410930Y-78373836D01*
X38744264Y-77659550D01*
X38744264Y-78659550D01*
X39649026Y-78659550D02*
X39649026Y-78135741D01*
X39601407Y-78040503D01*
X39506168Y-77992884D01*
X39315692Y-77992884D01*
X39220454Y-78040503D01*
X39649026Y-78611931D02*
X39553788Y-78659550D01*
X39315692Y-78659550D01*
X39220454Y-78611931D01*
X39172835Y-78516693D01*
X39172835Y-78421455D01*
X39220454Y-78326217D01*
X39315692Y-78278598D01*
X39553788Y-78278598D01*
X39649026Y-78230979D01*
X40125216Y-78659550D02*
X40125216Y-77992884D01*
X40125216Y-77659550D02*
X40077597Y-77707170D01*
X40125216Y-77754789D01*
X40172835Y-77707170D01*
X40125216Y-77659550D01*
X40125216Y-77754789D01*
X40601407Y-77992884D02*
X40601407Y-78659550D01*
X40601407Y-78088122D02*
X40649026Y-78040503D01*
X40744264Y-77992884D01*
X40887121Y-77992884D01*
X40982359Y-78040503D01*
X41029978Y-78135741D01*
X41029978Y-78659550D01*
X35533246Y-48959303D02*
X35533246Y-49292637D01*
X35009437Y-49435494D02*
X35009437Y-48959303D01*
X36009437Y-48959303D01*
X36009437Y-49435494D01*
X35009437Y-50292637D02*
X36009437Y-50292637D01*
X35057056Y-50292637D02*
X35009437Y-50197399D01*
X35009437Y-50006922D01*
X35057056Y-49911684D01*
X35104675Y-49864065D01*
X35199913Y-49816446D01*
X35485627Y-49816446D01*
X35580865Y-49864065D01*
X35628484Y-49911684D01*
X35676103Y-50006922D01*
X35676103Y-50197399D01*
X35628484Y-50292637D01*
X35009437Y-51197399D02*
X36009437Y-51197399D01*
X35057056Y-51197399D02*
X35009437Y-51102161D01*
X35009437Y-50911684D01*
X35057056Y-50816446D01*
X35104675Y-50768827D01*
X35199913Y-50721208D01*
X35485627Y-50721208D01*
X35580865Y-50768827D01*
X35628484Y-50816446D01*
X35676103Y-50911684D01*
X35676103Y-51102161D01*
X35628484Y-51197399D01*
X35009437Y-51673589D02*
X35676103Y-51673589D01*
X36009437Y-51673589D02*
X35961818Y-51625970D01*
X35914198Y-51673589D01*
X35961818Y-51721208D01*
X36009437Y-51673589D01*
X35914198Y-51673589D01*
X35057056Y-52530732D02*
X35009437Y-52435494D01*
X35009437Y-52245018D01*
X35057056Y-52149780D01*
X35152294Y-52102161D01*
X35533246Y-52102161D01*
X35628484Y-52149780D01*
X35676103Y-52245018D01*
X35676103Y-52435494D01*
X35628484Y-52530732D01*
X35533246Y-52578351D01*
X35438008Y-52578351D01*
X35342770Y-52102161D01*
X36009437Y-53625970D02*
X36009437Y-54197399D01*
X35009437Y-53911684D02*
X36009437Y-53911684D01*
X34676103Y-55530732D02*
X36104675Y-55530732D01*
X35533246Y-57340256D02*
X35485627Y-57483113D01*
X35438008Y-57530732D01*
X35342770Y-57578351D01*
X35199913Y-57578351D01*
X35104675Y-57530732D01*
X35057056Y-57483113D01*
X35009437Y-57387875D01*
X35009437Y-57006922D01*
X36009437Y-57006922D01*
X36009437Y-57340256D01*
X35961818Y-57435494D01*
X35914198Y-57483113D01*
X35818960Y-57530732D01*
X35723722Y-57530732D01*
X35628484Y-57483113D01*
X35580865Y-57435494D01*
X35533246Y-57340256D01*
X35533246Y-57006922D01*
X35009437Y-58006922D02*
X35676103Y-58006922D01*
X35485627Y-58006922D02*
X35580865Y-58054542D01*
X35628484Y-58102161D01*
X35676103Y-58197399D01*
X35676103Y-58292637D01*
X35009437Y-58625970D02*
X35676103Y-58625970D01*
X36009437Y-58625970D02*
X35961818Y-58578351D01*
X35914198Y-58625970D01*
X35961818Y-58673589D01*
X36009437Y-58625970D01*
X35914198Y-58625970D01*
X35009437Y-59530732D02*
X35533246Y-59530732D01*
X35628484Y-59483113D01*
X35676103Y-59387875D01*
X35676103Y-59197399D01*
X35628484Y-59102161D01*
X35057056Y-59530732D02*
X35009437Y-59435494D01*
X35009437Y-59197399D01*
X35057056Y-59102161D01*
X35152294Y-59054542D01*
X35247532Y-59054542D01*
X35342770Y-59102161D01*
X35390389Y-59197399D01*
X35390389Y-59435494D01*
X35438008Y-59530732D01*
X35676103Y-60006922D02*
X35009437Y-60006922D01*
X35580865Y-60006922D02*
X35628484Y-60054542D01*
X35676103Y-60149780D01*
X35676103Y-60292637D01*
X35628484Y-60387875D01*
X35533246Y-60435494D01*
X35009437Y-60435494D01*
X35057056Y-61625970D02*
X35009437Y-61768827D01*
X35009437Y-62006922D01*
X35057056Y-62102161D01*
X35104675Y-62149780D01*
X35199913Y-62197399D01*
X35295151Y-62197399D01*
X35390389Y-62149780D01*
X35438008Y-62102161D01*
X35485627Y-62006922D01*
X35533246Y-61816446D01*
X35580865Y-61721208D01*
X35628484Y-61673589D01*
X35723722Y-61625970D01*
X35818960Y-61625970D01*
X35914198Y-61673589D01*
X35961818Y-61721208D01*
X36009437Y-61816446D01*
X36009437Y-62054542D01*
X35961818Y-62197399D01*
%TO.C,J3*%
X52666666Y-105252380D02*
X52666666Y-105966666D01*
X52619047Y-106109523D01*
X52523809Y-106204761D01*
X52380952Y-106252380D01*
X52285714Y-106252380D01*
X53047619Y-105252380D02*
X53666666Y-105252380D01*
X53333333Y-105633333D01*
X53476190Y-105633333D01*
X53571428Y-105680952D01*
X53619047Y-105728571D01*
X53666666Y-105823809D01*
X53666666Y-106061904D01*
X53619047Y-106157142D01*
X53571428Y-106204761D01*
X53476190Y-106252380D01*
X53190476Y-106252380D01*
X53095238Y-106204761D01*
X53047619Y-106157142D01*
%TO.C,J1*%
X38952380Y-90333333D02*
X39666666Y-90333333D01*
X39809523Y-90380952D01*
X39904761Y-90476190D01*
X39952380Y-90619047D01*
X39952380Y-90714285D01*
X39952380Y-89333333D02*
X39952380Y-89904761D01*
X39952380Y-89619047D02*
X38952380Y-89619047D01*
X39095238Y-89714285D01*
X39190476Y-89809523D01*
X39238095Y-89904761D01*
%TO.C,U3*%
X59470321Y-71238008D02*
X60279845Y-71238008D01*
X60375083Y-71190389D01*
X60422702Y-71142770D01*
X60470321Y-71047532D01*
X60470321Y-70857056D01*
X60422702Y-70761818D01*
X60375083Y-70714199D01*
X60279845Y-70666580D01*
X59470321Y-70666580D01*
X59470321Y-70285627D02*
X59470321Y-69666580D01*
X59851274Y-69999913D01*
X59851274Y-69857056D01*
X59898893Y-69761818D01*
X59946512Y-69714199D01*
X60041750Y-69666580D01*
X60279845Y-69666580D01*
X60375083Y-69714199D01*
X60422702Y-69761818D01*
X60470321Y-69857056D01*
X60470321Y-70142770D01*
X60422702Y-70238008D01*
X60375083Y-70285627D01*
%TO.C,J6*%
X29880646Y-67070591D02*
X30594932Y-67070591D01*
X30737789Y-67118210D01*
X30833027Y-67213448D01*
X30880646Y-67356305D01*
X30880646Y-67451543D01*
X29880646Y-66165829D02*
X29880646Y-66356305D01*
X29928266Y-66451543D01*
X29975885Y-66499162D01*
X30118742Y-66594400D01*
X30309218Y-66642019D01*
X30690170Y-66642019D01*
X30785408Y-66594400D01*
X30833027Y-66546781D01*
X30880646Y-66451543D01*
X30880646Y-66261067D01*
X30833027Y-66165829D01*
X30785408Y-66118210D01*
X30690170Y-66070591D01*
X30452075Y-66070591D01*
X30356837Y-66118210D01*
X30309218Y-66165829D01*
X30261599Y-66261067D01*
X30261599Y-66451543D01*
X30309218Y-66546781D01*
X30356837Y-66594400D01*
X30452075Y-66642019D01*
%TO.C,U5*%
X46776088Y-50284801D02*
X47585612Y-50284801D01*
X47680850Y-50237182D01*
X47728469Y-50189563D01*
X47776088Y-50094325D01*
X47776088Y-49903849D01*
X47728469Y-49808611D01*
X47680850Y-49760992D01*
X47585612Y-49713373D01*
X46776088Y-49713373D01*
X46776088Y-48760992D02*
X46776088Y-49237182D01*
X47252279Y-49284801D01*
X47204660Y-49237182D01*
X47157041Y-49141944D01*
X47157041Y-48903849D01*
X47204660Y-48808611D01*
X47252279Y-48760992D01*
X47347517Y-48713373D01*
X47585612Y-48713373D01*
X47680850Y-48760992D01*
X47728469Y-48808611D01*
X47776088Y-48903849D01*
X47776088Y-49141944D01*
X47728469Y-49237182D01*
X47680850Y-49284801D01*
%TO.C,J5*%
X48375166Y-97136310D02*
X48375166Y-97850596D01*
X48327547Y-97993453D01*
X48232309Y-98088691D01*
X48089452Y-98136310D01*
X47994214Y-98136310D01*
X49327547Y-97136310D02*
X48851357Y-97136310D01*
X48803738Y-97612501D01*
X48851357Y-97564882D01*
X48946595Y-97517263D01*
X49184690Y-97517263D01*
X49279928Y-97564882D01*
X49327547Y-97612501D01*
X49375166Y-97707739D01*
X49375166Y-97945834D01*
X49327547Y-98041072D01*
X49279928Y-98088691D01*
X49184690Y-98136310D01*
X48946595Y-98136310D01*
X48851357Y-98088691D01*
X48803738Y-98041072D01*
%TO.C,BZ1*%
X46376021Y-69623786D02*
X46518878Y-69671405D01*
X46566497Y-69719024D01*
X46614116Y-69814262D01*
X46614116Y-69957119D01*
X46566497Y-70052357D01*
X46518878Y-70099976D01*
X46423640Y-70147595D01*
X46042688Y-70147595D01*
X46042688Y-69147595D01*
X46376021Y-69147595D01*
X46471259Y-69195215D01*
X46518878Y-69242834D01*
X46566497Y-69338072D01*
X46566497Y-69433310D01*
X46518878Y-69528548D01*
X46471259Y-69576167D01*
X46376021Y-69623786D01*
X46042688Y-69623786D01*
X46947450Y-69147595D02*
X47614116Y-69147595D01*
X46947450Y-70147595D01*
X47614116Y-70147595D01*
X48518878Y-70147595D02*
X47947450Y-70147595D01*
X48233164Y-70147595D02*
X48233164Y-69147595D01*
X48137926Y-69290453D01*
X48042688Y-69385691D01*
X47947450Y-69433310D01*
X43159047Y-71241428D02*
X43920952Y-71241428D01*
X43540000Y-71622380D02*
X43540000Y-70860476D01*
%TO.C,J2*%
X53952380Y-89333333D02*
X54666666Y-89333333D01*
X54809523Y-89380952D01*
X54904761Y-89476190D01*
X54952380Y-89619047D01*
X54952380Y-89714285D01*
X54047619Y-88904761D02*
X54000000Y-88857142D01*
X53952380Y-88761904D01*
X53952380Y-88523809D01*
X54000000Y-88428571D01*
X54047619Y-88380952D01*
X54142857Y-88333333D01*
X54238095Y-88333333D01*
X54380952Y-88380952D01*
X54952380Y-88952380D01*
X54952380Y-88333333D01*
D12*
%TO.C,J3*%
X54345593Y-102798255D02*
X54345593Y-104128255D01*
X51745593Y-102798255D02*
X41525593Y-102798255D01*
X51745593Y-102798255D02*
X51745593Y-105458255D01*
X53015593Y-102798255D02*
X54345593Y-102798255D01*
X51745593Y-105458255D02*
X41525593Y-105458255D01*
X41525593Y-102798255D02*
X41525593Y-105458255D01*
%TO.C,J1*%
X34015663Y-79392338D02*
X34015663Y-99513338D01*
X31715663Y-79152338D02*
X31715663Y-81152338D01*
X34932663Y-85652338D02*
X34882663Y-85602338D01*
X37148663Y-93302338D02*
X37098663Y-93253338D01*
X33955663Y-79152338D02*
X31715663Y-79152338D01*
X39015663Y-79392338D02*
X39015663Y-99513338D01*
X34932663Y-95652338D02*
X34882663Y-95602338D01*
X34690663Y-85844338D02*
X34665663Y-85820338D01*
X34690663Y-95844338D02*
X34665663Y-95820338D01*
X37148663Y-88302338D02*
X37098663Y-88253338D01*
X37365663Y-93085338D02*
X37341663Y-93060338D01*
X37365663Y-98085338D02*
X37341663Y-98060338D01*
X42575663Y-99513338D02*
X31955663Y-99513338D01*
X37148663Y-98302338D02*
X37098663Y-98253338D01*
X31955663Y-79392338D02*
X31955663Y-99513338D01*
X42575663Y-79392338D02*
X42575663Y-99513338D01*
X42575663Y-79392338D02*
X31955663Y-79392338D01*
X34690663Y-90844338D02*
X34665663Y-90820338D01*
X37365663Y-88085338D02*
X37341663Y-88060338D01*
X34932663Y-90652338D02*
X34882663Y-90602338D01*
X38015663Y-79392338D02*
X38015663Y-99513338D01*
X36711663Y-80313338D02*
G75*
G03*
X35320147Y-80313132I-696001J-1638995D01*
G01*
X37654663Y-82648338D02*
G75*
G03*
X37654869Y-81256822I-1638995J696001D01*
G01*
X35319663Y-83591339D02*
G75*
G03*
X36711179Y-83591544I696000J1639001D01*
G01*
X34376663Y-81256338D02*
G75*
G03*
X34235273Y-81983152I1638986J-695998D01*
G01*
X34235663Y-81952338D02*
G75*
G03*
X34377164Y-82647839I1780002J0D01*
G01*
X37795663Y-91952338D02*
G75*
G03*
X37795663Y-91952338I-1780000J0D01*
G01*
X37795663Y-86952338D02*
G75*
G03*
X37795663Y-86952338I-1780000J0D01*
G01*
X37795663Y-96952338D02*
G75*
G03*
X37795663Y-96952338I-1780000J0D01*
G01*
%TO.C,U3*%
X62879186Y-71406317D02*
X62879186Y-71906317D01*
X57679186Y-71806317D02*
X57679186Y-70856317D01*
X62879186Y-71906317D02*
X62379186Y-71906317D01*
X57679186Y-68606317D02*
X58179186Y-68606317D01*
X62879186Y-68606317D02*
X62879186Y-69106317D01*
X57679186Y-69106317D02*
X57679186Y-68606317D01*
X62379186Y-68606317D02*
X62879186Y-68606317D01*
%TO.C,J6*%
X34563410Y-63737258D02*
X34563410Y-64237258D01*
X34163410Y-64237258D02*
X34163410Y-64237258D01*
X34163410Y-69737258D02*
X35163410Y-69737258D01*
X34563410Y-64237258D02*
X34563410Y-64237258D01*
X35163410Y-64237258D02*
X34163410Y-64237258D01*
X34563410Y-69737258D02*
X34563410Y-69237258D01*
X34563410Y-64237258D02*
X34563410Y-63737258D01*
X33163410Y-65237258D02*
X33363410Y-65237258D01*
X35163410Y-63737258D02*
X35163410Y-64637258D01*
X35163410Y-64237258D02*
X35163410Y-64237258D01*
X35163410Y-69737258D02*
X35163410Y-68837258D01*
X33163410Y-68637258D02*
X32663410Y-68637258D01*
X35163410Y-69237258D02*
X35163410Y-69237258D01*
X34563410Y-69237258D02*
X34563410Y-69737258D01*
X34413410Y-68637258D02*
X34413410Y-64837258D01*
X34163410Y-69237258D02*
X35163410Y-69237258D01*
X34163410Y-69237258D02*
X34163410Y-69237258D01*
X32663410Y-68637258D02*
X32663410Y-64837258D01*
X32663410Y-64837258D02*
X33163410Y-64837258D01*
X33763410Y-68637258D02*
X34413410Y-68637258D01*
X33163410Y-66237258D02*
X33363410Y-66237258D01*
X34563410Y-63737258D02*
X34563410Y-63737258D01*
X34413410Y-64837258D02*
X33763410Y-64837258D01*
X34563410Y-69737258D02*
X34563410Y-69737258D01*
X34563410Y-69237258D02*
X34563410Y-69237258D01*
X32263410Y-68637258D02*
X32263410Y-64837258D01*
X34163410Y-64237258D02*
X35163410Y-64237258D01*
X35163410Y-69237258D02*
X34163410Y-69237258D01*
X33163410Y-67237258D02*
X33363410Y-67237258D01*
X33163410Y-68237258D02*
X33363410Y-68237258D01*
X34163410Y-63737258D02*
X35163410Y-63737258D01*
X36063410Y-69237258D02*
G75*
G03*
X36063410Y-69237258I-250000J0D01*
G01*
%TO.C,U5*%
X55255716Y-42061530D02*
X55255716Y-57671530D01*
X55255716Y-57671530D02*
X39535716Y-57671530D01*
X50195716Y-41951530D02*
X39535716Y-41951530D01*
X39535716Y-41951530D02*
X39535716Y-57671530D01*
%TO.C,J5*%
X50053500Y-96160054D02*
X50053500Y-97490054D01*
X47453500Y-96160054D02*
X44853500Y-96160054D01*
X48723500Y-96160054D02*
X50053500Y-96160054D01*
X47453500Y-96160054D02*
X47453500Y-98820054D01*
X47453500Y-98820054D02*
X44853500Y-98820054D01*
X44853500Y-96160054D02*
X44853500Y-98820054D01*
%TO.C,BZ1*%
X53450000Y-73710000D02*
G75*
G03*
X53450000Y-73710000I-6100000J0D01*
G01*
%TO.C,J2*%
X59965194Y-93140033D02*
X59990194Y-93164033D01*
X60640194Y-99592033D02*
X60640194Y-79471033D01*
X52080194Y-99592033D02*
X62700194Y-99592033D01*
X59965194Y-83140033D02*
X59990194Y-83164033D01*
X59723194Y-93332033D02*
X59773194Y-93382033D01*
X52080194Y-99592033D02*
X52080194Y-79471033D01*
X57507194Y-90682033D02*
X57557194Y-90731033D01*
X57507194Y-85682033D02*
X57557194Y-85731033D01*
X62940194Y-99832033D02*
X62940194Y-97832033D01*
X55640194Y-99592033D02*
X55640194Y-79471033D01*
X57290194Y-80899033D02*
X57314194Y-80924033D01*
X60700194Y-99832033D02*
X62940194Y-99832033D01*
X57290194Y-85899033D02*
X57314194Y-85924033D01*
X56640194Y-99592033D02*
X56640194Y-79471033D01*
X59723194Y-83332033D02*
X59773194Y-83382033D01*
X59965194Y-88140033D02*
X59990194Y-88164033D01*
X62700194Y-99592033D02*
X62700194Y-79471033D01*
X59723194Y-88332033D02*
X59773194Y-88382033D01*
X52080194Y-79471033D02*
X62700194Y-79471033D01*
X57290194Y-90899033D02*
X57314194Y-90924033D01*
X57507194Y-80682033D02*
X57557194Y-80731033D01*
X57001194Y-96336033D02*
G75*
G03*
X57000988Y-97727549I1638995J-696001D01*
G01*
X60279194Y-97728033D02*
G75*
G03*
X60420584Y-97001219I-1638986J695998D01*
G01*
X57944194Y-98671033D02*
G75*
G03*
X59335710Y-98671239I696001J1638995D01*
G01*
X59336194Y-95393032D02*
G75*
G03*
X57944678Y-95392827I-696000J-1639001D01*
G01*
X60420194Y-97032033D02*
G75*
G03*
X60278693Y-96336532I-1780002J0D01*
G01*
X60420194Y-82032033D02*
G75*
G03*
X60420194Y-82032033I-1780000J0D01*
G01*
X60420194Y-87032033D02*
G75*
G03*
X60420194Y-87032033I-1780000J0D01*
G01*
X60420194Y-92032033D02*
G75*
G03*
X60420194Y-92032033I-1780000J0D01*
G01*
%TD*%
M02*
