%TF.GenerationSoftware,KiCad,Pcbnew,(6.0.4)*%
%TF.CreationDate,2022-05-08T20:42:15-04:00*%
%TF.ProjectId,STM32_Altimeter_R2,53544d33-325f-4416-9c74-696d65746572,0.1*%
%TF.SameCoordinates,Original*%
%TF.FileFunction,Paste,Top*%
%TF.FilePolarity,Positive*%
%FSLAX46Y46*%
G04 Gerber Fmt 4.6, Leading zero omitted, Abs format (unit mm)*
G04 Created by KiCad (PCBNEW (6.0.4)) date 2022-05-08 20:42:15*
%MOMM*%
%LPD*%
G01*
G04 APERTURE LIST*
%ADD10R,0.550000X0.950000*%
%ADD11R,1.800000X1.200000*%
%ADD12R,1.550000X0.600000*%
%ADD13R,0.580000X0.720000*%
%ADD14R,0.720000X0.580000*%
G04 APERTURE END LIST*
D10*
%TO.C,U3*%
X58404186Y-71331317D03*
X59654186Y-71331317D03*
X60904186Y-71331317D03*
X62154186Y-71331317D03*
X62154186Y-69181317D03*
X60904186Y-69181317D03*
X59654186Y-69181317D03*
X58404186Y-69181317D03*
%TD*%
D11*
%TO.C,J6*%
X32963410Y-63937258D03*
X32963410Y-69537258D03*
D12*
X35488410Y-68237258D03*
X35488410Y-67237258D03*
X35488410Y-66237258D03*
X35488410Y-65237258D03*
%TD*%
D13*
%TO.C,U5*%
X44020716Y-42711530D03*
X44020716Y-56911530D03*
X49720716Y-56911530D03*
D14*
X53495716Y-48336530D03*
X53495716Y-52136530D03*
X40295716Y-47486530D03*
D13*
X45920716Y-43711530D03*
X48870716Y-56911530D03*
X43170716Y-56911530D03*
D14*
X41295716Y-45586530D03*
D13*
X48870716Y-55911530D03*
X46970716Y-56911530D03*
D14*
X41295716Y-51286530D03*
D13*
X46970716Y-42711530D03*
D14*
X53495716Y-54036530D03*
D13*
X50770716Y-42711530D03*
D14*
X54495716Y-48336530D03*
X41295716Y-53186530D03*
D13*
X43170716Y-42711530D03*
D14*
X53495716Y-50236530D03*
X41295716Y-46436530D03*
X41295716Y-47486530D03*
X40295716Y-45586530D03*
X40295716Y-51286530D03*
X54495716Y-54036530D03*
D13*
X48870716Y-42711530D03*
D14*
X41295716Y-48336530D03*
D13*
X45070716Y-43711530D03*
X51620716Y-43711530D03*
D14*
X40295716Y-50236530D03*
D13*
X47820716Y-56911530D03*
X50770716Y-55911530D03*
X45070716Y-55911530D03*
X45070716Y-42711530D03*
X51620716Y-55911530D03*
X51620716Y-42711530D03*
X49720716Y-55911530D03*
X45920716Y-55911530D03*
X47820716Y-42711530D03*
D14*
X54495716Y-46436530D03*
X40295716Y-49386530D03*
D13*
X48870716Y-43711530D03*
D14*
X54495716Y-53186530D03*
D13*
X43170716Y-55911530D03*
X44020716Y-55911530D03*
D14*
X40295716Y-48336530D03*
X53495716Y-49386530D03*
X53495716Y-45586530D03*
D13*
X47820716Y-43711530D03*
D14*
X41295716Y-49386530D03*
D13*
X49720716Y-43711530D03*
D14*
X41295716Y-50236530D03*
X40295716Y-52136530D03*
X41295716Y-54036530D03*
D13*
X43170716Y-43711530D03*
D14*
X54495716Y-50236530D03*
X40295716Y-46436530D03*
X54495716Y-47486530D03*
X53495716Y-51286530D03*
D13*
X45920716Y-42711530D03*
X46970716Y-43711530D03*
X51620716Y-56911530D03*
D14*
X54495716Y-45586530D03*
D13*
X45070716Y-56911530D03*
X46970716Y-55911530D03*
X47820716Y-55911530D03*
D14*
X41295716Y-52136530D03*
X53495716Y-53186530D03*
X54495716Y-49386530D03*
X53495716Y-47486530D03*
D13*
X49720716Y-42711530D03*
X50770716Y-43711530D03*
X44020716Y-43711530D03*
X50770716Y-56911530D03*
X45920716Y-56911530D03*
D14*
X53495716Y-46436530D03*
X40295716Y-54036530D03*
X54495716Y-52136530D03*
X54495716Y-51286530D03*
X40295716Y-53186530D03*
%TD*%
M02*
