%TF.GenerationSoftware,KiCad,Pcbnew,(6.0.4)*%
%TF.CreationDate,2022-05-08T20:42:15-04:00*%
%TF.ProjectId,STM32_Altimeter_R2,53544d33-325f-4416-9c74-696d65746572,0.1*%
%TF.SameCoordinates,Original*%
%TF.FileFunction,Soldermask,Top*%
%TF.FilePolarity,Negative*%
%FSLAX46Y46*%
G04 Gerber Fmt 4.6, Leading zero omitted, Abs format (unit mm)*
G04 Created by KiCad (PCBNEW (6.0.4)) date 2022-05-08 20:42:15*
%MOMM*%
%LPD*%
G01*
G04 APERTURE LIST*
G04 Aperture macros list*
%AMRoundRect*
0 Rectangle with rounded corners*
0 $1 Rounding radius*
0 $2 $3 $4 $5 $6 $7 $8 $9 X,Y pos of 4 corners*
0 Add a 4 corners polygon primitive as box body*
4,1,4,$2,$3,$4,$5,$6,$7,$8,$9,$2,$3,0*
0 Add four circle primitives for the rounded corners*
1,1,$1+$1,$2,$3*
1,1,$1+$1,$4,$5*
1,1,$1+$1,$6,$7*
1,1,$1+$1,$8,$9*
0 Add four rect primitives between the rounded corners*
20,1,$1+$1,$2,$3,$4,$5,0*
20,1,$1+$1,$4,$5,$6,$7,0*
20,1,$1+$1,$6,$7,$8,$9,0*
20,1,$1+$1,$8,$9,$2,$3,0*%
G04 Aperture macros list end*
%ADD10R,1.700000X1.700000*%
%ADD11O,1.700000X1.700000*%
%ADD12R,2.800000X2.800000*%
%ADD13C,2.800000*%
%ADD14R,0.550000X0.950000*%
%ADD15R,1.800000X1.200000*%
%ADD16R,1.550000X0.600000*%
%ADD17RoundRect,0.000001X-0.750000X0.900000X-0.750000X-0.900000X0.750000X-0.900000X0.750000X0.900000X0*%
%ADD18RoundRect,0.000001X-0.900000X0.750000X-0.900000X-0.750000X0.900000X-0.750000X0.900000X0.750000X0*%
%ADD19R,2.000000X2.000000*%
%ADD20C,2.000000*%
%ADD21C,5.600000*%
%ADD22C,1.450000*%
%ADD23O,1.900000X1.200000*%
G04 APERTURE END LIST*
D10*
%TO.C,J3*%
X53015593Y-104128255D03*
D11*
X50475593Y-104128255D03*
X47935593Y-104128255D03*
X45395593Y-104128255D03*
X42855593Y-104128255D03*
%TD*%
D12*
%TO.C,J1*%
X36015663Y-81952338D03*
D13*
X36015663Y-86952338D03*
X36015663Y-91952338D03*
X36015663Y-96952338D03*
%TD*%
D14*
%TO.C,U3*%
X58404186Y-71331317D03*
X59654186Y-71331317D03*
X60904186Y-71331317D03*
X62154186Y-71331317D03*
X62154186Y-69181317D03*
X60904186Y-69181317D03*
X59654186Y-69181317D03*
X58404186Y-69181317D03*
%TD*%
D15*
%TO.C,J6*%
X32963410Y-63937258D03*
X32963410Y-69537258D03*
D16*
X35488410Y-68237258D03*
X35488410Y-67237258D03*
X35488410Y-66237258D03*
X35488410Y-65237258D03*
%TD*%
D17*
%TO.C,U5*%
X51195716Y-43211530D03*
X49295716Y-43211530D03*
X47395716Y-43211530D03*
X45495716Y-43211530D03*
X43595716Y-43211530D03*
D18*
X40795716Y-46011530D03*
X40795716Y-47911530D03*
X40795716Y-49811530D03*
X40795716Y-51711530D03*
X40795716Y-53611530D03*
D17*
X43595716Y-56411530D03*
X45495716Y-56411530D03*
X47395716Y-56411530D03*
X49295716Y-56411530D03*
X51195716Y-56411530D03*
D18*
X53995716Y-53611530D03*
X53995716Y-51711530D03*
X53995716Y-49811530D03*
X53995716Y-47911530D03*
X53995716Y-46011530D03*
%TD*%
D10*
%TO.C,J5*%
X48723500Y-97490054D03*
D11*
X46183500Y-97490054D03*
%TD*%
D19*
%TO.C,BZ1*%
X43550000Y-73710000D03*
D20*
X51150000Y-73710000D03*
%TD*%
D12*
%TO.C,J2*%
X58640194Y-97032033D03*
D13*
X58640194Y-92032033D03*
X58640194Y-87032033D03*
X58640194Y-82032033D03*
%TD*%
D21*
%TO.C,H4*%
X59964242Y-44422692D03*
%TD*%
%TO.C,H3*%
X60131487Y-103112347D03*
%TD*%
%TO.C,H1*%
X35044552Y-103139760D03*
%TD*%
D22*
%TO.C,J4*%
X58867500Y-57960000D03*
D23*
X61567500Y-56960000D03*
D22*
X58867500Y-62960000D03*
D23*
X61567500Y-63960000D03*
%TD*%
D21*
%TO.C,H2*%
X34846669Y-44287519D03*
%TD*%
M02*
