M48
; DRILL file {KiCad (6.0.4)} date Sun May  8 20:42:12 2022
; FORMAT={-:-/ absolute / inch / decimal}
; #@! TF.CreationDate,2022-05-08T20:42:12-04:00
; #@! TF.GenerationSoftware,Kicad,Pcbnew,(6.0.4)
; #@! TF.FileFunction,Plated,1,4,PTH
FMAT,2
INCH
; #@! TA.AperFunction,Plated,PTH,ViaDrill
T1C0.0118
; #@! TA.AperFunction,Plated,PTH,ViaDrill
T2C0.0157
; #@! TA.AperFunction,Plated,PTH,ComponentDrill
T3C0.0236
; #@! TA.AperFunction,Plated,PTH,ComponentDrill
T4C0.0335
; #@! TA.AperFunction,Plated,PTH,ComponentDrill
T5C0.0394
; #@! TA.AperFunction,Plated,PTH,ComponentDrill
T6C0.0551
; #@! TA.AperFunction,Plated,PTH,ComponentDrill
T7C0.1260
%
G90
G05
T1
X1.2717Y-2.2047
X1.2884Y-1.9765
X1.2887Y-3.1471
X1.2921Y-3.7701
X1.2928Y-3.8564
X1.2956Y-1.91
X1.297Y-3.6378
X1.2998Y-3.2288
X1.311Y-2.1142
X1.3354Y-2.5713
X1.3669Y-2.5047
X1.3681Y-2.443
X1.3756Y-2.7535
X1.4429Y-2.5673
X1.4511Y-2.5186
X1.4515Y-2.4757
X1.4567Y-2.2929
X1.4798Y-3.0649
X1.4996Y-2.35
X1.5039Y-2.6098
X1.5118Y-2.4362
X1.5118Y-2.7717
X1.5118Y-2.8386
X1.5129Y-1.91
X1.5157Y-1.811
X1.5157Y-2.0906
X1.5157Y-2.1693
X1.5236Y-2.5276
X1.5335Y-2.6398
X1.5348Y-2.9838
X1.5349Y-1.6923
X1.5358Y-2.3854
X1.5433Y-3.3858
X1.5446Y-3.9553
X1.552Y-2.4654
X1.5535Y-2.239
X1.5613Y-4.0753
X1.5649Y-2.7371
X1.568Y-3.8162
X1.5709Y-3.5709
X1.5713Y-3.0933
X1.5916Y-2.6385
X1.5945Y-1.6929
X1.5945Y-1.752
X1.6063Y-3.6654
X1.608Y-2.6004
X1.6094Y-2.4913
X1.6165Y-2.374
X1.6213Y-2.2488
X1.6316Y-2.5165
X1.6339Y-2.185
X1.6366Y-2.298
X1.642Y-3.7832
X1.6472Y-3.0941
X1.6516Y-2.3937
X1.6535Y-1.6929
X1.6535Y-1.752
X1.6535Y-3.9764
X1.6614Y-3.5
X1.6739Y-2.7161
X1.6772Y-2.5461
X1.6786Y-2.8127
X1.6795Y-2.422
X1.6809Y-2.9822
X1.6811Y-3.148
X1.6858Y-2.1564
X1.6929Y-1.7913
X1.6929Y-1.8504
X1.6929Y-1.9094
X1.6929Y-1.9882
X1.6929Y-2.0472
X1.6929Y-2.1063
X1.7205Y-2.7441
X1.7209Y-3.4178
X1.7244Y-3.3189
X1.728Y-2.2933
X1.7292Y-3.0285
X1.7331Y-2.685
X1.7367Y-2.6406
X1.7474Y-3.964
X1.7504Y-2.1614
X1.7516Y-2.0466
X1.752Y-1.7913
X1.752Y-1.8504
X1.752Y-1.9882
X1.752Y-2.1063
X1.7524Y-1.909
X1.7843Y-2.4768
X1.798Y-1.7303
X1.7996Y-2.4205
X1.8031Y-2.7047
X1.8091Y-2.5185
X1.8212Y-3.6923
X1.8218Y-2.7459
X1.8256Y-2.3319
X1.8376Y-2.1158
X1.8381Y-2.5523
X1.8638Y-2.0408
X1.8673Y-1.7311
X1.8728Y-2.376
X1.8751Y-2.455
X1.8811Y-2.1678
X1.8936Y-2.2244
X1.8953Y-2.1059
X1.9Y-2.0657
X1.9Y-2.5457
X1.9Y-2.7496
X1.9008Y-2.7917
X1.9056Y-2.485
X1.9173Y-2.402
X1.9362Y-2.3287
X1.9366Y-3.9744
X1.9428Y-2.3697
X1.9441Y-2.0063
X1.9528Y-3.3661
X1.9551Y-1.7197
X1.9563Y-2.5449
X1.9874Y-2.7095
X1.9882Y-1.805
X1.9909Y-2.4724
X1.9957Y-2.0807
X1.9989Y-2.3257
X1.9996Y-2.411
X2.0067Y-2.7642
X2.0075Y-2.1874
X2.0087Y-2.363
X2.0142Y-3.0071
X2.0146Y-1.7126
X2.0157Y-2.6728
X2.0206Y-3.5574
X2.0301Y-3.0956
X2.0314Y-3.2889
X2.0325Y-3.3668
X2.0326Y-2.0378
X2.0358Y-2.8421
X2.038Y-3.9448
X2.0425Y-1.8489
X2.0472Y-1.7913
X2.0579Y-3.532
X2.0591Y-3.4724
X2.0628Y-2.2417
X2.063Y-2.5823
X2.065Y-2.0811
X2.0677Y-2.1969
X2.0772Y-2.3063
X2.0857Y-1.6929
X2.0878Y-1.7444
X2.1114Y-2.2681
X2.1165Y-2.6621
X2.1177Y-2.815
X2.1209Y-3.6091
X2.1339Y-2.5929
X2.1378Y-2.3043
X2.1395Y-3.8431
X2.145Y-3.741
X2.1457Y-1.6929
X2.1457Y-2.9063
X2.1494Y-1.752
X2.1543Y-2.1071
X2.1571Y-2.0378
X2.1599Y-3.2527
X2.161Y-3.0539
X2.1618Y-2.352
X2.1654Y-3.9764
X2.1657Y-3.3962
X2.1665Y-3.4942
X2.1732Y-2.1535
X2.1851Y-3.6139
X2.1862Y-2.589
X2.1929Y-2.3815
X2.1969Y-2.1969
X2.2047Y-1.752
X2.2047Y-1.811
X2.2047Y-1.8701
X2.2086Y-1.9223
X2.2086Y-4.0517
X2.2115Y-2.7953
X2.2185Y-2.511
X2.2276Y-2.4161
X2.235Y-2.5547
X2.2354Y-2.2157
X2.2355Y-2.263
X2.2551Y-2.6236
X2.2583Y-2.835
X2.2599Y-1.8686
X2.2638Y-1.9094
X2.2673Y-2.3917
X2.2688Y-3.0821
X2.2703Y-3.9229
X2.274Y-2.4335
X2.2787Y-3.0
X2.317Y-1.9179
X2.3173Y-2.6079
X2.3583Y-2.5669
X2.3602Y-2.522
X2.3614Y-2.6075
X2.3706Y-1.9174
X2.4016Y-2.5819
X2.4079Y-1.9583
X2.4121Y-1.894
X2.437Y-3.43
X2.4705Y-2.5992
X2.4742Y-3.0491
X2.4764Y-2.1413
T2
X1.6378Y-3.5394
X1.6531Y-2.6406
X2.1559Y-3.163
T4
X2.3176Y-2.2819
X2.3176Y-2.4787
T5
X1.6872Y-4.0995
X1.7146Y-2.902
X1.7872Y-4.0995
X1.8182Y-3.8382
X1.8872Y-4.0995
X1.9182Y-3.8382
X1.9872Y-4.0995
X2.0138Y-2.902
X2.0872Y-4.0995
T6
X1.4179Y-3.2265
X1.4179Y-3.4233
X1.4179Y-3.6202
X1.4179Y-3.817
X2.3087Y-3.2296
X2.3087Y-3.4265
X2.3087Y-3.6233
X2.3087Y-3.8202
T7
X1.3719Y-1.7436
X1.3797Y-4.0606
X2.3608Y-1.7489
X2.3674Y-4.0595
T3
G00X2.4101Y-2.2425
M15
G01X2.4377Y-2.2425
M16
G05
G00X2.4377Y-2.5181
M15
G01X2.4101Y-2.5181
M16
G05
T0
M30
