%TF.GenerationSoftware,KiCad,Pcbnew,(6.0.4)*%
%TF.CreationDate,2022-05-08T20:42:15-04:00*%
%TF.ProjectId,STM32_Altimeter_R2,53544d33-325f-4416-9c74-696d65746572,0.1*%
%TF.SameCoordinates,Original*%
%TF.FileFunction,Copper,L4,Bot*%
%TF.FilePolarity,Positive*%
%FSLAX46Y46*%
G04 Gerber Fmt 4.6, Leading zero omitted, Abs format (unit mm)*
G04 Created by KiCad (PCBNEW (6.0.4)) date 2022-05-08 20:42:15*
%MOMM*%
%LPD*%
G01*
G04 APERTURE LIST*
G04 Aperture macros list*
%AMRoundRect*
0 Rectangle with rounded corners*
0 $1 Rounding radius*
0 $2 $3 $4 $5 $6 $7 $8 $9 X,Y pos of 4 corners*
0 Add a 4 corners polygon primitive as box body*
4,1,4,$2,$3,$4,$5,$6,$7,$8,$9,$2,$3,0*
0 Add four circle primitives for the rounded corners*
1,1,$1+$1,$2,$3*
1,1,$1+$1,$4,$5*
1,1,$1+$1,$6,$7*
1,1,$1+$1,$8,$9*
0 Add four rect primitives between the rounded corners*
20,1,$1+$1,$2,$3,$4,$5,0*
20,1,$1+$1,$4,$5,$6,$7,0*
20,1,$1+$1,$6,$7,$8,$9,0*
20,1,$1+$1,$8,$9,$2,$3,0*%
%AMFreePoly0*
4,1,25,0.528536,0.591036,0.530000,0.587500,0.530000,0.367500,0.725000,0.367500,0.728536,0.366036,0.730000,0.362500,0.730000,0.062500,0.728536,0.058964,0.725000,0.057500,0.530000,0.057500,0.530000,-0.282500,0.725000,-0.282500,0.728536,-0.283964,0.730000,-0.287500,0.730000,-0.587500,0.728536,-0.591036,0.725000,-0.592500,-0.525000,-0.592500,-0.528536,-0.591036,-0.530000,-0.587500,
-0.530000,0.587500,-0.528536,0.591036,-0.525000,0.592500,0.525000,0.592500,0.528536,0.591036,0.528536,0.591036,$1*%
%AMFreePoly1*
4,1,25,0.728536,0.591036,0.730000,0.587500,0.730000,0.287500,0.728536,0.283964,0.725000,0.282500,0.530000,0.282500,0.530000,-0.057500,0.725000,-0.057500,0.728536,-0.058964,0.730000,-0.062500,0.730000,-0.362500,0.728536,-0.366036,0.725000,-0.367500,0.530000,-0.367500,0.530000,-0.587500,0.528536,-0.591036,0.525000,-0.592500,-0.525000,-0.592500,-0.528536,-0.591036,-0.530000,-0.587500,
-0.530000,0.587500,-0.528536,0.591036,-0.525000,0.592500,0.725000,0.592500,0.728536,0.591036,0.728536,0.591036,$1*%
%AMFreePoly2*
4,1,9,3.862500,-0.866500,0.737500,-0.866500,0.737500,-0.450000,-0.737500,-0.450000,-0.737500,0.450000,0.737500,0.450000,0.737500,0.866500,3.862500,0.866500,3.862500,-0.866500,3.862500,-0.866500,$1*%
G04 Aperture macros list end*
%TA.AperFunction,ComponentPad*%
%ADD10R,1.700000X1.700000*%
%TD*%
%TA.AperFunction,ComponentPad*%
%ADD11O,1.700000X1.700000*%
%TD*%
%TA.AperFunction,ComponentPad*%
%ADD12R,2.800000X2.800000*%
%TD*%
%TA.AperFunction,ComponentPad*%
%ADD13C,2.800000*%
%TD*%
%TA.AperFunction,ComponentPad*%
%ADD14R,2.000000X2.000000*%
%TD*%
%TA.AperFunction,ComponentPad*%
%ADD15C,2.000000*%
%TD*%
%TA.AperFunction,SMDPad,CuDef*%
%ADD16RoundRect,0.135000X0.135000X0.185000X-0.135000X0.185000X-0.135000X-0.185000X0.135000X-0.185000X0*%
%TD*%
%TA.AperFunction,SMDPad,CuDef*%
%ADD17RoundRect,0.147500X0.172500X-0.147500X0.172500X0.147500X-0.172500X0.147500X-0.172500X-0.147500X0*%
%TD*%
%TA.AperFunction,SMDPad,CuDef*%
%ADD18RoundRect,0.243750X-0.456250X0.243750X-0.456250X-0.243750X0.456250X-0.243750X0.456250X0.243750X0*%
%TD*%
%TA.AperFunction,SMDPad,CuDef*%
%ADD19RoundRect,0.135000X-0.135000X-0.185000X0.135000X-0.185000X0.135000X0.185000X-0.135000X0.185000X0*%
%TD*%
%TA.AperFunction,SMDPad,CuDef*%
%ADD20RoundRect,0.243750X-0.243750X-0.456250X0.243750X-0.456250X0.243750X0.456250X-0.243750X0.456250X0*%
%TD*%
%TA.AperFunction,SMDPad,CuDef*%
%ADD21RoundRect,0.135000X-0.185000X0.135000X-0.185000X-0.135000X0.185000X-0.135000X0.185000X0.135000X0*%
%TD*%
%TA.AperFunction,SMDPad,CuDef*%
%ADD22R,0.350000X0.300000*%
%TD*%
%TA.AperFunction,SMDPad,CuDef*%
%ADD23FreePoly0,0.000000*%
%TD*%
%TA.AperFunction,SMDPad,CuDef*%
%ADD24FreePoly1,0.000000*%
%TD*%
%TA.AperFunction,SMDPad,CuDef*%
%ADD25RoundRect,0.075000X0.075000X-0.662500X0.075000X0.662500X-0.075000X0.662500X-0.075000X-0.662500X0*%
%TD*%
%TA.AperFunction,SMDPad,CuDef*%
%ADD26RoundRect,0.075000X0.662500X-0.075000X0.662500X0.075000X-0.662500X0.075000X-0.662500X-0.075000X0*%
%TD*%
%TA.AperFunction,ComponentPad*%
%ADD27C,5.600000*%
%TD*%
%TA.AperFunction,SMDPad,CuDef*%
%ADD28RoundRect,0.140000X0.140000X0.170000X-0.140000X0.170000X-0.140000X-0.170000X0.140000X-0.170000X0*%
%TD*%
%TA.AperFunction,SMDPad,CuDef*%
%ADD29RoundRect,0.135000X0.185000X-0.135000X0.185000X0.135000X-0.185000X0.135000X-0.185000X-0.135000X0*%
%TD*%
%TA.AperFunction,SMDPad,CuDef*%
%ADD30R,1.400000X1.200000*%
%TD*%
%TA.AperFunction,SMDPad,CuDef*%
%ADD31RoundRect,0.200000X0.275000X-0.200000X0.275000X0.200000X-0.275000X0.200000X-0.275000X-0.200000X0*%
%TD*%
%TA.AperFunction,SMDPad,CuDef*%
%ADD32RoundRect,0.200000X0.200000X0.275000X-0.200000X0.275000X-0.200000X-0.275000X0.200000X-0.275000X0*%
%TD*%
%TA.AperFunction,SMDPad,CuDef*%
%ADD33R,1.300000X0.900000*%
%TD*%
%TA.AperFunction,SMDPad,CuDef*%
%ADD34FreePoly2,0.000000*%
%TD*%
%TA.AperFunction,SMDPad,CuDef*%
%ADD35RoundRect,0.200000X-0.200000X-0.275000X0.200000X-0.275000X0.200000X0.275000X-0.200000X0.275000X0*%
%TD*%
%TA.AperFunction,SMDPad,CuDef*%
%ADD36RoundRect,0.140000X0.170000X-0.140000X0.170000X0.140000X-0.170000X0.140000X-0.170000X-0.140000X0*%
%TD*%
%TA.AperFunction,SMDPad,CuDef*%
%ADD37RoundRect,0.140000X-0.170000X0.140000X-0.170000X-0.140000X0.170000X-0.140000X0.170000X0.140000X0*%
%TD*%
%TA.AperFunction,SMDPad,CuDef*%
%ADD38R,0.900000X1.200000*%
%TD*%
%TA.AperFunction,SMDPad,CuDef*%
%ADD39RoundRect,0.150000X0.150000X-0.650000X0.150000X0.650000X-0.150000X0.650000X-0.150000X-0.650000X0*%
%TD*%
%TA.AperFunction,SMDPad,CuDef*%
%ADD40RoundRect,0.250000X0.650000X-0.325000X0.650000X0.325000X-0.650000X0.325000X-0.650000X-0.325000X0*%
%TD*%
%TA.AperFunction,SMDPad,CuDef*%
%ADD41R,0.920000X0.610000*%
%TD*%
%TA.AperFunction,SMDPad,CuDef*%
%ADD42R,0.610000X0.920000*%
%TD*%
%TA.AperFunction,SMDPad,CuDef*%
%ADD43R,0.250000X0.675000*%
%TD*%
%TA.AperFunction,SMDPad,CuDef*%
%ADD44R,0.675000X0.250000*%
%TD*%
%TA.AperFunction,SMDPad,CuDef*%
%ADD45RoundRect,0.140000X-0.140000X-0.170000X0.140000X-0.170000X0.140000X0.170000X-0.140000X0.170000X0*%
%TD*%
%TA.AperFunction,SMDPad,CuDef*%
%ADD46R,1.350000X0.400000*%
%TD*%
%TA.AperFunction,ComponentPad*%
%ADD47C,1.450000*%
%TD*%
%TA.AperFunction,SMDPad,CuDef*%
%ADD48R,1.900000X1.200000*%
%TD*%
%TA.AperFunction,ComponentPad*%
%ADD49O,1.900000X1.200000*%
%TD*%
%TA.AperFunction,SMDPad,CuDef*%
%ADD50R,1.900000X1.500000*%
%TD*%
%TA.AperFunction,SMDPad,CuDef*%
%ADD51RoundRect,0.200000X-0.275000X0.200000X-0.275000X-0.200000X0.275000X-0.200000X0.275000X0.200000X0*%
%TD*%
%TA.AperFunction,SMDPad,CuDef*%
%ADD52RoundRect,0.150000X-0.150000X0.587500X-0.150000X-0.587500X0.150000X-0.587500X0.150000X0.587500X0*%
%TD*%
%TA.AperFunction,ViaPad*%
%ADD53C,0.500000*%
%TD*%
%TA.AperFunction,ViaPad*%
%ADD54C,0.600000*%
%TD*%
%TA.AperFunction,Conductor*%
%ADD55C,0.750000*%
%TD*%
%TA.AperFunction,Conductor*%
%ADD56C,0.300000*%
%TD*%
%TA.AperFunction,Conductor*%
%ADD57C,0.250000*%
%TD*%
%TA.AperFunction,Conductor*%
%ADD58C,0.500000*%
%TD*%
%TA.AperFunction,Conductor*%
%ADD59C,0.200000*%
%TD*%
G04 APERTURE END LIST*
D10*
%TO.P,J3,1,Pin_1*%
%TO.N,SWCLK*%
X53015593Y-104128255D03*
D11*
%TO.P,J3,2,Pin_2*%
%TO.N,SWDIO*%
X50475593Y-104128255D03*
%TO.P,J3,3,Pin_3*%
%TO.N,NRST*%
X47935593Y-104128255D03*
%TO.P,J3,4,Pin_4*%
%TO.N,GND*%
X45395593Y-104128255D03*
%TO.P,J3,5,Pin_5*%
%TO.N,+3V3*%
X42855593Y-104128255D03*
%TD*%
D12*
%TO.P,J1,1,Pin_1*%
%TO.N,+7.5V*%
X36015663Y-81952338D03*
D13*
%TO.P,J1,2,Pin_2*%
%TO.N,Pyro_Main*%
X36015663Y-86952338D03*
%TO.P,J1,3,Pin_3*%
%TO.N,+7.5V*%
X36015663Y-91952338D03*
%TO.P,J1,4,Pin_4*%
%TO.N,Pyro_Dr*%
X36015663Y-96952338D03*
%TD*%
D10*
%TO.P,J5,1,Pin_1*%
%TO.N,Net-(J5-Pad1)*%
X48723500Y-97490054D03*
D11*
%TO.P,J5,2,Pin_2*%
%TO.N,+3V3*%
X46183500Y-97490054D03*
%TD*%
D14*
%TO.P,BZ1,1,-*%
%TO.N,Net-(BZ1-Pad1)*%
X43550000Y-73710000D03*
D15*
%TO.P,BZ1,2,+*%
%TO.N,GND*%
X51150000Y-73710000D03*
%TD*%
D12*
%TO.P,J2,1,Pin_1*%
%TO.N,Batt_IN*%
X58640194Y-97032033D03*
D13*
%TO.P,J2,2,Pin_2*%
%TO.N,GND*%
X58640194Y-92032033D03*
%TO.P,J2,3,Pin_3*%
%TO.N,Batt_IN*%
X58640194Y-87032033D03*
%TO.P,J2,4,Pin_4*%
%TO.N,+7.5V*%
X58640194Y-82032033D03*
%TD*%
D16*
%TO.P,R16,1*%
%TO.N,Net-(Q2-Pad2)*%
X45637609Y-90710775D03*
%TO.P,R16,2*%
%TO.N,Fire_Dr*%
X44617609Y-90710775D03*
%TD*%
D17*
%TO.P,L1,1*%
%TO.N,+3V3*%
X48930000Y-73755000D03*
%TO.P,L1,2*%
%TO.N,+3.3VA*%
X48930000Y-72785000D03*
%TD*%
D18*
%TO.P,D3,1,K*%
%TO.N,GND*%
X47510000Y-75662500D03*
%TO.P,D3,2,A*%
%TO.N,Net-(D3-Pad2)*%
X47510000Y-77537500D03*
%TD*%
D19*
%TO.P,R1,1*%
%TO.N,GND*%
X46443130Y-100894263D03*
%TO.P,R1,2*%
%TO.N,Net-(J5-Pad1)*%
X47463130Y-100894263D03*
%TD*%
D20*
%TO.P,D2,1,K*%
%TO.N,GND*%
X33362500Y-72110000D03*
%TO.P,D2,2,A*%
%TO.N,Net-(D2-Pad2)*%
X35237500Y-72110000D03*
%TD*%
D21*
%TO.P,R17,1*%
%TO.N,GND*%
X50272392Y-91410877D03*
%TO.P,R17,2*%
%TO.N,Fire_Dr*%
X50272392Y-92430877D03*
%TD*%
D22*
%TO.P,Q2,1*%
%TO.N,Pyro_Dr*%
X47649242Y-91052273D03*
%TO.P,Q2,2*%
%TO.N,Net-(Q2-Pad2)*%
X47649242Y-90402273D03*
%TO.P,Q2,3*%
%TO.N,Pyro_Main*%
X47649242Y-89752273D03*
%TO.P,Q2,4*%
%TO.N,Net-(Q2-Pad4)*%
X47649242Y-89102273D03*
D23*
%TO.P,Q2,5_6*%
%TO.N,GND*%
X48649242Y-89314773D03*
D24*
%TO.P,Q2,7_8*%
X48649242Y-90839773D03*
%TD*%
D25*
%TO.P,U1,1,VLCD*%
%TO.N,+3V3*%
X50960000Y-66222500D03*
%TO.P,U1,2,PC13*%
%TO.N,CS_Flash*%
X50460000Y-66222500D03*
%TO.P,U1,3,PC14*%
%TO.N,CS_ADXL*%
X49960000Y-66222500D03*
%TO.P,U1,4,PC15*%
%TO.N,CS_Baro*%
X49460000Y-66222500D03*
%TO.P,U1,5,PH0*%
%TO.N,HSE_IN*%
X48960000Y-66222500D03*
%TO.P,U1,6,PH1*%
%TO.N,HSE_Out*%
X48460000Y-66222500D03*
%TO.P,U1,7,NRST*%
%TO.N,NRST*%
X47960000Y-66222500D03*
%TO.P,U1,8,VSSA*%
%TO.N,GND*%
X47460000Y-66222500D03*
%TO.P,U1,9,VDDA*%
%TO.N,+3.3VA*%
X46960000Y-66222500D03*
%TO.P,U1,10,PA0*%
%TO.N,Net-(R2-Pad2)*%
X46460000Y-66222500D03*
%TO.P,U1,11,PA1*%
%TO.N,Net-(R3-Pad2)*%
X45960000Y-66222500D03*
%TO.P,U1,12,PA2*%
%TO.N,V_Batt*%
X45460000Y-66222500D03*
D26*
%TO.P,U1,13,PA3*%
%TO.N,Cont_Dr*%
X44047500Y-64810000D03*
%TO.P,U1,14,PA4*%
%TO.N,CS_Acc*%
X44047500Y-64310000D03*
%TO.P,U1,15,PA5*%
%TO.N,SPI1_SCK*%
X44047500Y-63810000D03*
%TO.P,U1,16,PA6*%
%TO.N,SPI1_MISO*%
X44047500Y-63310000D03*
%TO.P,U1,17,PA7*%
%TO.N,SPI1_MOSI*%
X44047500Y-62810000D03*
%TO.P,U1,18,PB0*%
%TO.N,CS_Gyro*%
X44047500Y-62310000D03*
%TO.P,U1,19,PB1*%
%TO.N,Cont_Main*%
X44047500Y-61810000D03*
%TO.P,U1,20,PB2*%
%TO.N,unconnected-(U1-Pad20)*%
X44047500Y-61310000D03*
%TO.P,U1,21,PB10*%
%TO.N,USART3_TX*%
X44047500Y-60810000D03*
%TO.P,U1,22,PB11*%
%TO.N,USART3_RX*%
X44047500Y-60310000D03*
%TO.P,U1,23,VSS*%
%TO.N,GND*%
X44047500Y-59810000D03*
%TO.P,U1,24,VDD*%
%TO.N,+3V3*%
X44047500Y-59310000D03*
D25*
%TO.P,U1,25,PB12*%
%TO.N,Fire_Main*%
X45460000Y-57897500D03*
%TO.P,U1,26,PB13*%
%TO.N,SPI2_SCK*%
X45960000Y-57897500D03*
%TO.P,U1,27,PB14*%
%TO.N,SPI2_MISO*%
X46460000Y-57897500D03*
%TO.P,U1,28,PB15*%
%TO.N,SPI2_MOSI*%
X46960000Y-57897500D03*
%TO.P,U1,29,PA8*%
%TO.N,Fire_Dr*%
X47460000Y-57897500D03*
%TO.P,U1,30,PA9*%
%TO.N,USART1_TX*%
X47960000Y-57897500D03*
%TO.P,U1,31,PA10*%
%TO.N,USART1_RX*%
X48460000Y-57897500D03*
%TO.P,U1,32,PA11*%
%TO.N,USB_D-*%
X48960000Y-57897500D03*
%TO.P,U1,33,PA12*%
%TO.N,USB_D+*%
X49460000Y-57897500D03*
%TO.P,U1,34,PA13*%
%TO.N,SWDIO*%
X49960000Y-57897500D03*
%TO.P,U1,35,VSS*%
%TO.N,GND*%
X50460000Y-57897500D03*
%TO.P,U1,36,VDD*%
%TO.N,+3V3*%
X50960000Y-57897500D03*
D26*
%TO.P,U1,37,PA14*%
%TO.N,SWCLK*%
X52372500Y-59310000D03*
%TO.P,U1,38,PA15*%
%TO.N,unconnected-(U1-Pad38)*%
X52372500Y-59810000D03*
%TO.P,U1,39,PB3*%
%TO.N,unconnected-(U1-Pad39)*%
X52372500Y-60310000D03*
%TO.P,U1,40,PB4*%
%TO.N,unconnected-(U1-Pad40)*%
X52372500Y-60810000D03*
%TO.P,U1,41,PB5*%
%TO.N,unconnected-(U1-Pad41)*%
X52372500Y-61310000D03*
%TO.P,U1,42,PB6*%
%TO.N,Beeper*%
X52372500Y-61810000D03*
%TO.P,U1,43,PB7*%
%TO.N,unconnected-(U1-Pad43)*%
X52372500Y-62310000D03*
%TO.P,U1,44,BOOT0*%
%TO.N,Net-(J5-Pad1)*%
X52372500Y-62810000D03*
%TO.P,U1,45,PB8*%
%TO.N,unconnected-(U1-Pad45)*%
X52372500Y-63310000D03*
%TO.P,U1,46,PB9*%
%TO.N,unconnected-(U1-Pad46)*%
X52372500Y-63810000D03*
%TO.P,U1,47,VSS*%
%TO.N,GND*%
X52372500Y-64310000D03*
%TO.P,U1,48,VDD*%
%TO.N,+3V3*%
X52372500Y-64810000D03*
%TD*%
D27*
%TO.P,H4,1,1*%
%TO.N,GND*%
X59964242Y-44422692D03*
%TD*%
D28*
%TO.P,C11,1*%
%TO.N,+3V3*%
X47463930Y-45115219D03*
%TO.P,C11,2*%
%TO.N,GND*%
X46503930Y-45115219D03*
%TD*%
D29*
%TO.P,R12,1*%
%TO.N,Net-(Q2-Pad4)*%
X46600000Y-88310000D03*
%TO.P,R12,2*%
%TO.N,Fire_Main*%
X46600000Y-87290000D03*
%TD*%
D30*
%TO.P,Y1,1,1*%
%TO.N,HSE_IN*%
X59850536Y-51024328D03*
%TO.P,Y1,2,2*%
%TO.N,GND*%
X62050536Y-51024328D03*
%TO.P,Y1,3,3*%
%TO.N,Net-(C10-Pad1)*%
X62050536Y-52724328D03*
%TO.P,Y1,4,4*%
%TO.N,GND*%
X59850536Y-52724328D03*
%TD*%
D28*
%TO.P,C10,1*%
%TO.N,Net-(C10-Pad1)*%
X60439933Y-54249769D03*
%TO.P,C10,2*%
%TO.N,GND*%
X59479933Y-54249769D03*
%TD*%
D31*
%TO.P,R7,1*%
%TO.N,Net-(D3-Pad2)*%
X49540000Y-77465000D03*
%TO.P,R7,2*%
%TO.N,+3V3*%
X49540000Y-75815000D03*
%TD*%
D32*
%TO.P,R11,1*%
%TO.N,Pyro_Main*%
X45296604Y-89245903D03*
%TO.P,R11,2*%
%TO.N,Cont_Main*%
X43646604Y-89245903D03*
%TD*%
D29*
%TO.P,R4,1*%
%TO.N,Net-(BZ1-Pad1)*%
X43769846Y-71910860D03*
%TO.P,R4,2*%
%TO.N,Beeper*%
X43769846Y-70890860D03*
%TD*%
D33*
%TO.P,U2,1,GND*%
%TO.N,GND*%
X58914503Y-73064412D03*
D34*
%TO.P,U2,2,VIN*%
%TO.N,Net-(C7-Pad1)*%
X59002003Y-71564412D03*
D33*
%TO.P,U2,3,VOUT*%
%TO.N,+3V3*%
X58914503Y-70064412D03*
%TD*%
D35*
%TO.P,R3,1*%
%TO.N,Net-(D2-Pad2)*%
X33465000Y-74040000D03*
%TO.P,R3,2*%
%TO.N,Net-(R3-Pad2)*%
X35115000Y-74040000D03*
%TD*%
D36*
%TO.P,C1,1*%
%TO.N,+3V3*%
X54027552Y-65075802D03*
%TO.P,C1,2*%
%TO.N,GND*%
X54027552Y-64115802D03*
%TD*%
D37*
%TO.P,C3,1*%
%TO.N,+3V3*%
X42480000Y-58760000D03*
%TO.P,C3,2*%
%TO.N,GND*%
X42480000Y-59720000D03*
%TD*%
%TO.P,C9,1*%
%TO.N,HSE_IN*%
X58220000Y-51270000D03*
%TO.P,C9,2*%
%TO.N,GND*%
X58220000Y-52230000D03*
%TD*%
D38*
%TO.P,D4,1,K*%
%TO.N,Net-(C7-Pad1)*%
X62289247Y-67467548D03*
%TO.P,D4,2,A*%
%TO.N,V_USB*%
X58989247Y-67467548D03*
%TD*%
D31*
%TO.P,R9,1*%
%TO.N,GND*%
X43537244Y-79977496D03*
%TO.P,R9,2*%
%TO.N,V_Batt*%
X43537244Y-78327496D03*
%TD*%
D27*
%TO.P,H3,1,1*%
%TO.N,GND*%
X60131487Y-103112347D03*
%TD*%
D28*
%TO.P,C13,1*%
%TO.N,+3V3*%
X36140132Y-48184096D03*
%TO.P,C13,2*%
%TO.N,GND*%
X35180132Y-48184096D03*
%TD*%
%TO.P,C14,1*%
%TO.N,+3V3*%
X36104925Y-49267990D03*
%TO.P,C14,2*%
%TO.N,GND*%
X35144925Y-49267990D03*
%TD*%
D39*
%TO.P,U4,1,~{CS}*%
%TO.N,CS_Flash*%
X36922847Y-66883294D03*
%TO.P,U4,2,DO(IO1)*%
%TO.N,SPI1_MISO*%
X35652847Y-66883294D03*
%TO.P,U4,3,IO2*%
%TO.N,+3V3*%
X34382847Y-66883294D03*
%TO.P,U4,4,GND*%
%TO.N,GND*%
X33112847Y-66883294D03*
%TO.P,U4,5,DI(IO0)*%
%TO.N,SPI1_MOSI*%
X33112847Y-59683294D03*
%TO.P,U4,6,CLK*%
%TO.N,SPI1_SCK*%
X34382847Y-59683294D03*
%TO.P,U4,7,IO3*%
%TO.N,+3V3*%
X35652847Y-59683294D03*
%TO.P,U4,8,VCC*%
X36922847Y-59683294D03*
%TD*%
D40*
%TO.P,C8,1*%
%TO.N,+3V3*%
X55870000Y-69763531D03*
%TO.P,C8,2*%
%TO.N,GND*%
X55870000Y-66813531D03*
%TD*%
D37*
%TO.P,C4,1*%
%TO.N,+3V3*%
X52070000Y-66410000D03*
%TO.P,C4,2*%
%TO.N,GND*%
X52070000Y-67370000D03*
%TD*%
D35*
%TO.P,R2,1*%
%TO.N,Net-(D1-Pad2)*%
X33475000Y-75670000D03*
%TO.P,R2,2*%
%TO.N,Net-(R2-Pad2)*%
X35125000Y-75670000D03*
%TD*%
D27*
%TO.P,H1,1,1*%
%TO.N,GND*%
X35044552Y-103139760D03*
%TD*%
D41*
%TO.P,IC2,1,VDD_IO*%
%TO.N,+3V3*%
X34802500Y-55200000D03*
%TO.P,IC2,2,GND*%
%TO.N,GND*%
X34802500Y-54400000D03*
%TO.P,IC2,3,NC*%
%TO.N,unconnected-(IC2-Pad3)*%
X34802500Y-53600000D03*
%TO.P,IC2,4,GND*%
%TO.N,GND*%
X34802500Y-52800000D03*
%TO.P,IC2,5,GND*%
X34802500Y-52000000D03*
%TO.P,IC2,6,Vs*%
%TO.N,+3V3*%
X34802500Y-51200000D03*
D42*
%TO.P,IC2,7,CS*%
%TO.N,CS_ADXL*%
X35812500Y-51190000D03*
D41*
%TO.P,IC2,8,INT1*%
%TO.N,unconnected-(IC2-Pad8)*%
X36822500Y-51200000D03*
%TO.P,IC2,9,INT2*%
%TO.N,unconnected-(IC2-Pad9)*%
X36822500Y-52000000D03*
%TO.P,IC2,10,NC*%
%TO.N,unconnected-(IC2-Pad10)*%
X36822500Y-52800000D03*
%TO.P,IC2,11,NC*%
%TO.N,unconnected-(IC2-Pad11)*%
X36822500Y-53600000D03*
%TO.P,IC2,12,SDO*%
%TO.N,SPI1_MISO*%
X36822500Y-54400000D03*
%TO.P,IC2,13,SDI*%
%TO.N,SPI1_MOSI*%
X36822500Y-55200000D03*
D42*
%TO.P,IC2,14,SCLK*%
%TO.N,SPI1_SCK*%
X35812500Y-55210000D03*
%TD*%
D37*
%TO.P,C17,1*%
%TO.N,+3V3*%
X55936515Y-51731044D03*
%TO.P,C17,2*%
%TO.N,GND*%
X55936515Y-52691044D03*
%TD*%
D16*
%TO.P,R6,1*%
%TO.N,Net-(C10-Pad1)*%
X58430000Y-54220000D03*
%TO.P,R6,2*%
%TO.N,HSE_Out*%
X57410000Y-54220000D03*
%TD*%
D32*
%TO.P,R15,1*%
%TO.N,GND*%
X46025000Y-95100000D03*
%TO.P,R15,2*%
%TO.N,Cont_Dr*%
X44375000Y-95100000D03*
%TD*%
D37*
%TO.P,C12,1*%
%TO.N,+3V3*%
X48129461Y-50367885D03*
%TO.P,C12,2*%
%TO.N,GND*%
X48129461Y-51327885D03*
%TD*%
D20*
%TO.P,D1,1,K*%
%TO.N,GND*%
X33432500Y-77600000D03*
%TO.P,D1,2,A*%
%TO.N,Net-(D1-Pad2)*%
X35307500Y-77600000D03*
%TD*%
D28*
%TO.P,C2,1*%
%TO.N,+3V3*%
X51486069Y-56200000D03*
%TO.P,C2,2*%
%TO.N,GND*%
X50526069Y-56200000D03*
%TD*%
D40*
%TO.P,C7,1*%
%TO.N,Net-(C7-Pad1)*%
X55930000Y-75905000D03*
%TO.P,C7,2*%
%TO.N,GND*%
X55930000Y-72955000D03*
%TD*%
D37*
%TO.P,C5,1*%
%TO.N,+3.3VA*%
X46580000Y-72740000D03*
%TO.P,C5,2*%
%TO.N,GND*%
X46580000Y-73700000D03*
%TD*%
D43*
%TO.P,IC1,1,INT2*%
%TO.N,unconnected-(IC1-Pad1)*%
X49423756Y-46773628D03*
%TO.P,IC1,2*%
%TO.N,N/C*%
X48923756Y-46773628D03*
%TO.P,IC1,3,VDD*%
%TO.N,+3V3*%
X48423756Y-46773628D03*
%TO.P,IC1,4,GNDA*%
%TO.N,GND*%
X47923756Y-46773628D03*
%TO.P,IC1,5,CSB2*%
%TO.N,CS_Gyro*%
X47423756Y-46773628D03*
%TO.P,IC1,6,GNDIO*%
%TO.N,GND*%
X46923756Y-46773628D03*
%TO.P,IC1,7,PS*%
X46423756Y-46773628D03*
D44*
%TO.P,IC1,8,SCX*%
%TO.N,SPI2_SCK*%
X45913166Y-48038380D03*
D43*
%TO.P,IC1,9,SDX*%
%TO.N,SPI2_MOSI*%
X46425216Y-49300448D03*
%TO.P,IC1,10,SDO2*%
%TO.N,SPI2_MISO*%
X46925215Y-49300448D03*
%TO.P,IC1,11,VDDIO*%
%TO.N,+3V3*%
X47425215Y-49300448D03*
%TO.P,IC1,12,INT3*%
%TO.N,unconnected-(IC1-Pad12)*%
X47925215Y-49300448D03*
%TO.P,IC1,13,INT4*%
%TO.N,unconnected-(IC1-Pad13)*%
X48425215Y-49300448D03*
%TO.P,IC1,14,CSB1*%
%TO.N,CS_Acc*%
X48925216Y-49300448D03*
%TO.P,IC1,15,SDO1*%
%TO.N,SPI2_MISO*%
X49425216Y-49300448D03*
D44*
%TO.P,IC1,16,INT1*%
%TO.N,unconnected-(IC1-Pad16)*%
X49937636Y-48038480D03*
%TD*%
D35*
%TO.P,R10,1*%
%TO.N,Cont_Main*%
X43775000Y-85500000D03*
%TO.P,R10,2*%
%TO.N,GND*%
X45425000Y-85500000D03*
%TD*%
%TO.P,R14,1*%
%TO.N,Cont_Dr*%
X44275000Y-92500000D03*
%TO.P,R14,2*%
%TO.N,Pyro_Dr*%
X45925000Y-92500000D03*
%TD*%
D37*
%TO.P,C6,1*%
%TO.N,+3.3VA*%
X47760000Y-72790000D03*
%TO.P,C6,2*%
%TO.N,GND*%
X47760000Y-73750000D03*
%TD*%
D45*
%TO.P,C15,1*%
%TO.N,+3V3*%
X58438981Y-74610715D03*
%TO.P,C15,2*%
%TO.N,GND*%
X59398981Y-74610715D03*
%TD*%
D46*
%TO.P,J4,1,VBUS*%
%TO.N,V_USB*%
X58867500Y-59160000D03*
%TO.P,J4,2,D-*%
%TO.N,USB_D-*%
X58867500Y-59810000D03*
%TO.P,J4,3,D+*%
%TO.N,USB_D+*%
X58867500Y-60460000D03*
%TO.P,J4,4,ID*%
%TO.N,unconnected-(J4-Pad4)*%
X58867500Y-61110000D03*
%TO.P,J4,5,GND*%
%TO.N,GND*%
X58867500Y-61760000D03*
D47*
%TO.P,J4,6,Shield*%
%TO.N,unconnected-(J4-Pad6)*%
X58867500Y-57960000D03*
D48*
X61567500Y-63360000D03*
D49*
X61567500Y-56960000D03*
D50*
X61567500Y-59460000D03*
X61567500Y-61460000D03*
D48*
X61567500Y-57560000D03*
D47*
X58867500Y-62960000D03*
D49*
X61567500Y-63960000D03*
%TD*%
D21*
%TO.P,R13,1*%
%TO.N,Fire_Main*%
X50249159Y-87690000D03*
%TO.P,R13,2*%
%TO.N,GND*%
X50249159Y-88710000D03*
%TD*%
D51*
%TO.P,R8,1*%
%TO.N,V_Batt*%
X45210000Y-78255000D03*
%TO.P,R8,2*%
%TO.N,+7.5V*%
X45210000Y-79905000D03*
%TD*%
D52*
%TO.P,Q1,1,G*%
%TO.N,GND*%
X59482762Y-76196182D03*
%TO.P,Q1,2,S*%
%TO.N,Net-(C7-Pad1)*%
X61382762Y-76196182D03*
%TO.P,Q1,3,D*%
%TO.N,+7.5V*%
X60432762Y-78071182D03*
%TD*%
D45*
%TO.P,C16,1*%
%TO.N,+3V3*%
X50090000Y-44360000D03*
%TO.P,C16,2*%
%TO.N,GND*%
X51050000Y-44360000D03*
%TD*%
D27*
%TO.P,H2,1,1*%
%TO.N,GND*%
X34846669Y-44287519D03*
%TD*%
D53*
%TO.N,GND*%
X38400000Y-70400000D03*
X54594295Y-44500000D03*
X38983400Y-75789287D03*
X52269627Y-89712142D03*
X58850822Y-48714258D03*
X32733729Y-79936252D03*
X40426548Y-67018895D03*
X54342624Y-97615531D03*
X44509962Y-48488044D03*
X51628153Y-51759633D03*
X44500000Y-50500000D03*
X51597605Y-83537835D03*
X56000000Y-47500000D03*
X49600000Y-85500000D03*
X33013747Y-82012686D03*
X38500000Y-46000000D03*
X41706288Y-96094514D03*
X56000000Y-44500000D03*
X42000000Y-43000000D03*
X57627915Y-78285349D03*
X38500000Y-55100000D03*
X56099159Y-48825812D03*
X41500000Y-55500000D03*
X61267823Y-48106909D03*
X42695211Y-75747003D03*
X32907263Y-48513349D03*
X34940000Y-69940000D03*
X60214258Y-48701863D03*
X32724902Y-50203221D03*
X49189876Y-100949964D03*
X54860557Y-82617515D03*
X53758063Y-67618062D03*
X51625494Y-85517917D03*
X42000000Y-101000000D03*
X55027888Y-88752980D03*
X43000000Y-48500000D03*
X40500000Y-44500000D03*
X39828464Y-96931169D03*
X44500000Y-53500000D03*
X41180000Y-57120000D03*
X44500000Y-47000000D03*
X44491370Y-51983400D03*
X43000000Y-50500000D03*
X32943109Y-92400840D03*
X39233510Y-100463709D03*
X51563747Y-78628812D03*
X32819160Y-95759853D03*
X42818062Y-54772248D03*
X57665411Y-99640475D03*
X57400621Y-47462376D03*
X57760000Y-61810000D03*
X36856744Y-63972997D03*
X54500000Y-43000000D03*
X54482066Y-95021902D03*
X34719342Y-63619743D03*
X39200000Y-86000000D03*
X39747677Y-69523236D03*
X50990000Y-55560000D03*
X54888446Y-77569701D03*
X43000000Y-53500000D03*
X40500000Y-43000000D03*
X55008473Y-86263912D03*
X61900611Y-87122745D03*
X62845328Y-77447986D03*
X34749614Y-62051791D03*
X39656824Y-103513582D03*
X52000000Y-45500000D03*
X38987531Y-42984059D03*
X56099598Y-102914341D03*
X51879816Y-46962815D03*
X43000000Y-52000000D03*
X51170000Y-43500000D03*
X38400000Y-72100000D03*
X45670000Y-43950000D03*
X43000000Y-47000000D03*
X44500000Y-45500000D03*
X43000000Y-45500000D03*
X38426699Y-48513349D03*
X54720000Y-53520000D03*
X57500000Y-48500000D03*
X33300000Y-53700000D03*
X51323276Y-90357888D03*
X42700000Y-79960269D03*
X57360000Y-72010000D03*
X51766376Y-100198485D03*
X42000000Y-44500000D03*
X38500000Y-53100000D03*
X48260000Y-52470000D03*
X39900000Y-90700000D03*
X56000000Y-46000000D03*
X52976763Y-43000000D03*
X55501992Y-91792825D03*
X44383582Y-100686817D03*
X32837752Y-97953746D03*
X50500000Y-45847276D03*
X43920933Y-76924098D03*
X37587036Y-77847344D03*
X40800000Y-93100000D03*
X36869139Y-62882247D03*
X53029410Y-44308105D03*
X55000000Y-101000000D03*
D54*
%TO.N,+7.5V*%
X54760000Y-80340000D03*
D53*
%TO.N,Pyro_Dr*%
X46258737Y-93783520D03*
%TO.N,+3V3*%
X49660000Y-43680000D03*
D54*
X57877895Y-76200423D03*
D53*
X33920000Y-65310000D03*
X32300000Y-56000000D03*
X38090000Y-59690000D03*
X54790000Y-51760000D03*
D54*
X56170847Y-71000847D03*
D53*
X52395218Y-56940000D03*
X47430000Y-43970000D03*
X41570000Y-58370000D03*
X49380000Y-50960000D03*
D54*
X51160000Y-76380000D03*
D53*
X51200000Y-67890000D03*
%TO.N,Net-(R3-Pad2)*%
X45800000Y-68700000D03*
X42516061Y-68989035D03*
%TO.N,Net-(R2-Pad2)*%
X46274309Y-69746670D03*
X43700000Y-69700000D03*
D54*
%TO.N,Cont_Dr*%
X41600000Y-89900000D03*
X41990000Y-67070500D03*
D53*
%TO.N,Cont_Main*%
X43800000Y-84300000D03*
X41442424Y-63919416D03*
X43710029Y-86811029D03*
X41840000Y-78590000D03*
X39910000Y-78570000D03*
X42200000Y-88900000D03*
X42660000Y-61520000D03*
X38950000Y-67050000D03*
%TO.N,HSE_Out*%
X56780000Y-56280000D03*
X54910000Y-59740000D03*
%TO.N,Net-(J5-Pad1)*%
X53790000Y-71500000D03*
X48280000Y-70910000D03*
X57280000Y-66640000D03*
%TO.N,Fire_Dr*%
X55700000Y-60490000D03*
X56780500Y-57481326D03*
X58860000Y-66240000D03*
X53870000Y-91670000D03*
%TO.N,Fire_Main*%
X52760000Y-58580000D03*
X48700000Y-61010000D03*
X56350000Y-63780000D03*
X54200000Y-65860000D03*
X51020000Y-60020000D03*
X52300000Y-88200000D03*
X50790000Y-61240000D03*
%TO.N,USART1_RX*%
X48096214Y-56500000D03*
%TO.N,USART1_TX*%
X49180000Y-59150000D03*
%TO.N,CS_Flash*%
X50481089Y-68821089D03*
X44020000Y-68200000D03*
%TO.N,SPI1_MISO*%
X38400000Y-61879500D03*
X39010000Y-60590000D03*
%TO.N,SPI1_MOSI*%
X37000000Y-58240000D03*
X39460000Y-56870000D03*
%TO.N,CS_ADXL*%
X38700000Y-64200000D03*
X45320000Y-62909500D03*
X41060000Y-60300000D03*
X48260000Y-64660000D03*
X40843771Y-66049831D03*
X39420000Y-62620000D03*
X49690000Y-64640000D03*
X42600000Y-64670000D03*
%TO.N,CS_Baro*%
X54500000Y-73820000D03*
X51710000Y-72190000D03*
X50970000Y-70210000D03*
%TO.N,HSE_IN*%
X55800000Y-55800000D03*
X50770838Y-59071926D03*
X53630008Y-57609992D03*
X49347173Y-60190741D03*
%TO.N,NRST*%
X48260000Y-69840000D03*
%TO.N,CS_Acc*%
X44460000Y-54900000D03*
X47626919Y-62355906D03*
X46370000Y-59230000D03*
X43890000Y-58250000D03*
X47570000Y-60350000D03*
X47780000Y-55062028D03*
%TO.N,USART3_TX*%
X45710000Y-61480000D03*
X36650000Y-65210000D03*
X45950000Y-63970000D03*
%TO.N,USART3_RX*%
X40880000Y-63280000D03*
X38200000Y-66290000D03*
X41950000Y-60800000D03*
%TO.N,SPI2_SCK*%
X59980000Y-66230000D03*
X61160000Y-49740000D03*
X62900000Y-54390000D03*
%TO.N,SPI2_MISO*%
X54300000Y-58530000D03*
X55200000Y-54700000D03*
X62750000Y-66020000D03*
X59900000Y-65200000D03*
D54*
X47340359Y-51835546D03*
D53*
X46676104Y-53741122D03*
X56580000Y-61370000D03*
%TO.N,SPI2_MOSI*%
X50690000Y-52850000D03*
X52520000Y-55800000D03*
X48140000Y-53490000D03*
X59950000Y-64060000D03*
X61000000Y-65580000D03*
X57590304Y-60749705D03*
X52450000Y-52860000D03*
%TO.N,SWDIO*%
X52400000Y-65590000D03*
%TO.N,SWCLK*%
X56770000Y-64890000D03*
X55530000Y-65760000D03*
%TO.N,Beeper*%
X42636882Y-71443407D03*
X44110989Y-67070000D03*
X46688033Y-64827846D03*
X50570000Y-62800000D03*
X48400980Y-63120000D03*
%TD*%
D55*
%TO.N,Batt_IN*%
X62019143Y-93653084D02*
X58640194Y-97032033D01*
X58640194Y-87032033D02*
X62019143Y-90410982D01*
X62019143Y-90410982D02*
X62019143Y-93653084D01*
D56*
%TO.N,GND*%
X49037382Y-76715480D02*
X50042618Y-76715480D01*
X34974643Y-49438272D02*
X35144925Y-49267990D01*
X51910000Y-77070000D02*
X52380000Y-76600000D01*
X47460000Y-71090000D02*
X48510480Y-72140480D01*
X42570000Y-59810000D02*
X44047500Y-59810000D01*
X49580480Y-72140480D02*
X51150000Y-73710000D01*
X32715480Y-76882980D02*
X33432500Y-77600000D01*
X50460000Y-56670936D02*
X50526069Y-56604867D01*
X35180132Y-48184096D02*
X35180132Y-44620982D01*
X51170000Y-43500000D02*
X51050000Y-43620000D01*
X46443130Y-100894263D02*
X46443130Y-103080718D01*
D55*
X57300367Y-71950367D02*
X56183117Y-71950367D01*
D56*
X46423756Y-46773628D02*
X46923756Y-46773628D01*
D55*
X56183117Y-71950367D02*
X55930000Y-72203484D01*
D56*
X62050536Y-51024328D02*
X62050536Y-46508986D01*
X32715480Y-72757020D02*
X32715480Y-76882980D01*
X47510000Y-75662500D02*
X48577500Y-76730000D01*
D55*
X55930000Y-72955000D02*
X58805091Y-72955000D01*
X45425000Y-85500000D02*
X51607577Y-85500000D01*
D56*
X50460000Y-57897500D02*
X50460000Y-56670936D01*
D55*
X49254015Y-88710000D02*
X48649242Y-89314773D01*
X54816469Y-66813531D02*
X53743531Y-66813531D01*
X48649242Y-90839773D02*
X48649242Y-89314773D01*
D56*
X47923756Y-45963756D02*
X47923756Y-46773628D01*
X35144925Y-49267990D02*
X35144925Y-48219303D01*
X46503930Y-46693454D02*
X46423756Y-46773628D01*
X50042618Y-76715480D02*
X50397138Y-77070000D01*
D55*
X50272392Y-91410877D02*
X49220346Y-91410877D01*
D56*
X48260000Y-52470000D02*
X48129461Y-52339461D01*
X41920000Y-59720000D02*
X42480000Y-59720000D01*
X46503930Y-45115219D02*
X46503930Y-45853930D01*
X59479933Y-53094931D02*
X59850536Y-52724328D01*
X58220000Y-52230000D02*
X59356208Y-52230000D01*
D55*
X60200000Y-74940000D02*
X60200000Y-75478944D01*
D56*
X52380000Y-76600000D02*
X52380000Y-74940000D01*
X35144925Y-48219303D02*
X35180132Y-48184096D01*
X47760000Y-73750000D02*
X46630000Y-73750000D01*
D55*
X53743531Y-66813531D02*
X53517819Y-66587819D01*
D57*
X33300000Y-53700000D02*
X34200000Y-52800000D01*
D56*
X48510480Y-72140480D02*
X49580480Y-72140480D01*
X50526069Y-56604867D02*
X50526069Y-56023931D01*
X33362500Y-72110000D02*
X32715480Y-72757020D01*
X34940000Y-69940000D02*
X34350000Y-69940000D01*
X48129461Y-52339461D02*
X48129461Y-51327885D01*
D55*
X48649242Y-93588399D02*
X48649242Y-90839773D01*
D56*
X52380000Y-74940000D02*
X51150000Y-73710000D01*
D57*
X33300000Y-53700000D02*
X34000000Y-54400000D01*
D56*
X45670000Y-43950000D02*
X46503930Y-44783930D01*
D55*
X46025000Y-95100000D02*
X47137641Y-95100000D01*
D56*
X46503930Y-45853930D02*
X47813930Y-45853930D01*
X42480000Y-59720000D02*
X42570000Y-59810000D01*
D55*
X55930000Y-72203484D02*
X55930000Y-72955000D01*
X47137641Y-95100000D02*
X48649242Y-93588399D01*
D56*
X59356208Y-52230000D02*
X59850536Y-52724328D01*
D55*
X42717227Y-79977496D02*
X42700000Y-79960269D01*
D56*
X46443130Y-103080718D02*
X45395593Y-104128255D01*
X46503930Y-44783930D02*
X46503930Y-45115219D01*
D55*
X60200000Y-75478944D02*
X59482762Y-76196182D01*
D56*
X35180132Y-44620982D02*
X34846669Y-44287519D01*
D55*
X52269627Y-89712142D02*
X51971127Y-89712142D01*
D56*
X47460000Y-66222500D02*
X47460000Y-71090000D01*
X41180000Y-57120000D02*
X40870000Y-57430000D01*
D57*
X34200000Y-52800000D02*
X34802500Y-52800000D01*
D56*
X48577500Y-76730000D02*
X49022862Y-76730000D01*
X47813930Y-45853930D02*
X47923756Y-45963756D01*
X51050000Y-43620000D02*
X51050000Y-44360000D01*
D57*
X34802500Y-52000000D02*
X34802500Y-52800000D01*
D56*
X55548956Y-52691044D02*
X54720000Y-53520000D01*
X62050536Y-46508986D02*
X59964242Y-44422692D01*
D55*
X58914503Y-73064412D02*
X58914503Y-73654503D01*
D56*
X59850536Y-52724328D02*
X60240489Y-52724328D01*
D57*
X34000000Y-54400000D02*
X34802500Y-54400000D01*
D56*
X59479933Y-54249769D02*
X59479933Y-53094931D01*
X34940000Y-70532500D02*
X33362500Y-72110000D01*
X60240489Y-52724328D02*
X61940489Y-51024328D01*
D55*
X58805091Y-72955000D02*
X58914503Y-73064412D01*
D56*
X46503930Y-45853930D02*
X46503930Y-46693454D01*
X47760000Y-73750000D02*
X47760000Y-75412500D01*
X53758063Y-67618062D02*
X53510001Y-67370000D01*
X50397138Y-77070000D02*
X51910000Y-77070000D01*
X54027552Y-64115802D02*
X54069837Y-64115802D01*
X34350000Y-69940000D02*
X33112847Y-68702847D01*
D57*
X57789533Y-61780467D02*
X59035347Y-61780467D01*
D56*
X55936515Y-52691044D02*
X55548956Y-52691044D01*
X54816469Y-64862434D02*
X54816469Y-66813531D01*
X33112847Y-68702847D02*
X33112847Y-66883294D01*
X52070000Y-67370000D02*
X52735639Y-67370000D01*
D55*
X58914503Y-73654503D02*
X60200000Y-74940000D01*
D56*
X50526069Y-56023931D02*
X50990000Y-55560000D01*
D55*
X50249159Y-88710000D02*
X49254015Y-88710000D01*
D56*
X40870000Y-58670000D02*
X41920000Y-59720000D01*
D55*
X51607577Y-85500000D02*
X51625494Y-85517917D01*
D56*
X61940489Y-51024328D02*
X62050536Y-51024328D01*
D55*
X51971127Y-89712142D02*
X50272392Y-91410877D01*
D56*
X54069837Y-64115802D02*
X54816469Y-64862434D01*
X52735639Y-67370000D02*
X53517819Y-66587819D01*
X53510001Y-67370000D02*
X52735639Y-67370000D01*
X46630000Y-73750000D02*
X46580000Y-73700000D01*
X49022862Y-76730000D02*
X49037382Y-76715480D01*
D55*
X49220346Y-91410877D02*
X48649242Y-90839773D01*
D56*
X34940000Y-69940000D02*
X34940000Y-70532500D01*
X40870000Y-57430000D02*
X40870000Y-58670000D01*
X52372500Y-64310000D02*
X53833354Y-64310000D01*
D55*
X57360000Y-72010000D02*
X57300367Y-71950367D01*
X55870000Y-66813531D02*
X54816469Y-66813531D01*
D56*
X47760000Y-75412500D02*
X47510000Y-75662500D01*
D55*
X43537244Y-79977496D02*
X42717227Y-79977496D01*
D56*
X53833354Y-64310000D02*
X54027552Y-64115802D01*
D57*
X57760000Y-61810000D02*
X57789533Y-61780467D01*
D55*
%TO.N,+7.5V*%
X54760000Y-80340000D02*
X50245356Y-80340000D01*
X36973490Y-80994511D02*
X36015663Y-81952338D01*
X58640194Y-82032033D02*
X58640194Y-79863750D01*
X45210000Y-79905000D02*
X44120489Y-80994511D01*
X46289511Y-78825489D02*
X45210000Y-79905000D01*
X58640194Y-79863750D02*
X60432762Y-78071182D01*
X50245356Y-80340000D02*
X48730845Y-78825489D01*
X32759665Y-88696340D02*
X36015663Y-91952338D01*
X44120489Y-80994511D02*
X36973490Y-80994511D01*
X48730845Y-78825489D02*
X46289511Y-78825489D01*
X35354678Y-81952338D02*
X32759665Y-84547351D01*
X32759665Y-84547351D02*
X32759665Y-88696340D01*
X36015663Y-81952338D02*
X35354678Y-81952338D01*
D58*
%TO.N,Pyro_Main*%
X36763325Y-87700000D02*
X36015663Y-86952338D01*
X45296604Y-89245903D02*
X43750701Y-87700000D01*
X45296604Y-89245903D02*
X45753454Y-89702753D01*
X45753454Y-89702753D02*
X47599722Y-89702753D01*
X43750701Y-87700000D02*
X36763325Y-87700000D01*
D55*
%TO.N,Pyro_Dr*%
X46712040Y-92500000D02*
X47544722Y-91667318D01*
X46258737Y-93783520D02*
X45925000Y-93449783D01*
X45925000Y-92500000D02*
X46712040Y-92500000D01*
X47544722Y-91667318D02*
X47544722Y-91300000D01*
X45925000Y-93449783D02*
X45925000Y-92500000D01*
D58*
%TO.N,Net-(Q2-Pad2)*%
X47649242Y-90402273D02*
X45946111Y-90402273D01*
X45946111Y-90402273D02*
X45637609Y-90710775D01*
D55*
%TO.N,Net-(Q2-Pad4)*%
X47168233Y-88878233D02*
X47500000Y-88878233D01*
X46600000Y-88310000D02*
X47168233Y-88878233D01*
%TO.N,V_Batt*%
X45210000Y-78255000D02*
X43609740Y-78255000D01*
X45410000Y-70370000D02*
X44935489Y-69895489D01*
X43609740Y-78255000D02*
X43537244Y-78327496D01*
X45210000Y-78255000D02*
X45410000Y-78055000D01*
X44935489Y-66522491D02*
X45235480Y-66222500D01*
X45410000Y-78055000D02*
X45410000Y-70370000D01*
X44935489Y-69895489D02*
X44935489Y-66522491D01*
D56*
%TO.N,Net-(D3-Pad2)*%
X49540000Y-77465000D02*
X47582500Y-77465000D01*
X47582500Y-77465000D02*
X47510000Y-77537500D01*
%TO.N,+3V3*%
X54818956Y-51731044D02*
X54790000Y-51760000D01*
D55*
X58914503Y-70064412D02*
X58613622Y-69763531D01*
D56*
X36104925Y-49267990D02*
X36104925Y-49433553D01*
X47463930Y-44003930D02*
X47463930Y-45115219D01*
X48351095Y-50589519D02*
X49009519Y-50589519D01*
X47425215Y-49300448D02*
X47425215Y-49961970D01*
D57*
X33700000Y-51200000D02*
X34802500Y-51200000D01*
D56*
X38083294Y-59683294D02*
X36922847Y-59683294D01*
D57*
X32300000Y-55600000D02*
X32700000Y-55200000D01*
D56*
X36104925Y-49433553D02*
X34802500Y-50735978D01*
X53874198Y-65075802D02*
X52540000Y-66410000D01*
X55936515Y-51731044D02*
X54818956Y-51731044D01*
D57*
X32700000Y-55200000D02*
X32400000Y-54900000D01*
D56*
X36140132Y-48184096D02*
X36140132Y-49232783D01*
X51882500Y-66222500D02*
X52070000Y-66410000D01*
X50595000Y-75815000D02*
X51160000Y-76380000D01*
X48423756Y-45115219D02*
X48423756Y-46773628D01*
X54027552Y-65075802D02*
X53874198Y-65075802D01*
X49540000Y-75815000D02*
X49540000Y-74365000D01*
X38090000Y-59690000D02*
X38083294Y-59683294D01*
X41960000Y-58760000D02*
X43497500Y-58760000D01*
X47831130Y-50367885D02*
X48129461Y-50367885D01*
D55*
X56170847Y-70064378D02*
X56170847Y-71000847D01*
D56*
X33920000Y-65310000D02*
X34382847Y-65772847D01*
D57*
X32400000Y-54900000D02*
X32400000Y-52500000D01*
D56*
X47430000Y-43970000D02*
X47463930Y-44003930D01*
X35652847Y-59683294D02*
X36922847Y-59683294D01*
X51486069Y-56200000D02*
X51486069Y-57371431D01*
X51655218Y-56200000D02*
X51486069Y-56200000D01*
D57*
X32400000Y-52500000D02*
X33700000Y-51200000D01*
D56*
X41570000Y-58370000D02*
X41960000Y-58760000D01*
X50090000Y-44360000D02*
X50090000Y-44110000D01*
D57*
X32300000Y-56000000D02*
X32300000Y-55600000D01*
D56*
X50960000Y-66222500D02*
X51882500Y-66222500D01*
D55*
X57867503Y-74735219D02*
X57867503Y-76190031D01*
D56*
X47463930Y-45115219D02*
X48423756Y-45115219D01*
X49009519Y-50589519D02*
X49380000Y-50960000D01*
D55*
X55870000Y-69763531D02*
X56170847Y-70064378D01*
D56*
X52372500Y-64810000D02*
X53761750Y-64810000D01*
X34802500Y-50735978D02*
X34802500Y-51200000D01*
X52540000Y-66410000D02*
X52070000Y-66410000D01*
X36140132Y-49232783D02*
X36104925Y-49267990D01*
D57*
X34802500Y-55200000D02*
X32700000Y-55200000D01*
D56*
X48129461Y-50367885D02*
X48351095Y-50589519D01*
X52395218Y-56940000D02*
X51655218Y-56200000D01*
X50090000Y-44110000D02*
X49660000Y-43680000D01*
X53761750Y-64810000D02*
X54027552Y-65075802D01*
X50960000Y-67650000D02*
X50960000Y-66222500D01*
D55*
X57992007Y-74610715D02*
X57867503Y-74735219D01*
D56*
X49540000Y-74365000D02*
X48930000Y-73755000D01*
D55*
X58438981Y-74610715D02*
X57992007Y-74610715D01*
D56*
X51486069Y-57371431D02*
X50960000Y-57897500D01*
D55*
X57867503Y-76190031D02*
X57877895Y-76200423D01*
X58613622Y-69763531D02*
X55870000Y-69763531D01*
D56*
X49540000Y-75815000D02*
X50595000Y-75815000D01*
X47425215Y-49961970D02*
X47831130Y-50367885D01*
X51200000Y-67890000D02*
X50960000Y-67650000D01*
X34382847Y-65772847D02*
X34382847Y-66883294D01*
X43497500Y-58760000D02*
X44047500Y-59310000D01*
%TO.N,Net-(D2-Pad2)*%
X35237500Y-72110000D02*
X35237500Y-72267500D01*
X35237500Y-72267500D02*
X33465000Y-74040000D01*
%TO.N,Net-(R3-Pad2)*%
X42516061Y-69383939D02*
X37860000Y-74040000D01*
X45960000Y-68540000D02*
X45960000Y-66222500D01*
X37860000Y-74040000D02*
X35115000Y-74040000D01*
X45800000Y-68700000D02*
X45960000Y-68540000D01*
X42516061Y-68989035D02*
X42516061Y-69383939D01*
%TO.N,Net-(D1-Pad2)*%
X33475000Y-75767500D02*
X35307500Y-77600000D01*
X33475000Y-75670000D02*
X33475000Y-75767500D01*
%TO.N,Net-(R2-Pad2)*%
X43200000Y-69700000D02*
X38090000Y-74810000D01*
X35985000Y-74810000D02*
X35125000Y-75670000D01*
X46274309Y-69746670D02*
X46460000Y-69560979D01*
X43700000Y-69700000D02*
X43200000Y-69700000D01*
X38090000Y-74810000D02*
X35985000Y-74810000D01*
X46460000Y-69560979D02*
X46460000Y-66222500D01*
%TO.N,Cont_Dr*%
X41990000Y-67070500D02*
X41990000Y-67020000D01*
X44047500Y-64962500D02*
X44047500Y-64810000D01*
D58*
X44275000Y-92500000D02*
X44275000Y-95000000D01*
X44200000Y-92500000D02*
X44275000Y-92500000D01*
X44275000Y-95000000D02*
X44375000Y-95100000D01*
X41600000Y-89900000D02*
X44200000Y-92500000D01*
D56*
X41990000Y-67020000D02*
X44047500Y-64962500D01*
%TO.N,Cont_Main*%
X41840000Y-78590000D02*
X41820000Y-78570000D01*
D58*
X41820000Y-78570000D02*
X39910000Y-78570000D01*
X43677270Y-86778270D02*
X43677270Y-86132590D01*
X38950000Y-67050000D02*
X38950000Y-66650000D01*
X39900489Y-65699511D02*
X39900489Y-65461351D01*
D56*
X42950000Y-61810000D02*
X42660000Y-61520000D01*
D58*
X43800000Y-86009860D02*
X43800000Y-84300000D01*
X38950000Y-66650000D02*
X39900489Y-65699511D01*
X39900489Y-65461351D02*
X41442424Y-63919416D01*
D56*
X44047500Y-61810000D02*
X42950000Y-61810000D01*
D58*
X43300701Y-88900000D02*
X43646604Y-89245903D01*
X43677270Y-86132590D02*
X43800000Y-86009860D01*
X43710029Y-86811029D02*
X43677270Y-86778270D01*
X42200000Y-88900000D02*
X43300701Y-88900000D01*
%TO.N,Net-(C10-Pad1)*%
X60439933Y-54249769D02*
X60426160Y-54263542D01*
X60439933Y-54249769D02*
X60525095Y-54249769D01*
X58350000Y-54950000D02*
X58350000Y-54300000D01*
X60525095Y-54249769D02*
X62050536Y-52724328D01*
X58603784Y-55203784D02*
X58350000Y-54950000D01*
X60426160Y-54263542D02*
X60426160Y-55203784D01*
X58350000Y-54300000D02*
X58430000Y-54220000D01*
X60426160Y-55203784D02*
X58603784Y-55203784D01*
X60459930Y-54269766D02*
X60439933Y-54249769D01*
D56*
%TO.N,HSE_Out*%
X48960000Y-69347838D02*
X48460000Y-68847838D01*
X54660000Y-68510000D02*
X52230000Y-70940000D01*
X56780000Y-56280000D02*
X57410000Y-55650000D01*
X58023995Y-64543995D02*
X58023995Y-66793843D01*
X48960000Y-70730000D02*
X48960000Y-69347838D01*
X57410000Y-55650000D02*
X57410000Y-54220000D01*
X54910000Y-61430000D02*
X58023995Y-64543995D01*
X54910000Y-59740000D02*
X54910000Y-61430000D01*
X56307838Y-68510000D02*
X54660000Y-68510000D01*
X52230000Y-70940000D02*
X49170000Y-70940000D01*
X49170000Y-70940000D02*
X48960000Y-70730000D01*
X48460000Y-68847838D02*
X48460000Y-66222500D01*
X58023995Y-66793843D02*
X56307838Y-68510000D01*
%TO.N,Net-(J5-Pad1)*%
X48280000Y-70910000D02*
X48840000Y-71470000D01*
X57280000Y-66640000D02*
X57280000Y-66310000D01*
X53760000Y-71470000D02*
X53790000Y-71500000D01*
X47463130Y-100894263D02*
X48723500Y-99633893D01*
X57280000Y-66310000D02*
X53780000Y-62810000D01*
X48723500Y-99633893D02*
X48723500Y-97490054D01*
X53780000Y-62810000D02*
X52372500Y-62810000D01*
X48840000Y-71470000D02*
X53760000Y-71470000D01*
D57*
%TO.N,Fire_Dr*%
X45200480Y-92007737D02*
X45200480Y-92992263D01*
D56*
X55700000Y-61513572D02*
X58860000Y-64673572D01*
X50290000Y-53530000D02*
X52980000Y-53530000D01*
X55700000Y-60490000D02*
X55700000Y-61513572D01*
X54470000Y-55317838D02*
X56633488Y-57481326D01*
X54470000Y-55020000D02*
X54470000Y-55317838D01*
X52980000Y-53530000D02*
X54470000Y-55020000D01*
X56633488Y-57481326D02*
X56780500Y-57481326D01*
D57*
X45607737Y-95899520D02*
X47362747Y-95899520D01*
D56*
X47600000Y-55780000D02*
X48230000Y-55780000D01*
D57*
X45225480Y-93017263D02*
X45225480Y-95517263D01*
X45200480Y-92992263D02*
X45225480Y-93017263D01*
D56*
X50272392Y-92430877D02*
X53109123Y-92430877D01*
X48530000Y-55290000D02*
X50290000Y-53530000D01*
X53109123Y-92430877D02*
X53870000Y-91670000D01*
X58860000Y-64673572D02*
X58860000Y-66240000D01*
X47460000Y-55920000D02*
X47600000Y-55780000D01*
X50272392Y-92430877D02*
X50272392Y-92989875D01*
D57*
X45225480Y-95517263D02*
X45607737Y-95899520D01*
X44617609Y-91424866D02*
X45200480Y-92007737D01*
D56*
X47460000Y-57897500D02*
X47460000Y-55920000D01*
X48530000Y-55480000D02*
X48530000Y-55290000D01*
X48230000Y-55780000D02*
X48530000Y-55480000D01*
X50272392Y-92989875D02*
X48237747Y-95024520D01*
D57*
X47362747Y-95899520D02*
X48237747Y-95024520D01*
X44617609Y-90710775D02*
X44617609Y-91424866D01*
D56*
%TO.N,Fire_Main*%
X53116078Y-58580000D02*
X54020000Y-59483922D01*
X49849159Y-87290000D02*
X50249159Y-87690000D01*
X51790000Y-87690000D02*
X52300000Y-88200000D01*
D57*
X45609040Y-58862607D02*
X45460000Y-58713567D01*
D56*
X54020000Y-59483922D02*
X54020000Y-61450000D01*
D57*
X45460000Y-58713567D02*
X45460000Y-57897500D01*
D56*
X54020000Y-61450000D02*
X56350000Y-63780000D01*
X52760000Y-58580000D02*
X53116078Y-58580000D01*
X51020000Y-61010000D02*
X51020000Y-60020000D01*
D57*
X48700000Y-61010000D02*
X47290000Y-61010000D01*
D56*
X50249159Y-87690000D02*
X51790000Y-87690000D01*
D57*
X47290000Y-61010000D02*
X45609040Y-59329040D01*
X45609040Y-59329040D02*
X45609040Y-58862607D01*
D56*
X46600000Y-87290000D02*
X49849159Y-87290000D01*
X50790000Y-61240000D02*
X51020000Y-61010000D01*
%TO.N,USART1_RX*%
X48096214Y-56500000D02*
X48460000Y-56863786D01*
X48460000Y-56863786D02*
X48460000Y-57897500D01*
%TO.N,USART1_TX*%
X47960000Y-58736321D02*
X47960000Y-57897500D01*
X49180000Y-59150000D02*
X48373679Y-59150000D01*
X48373679Y-59150000D02*
X47960000Y-58736321D01*
D58*
%TO.N,Net-(C7-Pad1)*%
X61681342Y-84722669D02*
X57292669Y-84722669D01*
D55*
X62289247Y-67467548D02*
X62289247Y-68938690D01*
X59663525Y-71564412D02*
X59002003Y-71564412D01*
D58*
X61681342Y-76494762D02*
X61681342Y-84722669D01*
X55948189Y-83378189D02*
X55948189Y-76173701D01*
X61382762Y-73533649D02*
X61382762Y-76196182D01*
X59002003Y-71564412D02*
X59413525Y-71564412D01*
D55*
X62289247Y-68938690D02*
X59663525Y-71564412D01*
D58*
X59413525Y-71564412D02*
X61382762Y-73533649D01*
X61382762Y-76196182D02*
X61681342Y-76494762D01*
X57292669Y-84722669D02*
X55948189Y-83378189D01*
D56*
%TO.N,CS_Flash*%
X50460000Y-68800000D02*
X50460000Y-66222500D01*
X50481089Y-68821089D02*
X50460000Y-68800000D01*
X43970000Y-68250000D02*
X38289553Y-68250000D01*
X38289553Y-68250000D02*
X36922847Y-66883294D01*
X44020000Y-68200000D02*
X43970000Y-68250000D01*
%TO.N,SPI1_MISO*%
X37632011Y-56667989D02*
X37632011Y-54545489D01*
X39632111Y-60922111D02*
X40693261Y-61983261D01*
X37514643Y-56785357D02*
X37514643Y-57800421D01*
X37514643Y-56785357D02*
X37632011Y-56667989D01*
X37632011Y-54545489D02*
X37486522Y-54400000D01*
X40693261Y-61983261D02*
X41522942Y-61983261D01*
X39010000Y-60590000D02*
X39010000Y-60540000D01*
X35652847Y-62383716D02*
X35652847Y-66883294D01*
X37514643Y-57800421D02*
X39632111Y-59917889D01*
X38400000Y-61879500D02*
X36157063Y-61879500D01*
X39010000Y-60540000D02*
X39632111Y-59917889D01*
X37486522Y-54400000D02*
X36822500Y-54400000D01*
X41522942Y-61983261D02*
X42849681Y-63310000D01*
X37514643Y-56600421D02*
X37514643Y-56785357D01*
X39632111Y-59917889D02*
X39632111Y-60922111D01*
X36157063Y-61879500D02*
X35652847Y-62383716D01*
X42849681Y-63310000D02*
X44047500Y-63310000D01*
%TO.N,SPI1_MOSI*%
X37000000Y-58240000D02*
X36244643Y-57484643D01*
X33112847Y-59437153D02*
X33112847Y-59683294D01*
X39460000Y-56870000D02*
X39820000Y-57230000D01*
X34040000Y-58510000D02*
X33112847Y-59437153D01*
X40300000Y-59610000D02*
X40300000Y-60610000D01*
X36244643Y-57160421D02*
X34895064Y-58510000D01*
X41729849Y-61483741D02*
X43056109Y-62810000D01*
X40300000Y-60610000D02*
X41173741Y-61483741D01*
X39820000Y-59130000D02*
X40300000Y-59610000D01*
X36822500Y-56022564D02*
X36822500Y-55200000D01*
X41173741Y-61483741D02*
X41729849Y-61483741D01*
X36244643Y-56600421D02*
X36244643Y-57160421D01*
X43056109Y-62810000D02*
X44047500Y-62810000D01*
X36244643Y-56600421D02*
X36822500Y-56022564D01*
X34895064Y-58510000D02*
X34040000Y-58510000D01*
X36244643Y-57484643D02*
X36244643Y-56600421D01*
X39820000Y-57230000D02*
X39820000Y-59130000D01*
%TO.N,SPI1_SCK*%
X35743126Y-61280000D02*
X39100000Y-61280000D01*
X33700000Y-61660000D02*
X32850000Y-61660000D01*
X41242781Y-62482781D02*
X42570000Y-63810000D01*
X31968186Y-60778186D02*
X31968186Y-58528010D01*
X31968186Y-58528010D02*
X33895775Y-56600421D01*
X39100000Y-61280000D02*
X40302781Y-62482781D01*
X32850000Y-61660000D02*
X31968186Y-60778186D01*
X33895775Y-56600421D02*
X34866101Y-56600421D01*
X34866101Y-56600421D02*
X35812500Y-55654022D01*
X40302781Y-62482781D02*
X41242781Y-62482781D01*
X34382847Y-59683294D02*
X34382847Y-59919721D01*
X34382847Y-59919721D02*
X35743126Y-61280000D01*
X34382847Y-59683294D02*
X34382847Y-60977153D01*
X42570000Y-63810000D02*
X44047500Y-63810000D01*
X34382847Y-60977153D02*
X33700000Y-61660000D01*
X35812500Y-55654022D02*
X35812500Y-55210000D01*
D57*
%TO.N,CS_ADXL*%
X48260000Y-64290000D02*
X48260000Y-64600000D01*
X46116553Y-62784519D02*
X47391072Y-61510000D01*
X48975480Y-62485480D02*
X48975480Y-63574520D01*
X38700000Y-64200000D02*
X39420000Y-63480000D01*
X35812500Y-50795978D02*
X35812500Y-51190000D01*
X48975480Y-63574520D02*
X48260000Y-64290000D01*
X40843771Y-66049831D02*
X42223602Y-64670000D01*
X41060000Y-60300000D02*
X41060000Y-59698928D01*
X38500000Y-50300000D02*
X36308478Y-50300000D01*
X42223602Y-64670000D02*
X42600000Y-64670000D01*
X40310000Y-58948928D02*
X40310000Y-51271756D01*
X48000000Y-61510000D02*
X48975480Y-62485480D01*
X45320000Y-62909500D02*
X45444980Y-62784520D01*
X39938244Y-50900000D02*
X39100000Y-50900000D01*
X47391072Y-61510000D02*
X48000000Y-61510000D01*
X39100000Y-50900000D02*
X38500000Y-50300000D01*
X49690000Y-64640000D02*
X49960000Y-64910000D01*
X41060000Y-59698928D02*
X40310000Y-58948928D01*
X40310000Y-51271756D02*
X39938244Y-50900000D01*
X36308478Y-50300000D02*
X35812500Y-50795978D01*
X45444980Y-62784520D02*
X46116553Y-62784519D01*
X49960000Y-64910000D02*
X49960000Y-66222500D01*
X39420000Y-63480000D02*
X39420000Y-62620000D01*
D56*
%TO.N,CS_Baro*%
X50970000Y-70210000D02*
X49460000Y-68700000D01*
X49460000Y-68700000D02*
X49460000Y-66222500D01*
X54500000Y-73820000D02*
X53340000Y-73820000D01*
X53340000Y-73820000D02*
X51710000Y-72190000D01*
%TO.N,HSE_IN*%
X58220000Y-51270000D02*
X59604864Y-51270000D01*
X57080000Y-52690000D02*
X57080000Y-52367715D01*
X55800000Y-53970000D02*
X57080000Y-52690000D01*
X49450000Y-60293568D02*
X49450000Y-63870000D01*
X55800000Y-55800000D02*
X55800000Y-53970000D01*
X59604864Y-51270000D02*
X59850536Y-51024328D01*
X51272713Y-59071926D02*
X52734647Y-57609992D01*
X52734647Y-57609992D02*
X53630008Y-57609992D01*
X50770838Y-59071926D02*
X51272713Y-59071926D01*
X57080000Y-52367715D02*
X58177715Y-51270000D01*
X49450000Y-63870000D02*
X48960000Y-64360000D01*
X48960000Y-64360000D02*
X48960000Y-66222500D01*
X58177715Y-51270000D02*
X58220000Y-51270000D01*
X49347173Y-60190741D02*
X49450000Y-60293568D01*
%TO.N,NRST*%
X48260000Y-69840000D02*
X47960000Y-69540000D01*
X47960000Y-69540000D02*
X47960000Y-66222500D01*
%TO.N,+3.3VA*%
X46960000Y-66222500D02*
X46960000Y-69760000D01*
X46580000Y-72740000D02*
X47710000Y-72740000D01*
X48925000Y-72790000D02*
X48930000Y-72785000D01*
X47710000Y-72740000D02*
X47760000Y-72790000D01*
X46960000Y-69760000D02*
X46960480Y-69760480D01*
X47760000Y-72790000D02*
X48925000Y-72790000D01*
X46960480Y-72359520D02*
X46580000Y-72740000D01*
X46960480Y-69760480D02*
X46960480Y-72359520D01*
%TO.N,CS_Acc*%
X43890000Y-58250000D02*
X44140000Y-58000000D01*
X50650000Y-51920000D02*
X50650000Y-50200000D01*
X45320000Y-63980000D02*
X44990000Y-64310000D01*
X48925216Y-49961970D02*
X48925216Y-49300448D01*
X49053246Y-50090000D02*
X48925216Y-49961970D01*
X45818299Y-63259039D02*
X45581257Y-63496081D01*
X47780000Y-55062028D02*
X47780000Y-54790000D01*
X47626919Y-62355906D02*
X46723786Y-63259039D01*
X45576081Y-63496081D02*
X45320000Y-63752162D01*
X46370000Y-59230000D02*
X47490000Y-60350000D01*
X47490000Y-60350000D02*
X47570000Y-60350000D01*
X47780000Y-54790000D02*
X50650000Y-51920000D01*
X50650000Y-50200000D02*
X50540000Y-50090000D01*
X44140000Y-55220000D02*
X44460000Y-54900000D01*
X50540000Y-50090000D02*
X49053246Y-50090000D01*
X44990000Y-64310000D02*
X44047500Y-64310000D01*
X46723786Y-63259039D02*
X45818299Y-63259039D01*
X45581257Y-63496081D02*
X45576081Y-63496081D01*
X45320000Y-63752162D02*
X45320000Y-63980000D01*
X44140000Y-58000000D02*
X44140000Y-55220000D01*
%TO.N,CS_Gyro*%
X47338906Y-47520000D02*
X47423756Y-47435150D01*
X46400000Y-61830000D02*
X46400000Y-60980000D01*
X45226155Y-55443845D02*
X45226155Y-47563869D01*
X46400000Y-60980000D02*
X45134520Y-59714520D01*
X45920000Y-62310000D02*
X46400000Y-61830000D01*
X45226155Y-47563869D02*
X45270024Y-47520000D01*
X44047500Y-62310000D02*
X45920000Y-62310000D01*
X45134520Y-59059159D02*
X44760000Y-58684639D01*
X47423756Y-47435150D02*
X47423756Y-46773628D01*
X45270024Y-47520000D02*
X47338906Y-47520000D01*
X44760000Y-55910000D02*
X45226155Y-55443845D01*
X45134520Y-59714520D02*
X45134520Y-59059159D01*
X44760000Y-58684639D02*
X44760000Y-55910000D01*
%TO.N,USART3_TX*%
X45950000Y-64590000D02*
X45404520Y-65135480D01*
X42613151Y-67720000D02*
X38640000Y-67720000D01*
X37572367Y-66026387D02*
X36755980Y-65210000D01*
X45710000Y-61480000D02*
X45040000Y-60810000D01*
X37572367Y-66652367D02*
X37572367Y-66026387D01*
X36755980Y-65210000D02*
X36650000Y-65210000D01*
X45404520Y-65135480D02*
X45197671Y-65135480D01*
X45197671Y-65135480D02*
X42613151Y-67720000D01*
X38640000Y-67720000D02*
X37572367Y-66652367D01*
X45950000Y-63970000D02*
X45950000Y-64590000D01*
X45040000Y-60810000D02*
X44047500Y-60810000D01*
%TO.N,USART3_RX*%
X42600000Y-60800000D02*
X43090000Y-60310000D01*
X43090000Y-60310000D02*
X44047500Y-60310000D01*
X38200000Y-65940000D02*
X38200000Y-66290000D01*
X40880000Y-63280000D02*
X40860000Y-63280000D01*
X40860000Y-63280000D02*
X38200000Y-65940000D01*
X41950000Y-60800000D02*
X42600000Y-60800000D01*
%TO.N,SPI2_SCK*%
X45960000Y-57059639D02*
X45960000Y-57897500D01*
X45913166Y-57012805D02*
X45960000Y-57059639D01*
X48776214Y-48038380D02*
X49250625Y-47563969D01*
X45913166Y-48038380D02*
X45913166Y-52153166D01*
X52716014Y-49757531D02*
X61142469Y-49757531D01*
X45913166Y-52153166D02*
X45913166Y-57012805D01*
X49250625Y-47563969D02*
X50522452Y-47563969D01*
X45913166Y-48038380D02*
X48776214Y-48038380D01*
X61142469Y-49757531D02*
X61160000Y-49740000D01*
X50522452Y-47563969D02*
X52716014Y-49757531D01*
%TO.N,SPI2_MISO*%
X47340359Y-51835546D02*
X46925215Y-51420402D01*
X54587838Y-58530000D02*
X56580000Y-60522162D01*
X50456876Y-49300448D02*
X49425216Y-49300448D01*
X49425216Y-48613437D02*
X49425216Y-49300448D01*
X53570000Y-52413572D02*
X50456876Y-49300448D01*
X54300000Y-58530000D02*
X54587838Y-58530000D01*
X46676104Y-53741122D02*
X46459520Y-53957706D01*
X46925215Y-51420402D02*
X46925215Y-49300448D01*
X46925215Y-49300448D02*
X46925215Y-48638926D01*
X46925215Y-48638926D02*
X46950704Y-48613437D01*
X46950704Y-48613437D02*
X49425216Y-48613437D01*
X54856428Y-54700000D02*
X53570000Y-53413572D01*
X56580000Y-60522162D02*
X56580000Y-61370000D01*
X55200000Y-54700000D02*
X54856428Y-54700000D01*
X53570000Y-53413572D02*
X53570000Y-52413572D01*
X46459520Y-53957706D02*
X46459520Y-57740480D01*
%TO.N,SPI2_MOSI*%
X46960000Y-54690505D02*
X47460359Y-54190146D01*
X47480000Y-53490000D02*
X47460359Y-53509641D01*
X57590304Y-60749705D02*
X57590304Y-60722466D01*
X50690000Y-52850000D02*
X50700000Y-52860000D01*
X48140000Y-53490000D02*
X47480000Y-53490000D01*
X47460359Y-53084136D02*
X46425216Y-52048993D01*
X60824196Y-64909520D02*
X59974676Y-64060000D01*
X57590304Y-60722466D02*
X52667838Y-55800000D01*
X47460359Y-53509641D02*
X47460359Y-53084136D01*
X50700000Y-52860000D02*
X52450000Y-52860000D01*
X60839520Y-64909520D02*
X60824196Y-64909520D01*
X47460359Y-54190146D02*
X47460359Y-53509641D01*
X46425216Y-52048993D02*
X46425216Y-49300448D01*
X46960000Y-57897500D02*
X46960000Y-54690505D01*
X59974676Y-64060000D02*
X59950000Y-64060000D01*
X61000000Y-65580000D02*
X61000000Y-65070000D01*
X52667838Y-55800000D02*
X52520000Y-55800000D01*
X61000000Y-65070000D02*
X60839520Y-64909520D01*
D59*
%TO.N,USB_D-*%
X58935348Y-59877848D02*
X58935348Y-59930466D01*
X58935348Y-59930466D02*
X58876330Y-59930467D01*
X48960000Y-57897500D02*
X48960000Y-55680000D01*
X58935348Y-59930466D02*
X58916185Y-59930467D01*
X52527578Y-54146720D02*
X58190858Y-59810000D01*
X58190858Y-59810000D02*
X58867500Y-59810000D01*
X48960000Y-55680000D02*
X50493280Y-54146720D01*
X50493280Y-54146720D02*
X52527578Y-54146720D01*
X58867500Y-59810000D02*
X58935348Y-59877848D01*
%TO.N,USB_D+*%
X52287471Y-54655905D02*
X57033915Y-59402349D01*
X58935348Y-60380468D02*
X58935348Y-60392152D01*
X49460000Y-55920000D02*
X50724095Y-54655905D01*
X58935348Y-60380468D02*
X58916185Y-60380467D01*
X58935348Y-60392152D02*
X58867500Y-60460000D01*
X49460000Y-57897500D02*
X49460000Y-55920000D01*
X58867500Y-60460000D02*
X58077711Y-60460000D01*
X58077711Y-60460000D02*
X57033915Y-59416204D01*
X50724095Y-54655905D02*
X52287471Y-54655905D01*
X58935348Y-60380468D02*
X58876330Y-60380467D01*
D56*
%TO.N,SWDIO*%
X52400000Y-65590000D02*
X52119520Y-65309520D01*
X49960000Y-63735361D02*
X49960000Y-57897500D01*
X52119520Y-65309520D02*
X51534159Y-65309520D01*
X51534159Y-65309520D02*
X49980000Y-63755361D01*
D57*
%TO.N,SWCLK*%
X56770000Y-64890000D02*
X56550000Y-64890000D01*
X56550000Y-64890000D02*
X53434520Y-61774520D01*
X53434520Y-59569514D02*
X53175006Y-59310000D01*
X53175006Y-59310000D02*
X52372500Y-59310000D01*
X53434520Y-61774520D02*
X53434520Y-59569514D01*
%TO.N,Beeper*%
X46688033Y-64827846D02*
X48395879Y-63120000D01*
X50570000Y-62800000D02*
X51560000Y-61810000D01*
X48395879Y-63120000D02*
X48400980Y-63120000D01*
X51560000Y-61810000D02*
X52372500Y-61810000D01*
X43769846Y-70890860D02*
X43189429Y-70890860D01*
X43189429Y-70890860D02*
X42636882Y-71443407D01*
D58*
%TO.N,V_USB*%
X57550000Y-58390000D02*
X58320000Y-59160000D01*
X58200000Y-55910000D02*
X57550000Y-56560000D01*
X58320000Y-59160000D02*
X58867500Y-59160000D01*
X63071037Y-64528963D02*
X63071037Y-55910000D01*
X63071037Y-55910000D02*
X58200000Y-55910000D01*
X60132452Y-67467548D02*
X63071037Y-64528963D01*
X58989247Y-67467548D02*
X60132452Y-67467548D01*
X57550000Y-56560000D02*
X57550000Y-58390000D01*
D56*
%TO.N,unconnected-(J4-Pad6)*%
X61735347Y-63380467D02*
X59435347Y-63380467D01*
X61735347Y-59480467D02*
X61735347Y-61480467D01*
X61735347Y-57580467D02*
X59435347Y-57580467D01*
X59435347Y-63380467D02*
X59035347Y-62980467D01*
X61735347Y-57580467D02*
X61735347Y-59480467D01*
X59435347Y-57580467D02*
X59035347Y-57980467D01*
X61735347Y-61480467D02*
X61735347Y-63380467D01*
D57*
%TO.N,Net-(BZ1-Pad1)*%
X43769846Y-71910860D02*
X43769846Y-73490154D01*
X43769846Y-73490154D02*
X43550000Y-73710000D01*
%TD*%
M02*
