%TF.GenerationSoftware,KiCad,Pcbnew,(6.0.4)*%
%TF.CreationDate,2022-05-08T20:42:15-04:00*%
%TF.ProjectId,STM32_Altimeter_R2,53544d33-325f-4416-9c74-696d65746572,0.1*%
%TF.SameCoordinates,Original*%
%TF.FileFunction,Soldermask,Bot*%
%TF.FilePolarity,Negative*%
%FSLAX46Y46*%
G04 Gerber Fmt 4.6, Leading zero omitted, Abs format (unit mm)*
G04 Created by KiCad (PCBNEW (6.0.4)) date 2022-05-08 20:42:15*
%MOMM*%
%LPD*%
G01*
G04 APERTURE LIST*
G04 Aperture macros list*
%AMRoundRect*
0 Rectangle with rounded corners*
0 $1 Rounding radius*
0 $2 $3 $4 $5 $6 $7 $8 $9 X,Y pos of 4 corners*
0 Add a 4 corners polygon primitive as box body*
4,1,4,$2,$3,$4,$5,$6,$7,$8,$9,$2,$3,0*
0 Add four circle primitives for the rounded corners*
1,1,$1+$1,$2,$3*
1,1,$1+$1,$4,$5*
1,1,$1+$1,$6,$7*
1,1,$1+$1,$8,$9*
0 Add four rect primitives between the rounded corners*
20,1,$1+$1,$2,$3,$4,$5,0*
20,1,$1+$1,$4,$5,$6,$7,0*
20,1,$1+$1,$6,$7,$8,$9,0*
20,1,$1+$1,$8,$9,$2,$3,0*%
%AMFreePoly0*
4,1,9,3.862500,-0.866500,0.737500,-0.866500,0.737500,-0.450000,-0.737500,-0.450000,-0.737500,0.450000,0.737500,0.450000,0.737500,0.866500,3.862500,0.866500,3.862500,-0.866500,3.862500,-0.866500,$1*%
G04 Aperture macros list end*
%ADD10C,0.010000*%
%ADD11R,1.700000X1.700000*%
%ADD12O,1.700000X1.700000*%
%ADD13R,2.800000X2.800000*%
%ADD14C,2.800000*%
%ADD15R,2.000000X2.000000*%
%ADD16C,2.000000*%
%ADD17RoundRect,0.135000X0.135000X0.185000X-0.135000X0.185000X-0.135000X-0.185000X0.135000X-0.185000X0*%
%ADD18RoundRect,0.147500X0.172500X-0.147500X0.172500X0.147500X-0.172500X0.147500X-0.172500X-0.147500X0*%
%ADD19RoundRect,0.243750X-0.456250X0.243750X-0.456250X-0.243750X0.456250X-0.243750X0.456250X0.243750X0*%
%ADD20RoundRect,0.135000X-0.135000X-0.185000X0.135000X-0.185000X0.135000X0.185000X-0.135000X0.185000X0*%
%ADD21RoundRect,0.243750X-0.243750X-0.456250X0.243750X-0.456250X0.243750X0.456250X-0.243750X0.456250X0*%
%ADD22RoundRect,0.135000X-0.185000X0.135000X-0.185000X-0.135000X0.185000X-0.135000X0.185000X0.135000X0*%
%ADD23R,0.350000X0.300000*%
%ADD24RoundRect,0.075000X0.075000X-0.662500X0.075000X0.662500X-0.075000X0.662500X-0.075000X-0.662500X0*%
%ADD25RoundRect,0.075000X0.662500X-0.075000X0.662500X0.075000X-0.662500X0.075000X-0.662500X-0.075000X0*%
%ADD26C,5.600000*%
%ADD27RoundRect,0.140000X0.140000X0.170000X-0.140000X0.170000X-0.140000X-0.170000X0.140000X-0.170000X0*%
%ADD28RoundRect,0.135000X0.185000X-0.135000X0.185000X0.135000X-0.185000X0.135000X-0.185000X-0.135000X0*%
%ADD29R,1.400000X1.200000*%
%ADD30RoundRect,0.200000X0.275000X-0.200000X0.275000X0.200000X-0.275000X0.200000X-0.275000X-0.200000X0*%
%ADD31RoundRect,0.200000X0.200000X0.275000X-0.200000X0.275000X-0.200000X-0.275000X0.200000X-0.275000X0*%
%ADD32R,1.300000X0.900000*%
%ADD33FreePoly0,0.000000*%
%ADD34RoundRect,0.200000X-0.200000X-0.275000X0.200000X-0.275000X0.200000X0.275000X-0.200000X0.275000X0*%
%ADD35RoundRect,0.140000X0.170000X-0.140000X0.170000X0.140000X-0.170000X0.140000X-0.170000X-0.140000X0*%
%ADD36RoundRect,0.140000X-0.170000X0.140000X-0.170000X-0.140000X0.170000X-0.140000X0.170000X0.140000X0*%
%ADD37R,0.900000X1.200000*%
%ADD38RoundRect,0.150000X0.150000X-0.650000X0.150000X0.650000X-0.150000X0.650000X-0.150000X-0.650000X0*%
%ADD39RoundRect,0.250000X0.650000X-0.325000X0.650000X0.325000X-0.650000X0.325000X-0.650000X-0.325000X0*%
%ADD40R,0.920000X0.610000*%
%ADD41R,0.610000X0.920000*%
%ADD42R,0.250000X0.675000*%
%ADD43R,0.675000X0.250000*%
%ADD44RoundRect,0.140000X-0.140000X-0.170000X0.140000X-0.170000X0.140000X0.170000X-0.140000X0.170000X0*%
%ADD45R,1.350000X0.400000*%
%ADD46C,1.450000*%
%ADD47R,1.900000X1.200000*%
%ADD48O,1.900000X1.200000*%
%ADD49R,1.900000X1.500000*%
%ADD50RoundRect,0.200000X-0.275000X0.200000X-0.275000X-0.200000X0.275000X-0.200000X0.275000X0.200000X0*%
%ADD51RoundRect,0.150000X-0.150000X0.587500X-0.150000X-0.587500X0.150000X-0.587500X0.150000X0.587500X0*%
G04 APERTURE END LIST*
%TO.C,Q2*%
G36*
X49274242Y-88852273D02*
G01*
X49474242Y-88852273D01*
X49474242Y-89352273D01*
X49274242Y-89352273D01*
X49274242Y-89502273D01*
X49474242Y-89502273D01*
X49474242Y-90002273D01*
X48024242Y-90002273D01*
X48024242Y-88627273D01*
X49274242Y-88627273D01*
X49274242Y-88852273D01*
G37*
D10*
X49274242Y-88852273D02*
X49474242Y-88852273D01*
X49474242Y-89352273D01*
X49274242Y-89352273D01*
X49274242Y-89502273D01*
X49474242Y-89502273D01*
X49474242Y-90002273D01*
X48024242Y-90002273D01*
X48024242Y-88627273D01*
X49274242Y-88627273D01*
X49274242Y-88852273D01*
G36*
X49474242Y-90652273D02*
G01*
X49274242Y-90652273D01*
X49274242Y-90802273D01*
X49474242Y-90802273D01*
X49474242Y-91302273D01*
X49274242Y-91302273D01*
X49274242Y-91527273D01*
X48024242Y-91527273D01*
X48024242Y-90152273D01*
X49474242Y-90152273D01*
X49474242Y-90652273D01*
G37*
X49474242Y-90652273D02*
X49274242Y-90652273D01*
X49274242Y-90802273D01*
X49474242Y-90802273D01*
X49474242Y-91302273D01*
X49274242Y-91302273D01*
X49274242Y-91527273D01*
X48024242Y-91527273D01*
X48024242Y-90152273D01*
X49474242Y-90152273D01*
X49474242Y-90652273D01*
%TD*%
D11*
%TO.C,J3*%
X53015593Y-104128255D03*
D12*
X50475593Y-104128255D03*
X47935593Y-104128255D03*
X45395593Y-104128255D03*
X42855593Y-104128255D03*
%TD*%
D13*
%TO.C,J1*%
X36015663Y-81952338D03*
D14*
X36015663Y-86952338D03*
X36015663Y-91952338D03*
X36015663Y-96952338D03*
%TD*%
D11*
%TO.C,J5*%
X48723500Y-97490054D03*
D12*
X46183500Y-97490054D03*
%TD*%
D15*
%TO.C,BZ1*%
X43550000Y-73710000D03*
D16*
X51150000Y-73710000D03*
%TD*%
D13*
%TO.C,J2*%
X58640194Y-97032033D03*
D14*
X58640194Y-92032033D03*
X58640194Y-87032033D03*
X58640194Y-82032033D03*
%TD*%
D17*
%TO.C,R16*%
X45637609Y-90710775D03*
X44617609Y-90710775D03*
%TD*%
D18*
%TO.C,L1*%
X48930000Y-73755000D03*
X48930000Y-72785000D03*
%TD*%
D19*
%TO.C,D3*%
X47510000Y-75662500D03*
X47510000Y-77537500D03*
%TD*%
D20*
%TO.C,R1*%
X46443130Y-100894263D03*
X47463130Y-100894263D03*
%TD*%
D21*
%TO.C,D2*%
X33362500Y-72110000D03*
X35237500Y-72110000D03*
%TD*%
D22*
%TO.C,R17*%
X50272392Y-91410877D03*
X50272392Y-92430877D03*
%TD*%
D23*
%TO.C,Q2*%
X47649242Y-91052273D03*
X47649242Y-90402273D03*
X47649242Y-89752273D03*
X47649242Y-89102273D03*
%TD*%
D24*
%TO.C,U1*%
X50960000Y-66222500D03*
X50460000Y-66222500D03*
X49960000Y-66222500D03*
X49460000Y-66222500D03*
X48960000Y-66222500D03*
X48460000Y-66222500D03*
X47960000Y-66222500D03*
X47460000Y-66222500D03*
X46960000Y-66222500D03*
X46460000Y-66222500D03*
X45960000Y-66222500D03*
X45460000Y-66222500D03*
D25*
X44047500Y-64810000D03*
X44047500Y-64310000D03*
X44047500Y-63810000D03*
X44047500Y-63310000D03*
X44047500Y-62810000D03*
X44047500Y-62310000D03*
X44047500Y-61810000D03*
X44047500Y-61310000D03*
X44047500Y-60810000D03*
X44047500Y-60310000D03*
X44047500Y-59810000D03*
X44047500Y-59310000D03*
D24*
X45460000Y-57897500D03*
X45960000Y-57897500D03*
X46460000Y-57897500D03*
X46960000Y-57897500D03*
X47460000Y-57897500D03*
X47960000Y-57897500D03*
X48460000Y-57897500D03*
X48960000Y-57897500D03*
X49460000Y-57897500D03*
X49960000Y-57897500D03*
X50460000Y-57897500D03*
X50960000Y-57897500D03*
D25*
X52372500Y-59310000D03*
X52372500Y-59810000D03*
X52372500Y-60310000D03*
X52372500Y-60810000D03*
X52372500Y-61310000D03*
X52372500Y-61810000D03*
X52372500Y-62310000D03*
X52372500Y-62810000D03*
X52372500Y-63310000D03*
X52372500Y-63810000D03*
X52372500Y-64310000D03*
X52372500Y-64810000D03*
%TD*%
D26*
%TO.C,H4*%
X59964242Y-44422692D03*
%TD*%
D27*
%TO.C,C11*%
X47463930Y-45115219D03*
X46503930Y-45115219D03*
%TD*%
D28*
%TO.C,R12*%
X46600000Y-88310000D03*
X46600000Y-87290000D03*
%TD*%
D29*
%TO.C,Y1*%
X59850536Y-51024328D03*
X62050536Y-51024328D03*
X62050536Y-52724328D03*
X59850536Y-52724328D03*
%TD*%
D27*
%TO.C,C10*%
X60439933Y-54249769D03*
X59479933Y-54249769D03*
%TD*%
D30*
%TO.C,R7*%
X49540000Y-77465000D03*
X49540000Y-75815000D03*
%TD*%
D31*
%TO.C,R11*%
X45296604Y-89245903D03*
X43646604Y-89245903D03*
%TD*%
D28*
%TO.C,R4*%
X43769846Y-71910860D03*
X43769846Y-70890860D03*
%TD*%
D32*
%TO.C,U2*%
X58914503Y-73064412D03*
D33*
X59002003Y-71564412D03*
D32*
X58914503Y-70064412D03*
%TD*%
D34*
%TO.C,R3*%
X33465000Y-74040000D03*
X35115000Y-74040000D03*
%TD*%
D35*
%TO.C,C1*%
X54027552Y-65075802D03*
X54027552Y-64115802D03*
%TD*%
D36*
%TO.C,C3*%
X42480000Y-58760000D03*
X42480000Y-59720000D03*
%TD*%
%TO.C,C9*%
X58220000Y-51270000D03*
X58220000Y-52230000D03*
%TD*%
D37*
%TO.C,D4*%
X62289247Y-67467548D03*
X58989247Y-67467548D03*
%TD*%
D30*
%TO.C,R9*%
X43537244Y-79977496D03*
X43537244Y-78327496D03*
%TD*%
D26*
%TO.C,H3*%
X60131487Y-103112347D03*
%TD*%
D27*
%TO.C,C13*%
X36140132Y-48184096D03*
X35180132Y-48184096D03*
%TD*%
%TO.C,C14*%
X36104925Y-49267990D03*
X35144925Y-49267990D03*
%TD*%
D38*
%TO.C,U4*%
X36922847Y-66883294D03*
X35652847Y-66883294D03*
X34382847Y-66883294D03*
X33112847Y-66883294D03*
X33112847Y-59683294D03*
X34382847Y-59683294D03*
X35652847Y-59683294D03*
X36922847Y-59683294D03*
%TD*%
D39*
%TO.C,C8*%
X55870000Y-69763531D03*
X55870000Y-66813531D03*
%TD*%
D36*
%TO.C,C4*%
X52070000Y-66410000D03*
X52070000Y-67370000D03*
%TD*%
D34*
%TO.C,R2*%
X33475000Y-75670000D03*
X35125000Y-75670000D03*
%TD*%
D26*
%TO.C,H1*%
X35044552Y-103139760D03*
%TD*%
D40*
%TO.C,IC2*%
X34802500Y-55200000D03*
X34802500Y-54400000D03*
X34802500Y-53600000D03*
X34802500Y-52800000D03*
X34802500Y-52000000D03*
X34802500Y-51200000D03*
D41*
X35812500Y-51190000D03*
D40*
X36822500Y-51200000D03*
X36822500Y-52000000D03*
X36822500Y-52800000D03*
X36822500Y-53600000D03*
X36822500Y-54400000D03*
X36822500Y-55200000D03*
D41*
X35812500Y-55210000D03*
%TD*%
D36*
%TO.C,C17*%
X55936515Y-51731044D03*
X55936515Y-52691044D03*
%TD*%
D17*
%TO.C,R6*%
X58430000Y-54220000D03*
X57410000Y-54220000D03*
%TD*%
D31*
%TO.C,R15*%
X46025000Y-95100000D03*
X44375000Y-95100000D03*
%TD*%
D36*
%TO.C,C12*%
X48129461Y-50367885D03*
X48129461Y-51327885D03*
%TD*%
D21*
%TO.C,D1*%
X33432500Y-77600000D03*
X35307500Y-77600000D03*
%TD*%
D27*
%TO.C,C2*%
X51486069Y-56200000D03*
X50526069Y-56200000D03*
%TD*%
D39*
%TO.C,C7*%
X55930000Y-75905000D03*
X55930000Y-72955000D03*
%TD*%
D36*
%TO.C,C5*%
X46580000Y-72740000D03*
X46580000Y-73700000D03*
%TD*%
D42*
%TO.C,IC1*%
X49423756Y-46773628D03*
X48923756Y-46773628D03*
X48423756Y-46773628D03*
X47923756Y-46773628D03*
X47423756Y-46773628D03*
X46923756Y-46773628D03*
X46423756Y-46773628D03*
D43*
X45913166Y-48038380D03*
D42*
X46425216Y-49300448D03*
X46925215Y-49300448D03*
X47425215Y-49300448D03*
X47925215Y-49300448D03*
X48425215Y-49300448D03*
X48925216Y-49300448D03*
X49425216Y-49300448D03*
D43*
X49937636Y-48038480D03*
%TD*%
D34*
%TO.C,R10*%
X43775000Y-85500000D03*
X45425000Y-85500000D03*
%TD*%
%TO.C,R14*%
X44275000Y-92500000D03*
X45925000Y-92500000D03*
%TD*%
D36*
%TO.C,C6*%
X47760000Y-72790000D03*
X47760000Y-73750000D03*
%TD*%
D44*
%TO.C,C15*%
X58438981Y-74610715D03*
X59398981Y-74610715D03*
%TD*%
D45*
%TO.C,J4*%
X58867500Y-59160000D03*
X58867500Y-59810000D03*
X58867500Y-60460000D03*
X58867500Y-61110000D03*
X58867500Y-61760000D03*
D46*
X58867500Y-57960000D03*
D47*
X61567500Y-63360000D03*
D48*
X61567500Y-56960000D03*
D49*
X61567500Y-59460000D03*
X61567500Y-61460000D03*
D47*
X61567500Y-57560000D03*
D46*
X58867500Y-62960000D03*
D48*
X61567500Y-63960000D03*
%TD*%
D22*
%TO.C,R13*%
X50249159Y-87690000D03*
X50249159Y-88710000D03*
%TD*%
D50*
%TO.C,R8*%
X45210000Y-78255000D03*
X45210000Y-79905000D03*
%TD*%
D51*
%TO.C,Q1*%
X59482762Y-76196182D03*
X61382762Y-76196182D03*
X60432762Y-78071182D03*
%TD*%
D44*
%TO.C,C16*%
X50090000Y-44360000D03*
X51050000Y-44360000D03*
%TD*%
D26*
%TO.C,H2*%
X34846669Y-44287519D03*
%TD*%
M02*
